<?xml version="1.0" encoding="UTF-8" standalone="no"?>
<!-- Created with Inkscape (http://www.inkscape.org/) -->

<svg
   width="210mm"
   height="297mm"
   viewBox="0 0 793.7008 1122.5197"
   version="1.1"
   id="svg1"
   inkscape:version="1.3.2 (1:1.3.2+202311252150+091e20ef0f)"
   sodipodi:docname="plexiglas_case.svg"
   xmlns:inkscape="http://www.inkscape.org/namespaces/inkscape"
   xmlns:sodipodi="http://sodipodi.sourceforge.net/DTD/sodipodi-0.dtd"
   xmlns="http://www.w3.org/2000/svg"
   xmlns:svg="http://www.w3.org/2000/svg">
  <sodipodi:namedview
     id="namedview1"
     pagecolor="#ffffff"
     bordercolor="#000000"
     borderopacity="0.25"
     inkscape:showpageshadow="2"
     inkscape:pageopacity="0.0"
     inkscape:pagecheckerboard="0"
     inkscape:deskcolor="#d1d1d1"
     inkscape:document-units="mm"
     inkscape:zoom="1.4538721"
     inkscape:cx="331.87239"
     inkscape:cy="282.69338"
     inkscape:window-width="1850"
     inkscape:window-height="1016"
     inkscape:window-x="70"
     inkscape:window-y="27"
     inkscape:window-maximized="1"
     inkscape:current-layer="layer1" />
  <defs
     id="defs1" />
  <g
     inkscape:label="Layer 1"
     inkscape:groupmode="layer"
     id="layer1">
    <path
       id="path1"
       d="m 2476.6206,249.40266 -0.6667,-7.33333 -2.1333,-7.2 -3.6,-6.53334 -4.6667,-5.73333 -5.7333,-4.66667 -6.5333,-3.46666 -7.0667,-2.13334 -7.3333,-0.8 m 0,1814.26661 7.3333,-0.8 7.0667,-2.1333 6.5333,-3.4667 5.7333,-4.6667 4.6667,-5.7333 3.6,-6.5333 2.1333,-7.0667 0.6667,-7.4667 m -718.1333,0 0.8,7.4667 2.1333,7.0667 3.4667,6.5333 4.6666,5.7333 5.7334,4.6667 6.5333,3.4667 7.0667,2.1333 7.4666,0.8 m 0,-1814.26661 -7.4666,0.8 -7.0667,2.13334 -6.5333,3.46666 -5.7334,4.66667 -4.6666,5.73333 -3.4667,6.53334 -2.1333,7.2 -0.8,7.33333 m 607.6,1057.33324 2.1333,-0.4 1.8667,-1.3333 1.2,-1.7333 0.4,-2.2667 -0.4,-2.1333 -1.2,-1.8667 -1.8667,-1.2 -2.1333,-0.4 -2.1334,0.4 -1.8666,1.2 -1.2,1.8667 -0.5334,2.1333 0.5334,2.2667 1.2,1.7333 1.8666,1.3333 2.1334,0.4 m -32.5334,495.8667 2.1334,-0.4 1.8666,-1.2 1.2,-1.8667 0.5334,-2.1333 -0.5334,-2.2667 -1.2,-1.7333 -1.8666,-1.3333 -2.1334,-0.4 -2.1333,0.4 -1.8667,1.3333 -1.2,1.7333 -0.4,2.2667 0.4,2.1333 1.2,1.8667 1.8667,1.2 2.1333,0.4 m -432,-131.4667 -2.1333,0.4 -1.8667,1.2 -1.2,1.8667 -0.4,2.1333 0.4,2.2667 1.2,1.7333 1.8667,1.3334 2.1333,0.4 2.2667,-0.4 1.7333,-1.3334 1.3334,-1.7333 0.4,-2.2667 -0.4,-2.1333 -1.3334,-1.8667 -1.7333,-1.2 -2.2667,-0.4 m -120.9333,0 -2.1333,0.4 -1.8667,1.2 -1.2,1.8667 -0.4,2.1333 0.4,2.2667 1.2,1.7333 1.8667,1.3334 2.1333,0.4 2.1333,-0.4 1.8667,-1.3334 1.2,-1.7333 0.5333,-2.2667 -0.5333,-2.1333 -1.2,-1.8667 -1.8667,-1.2 -2.1333,-0.4 m 0,192.8 -2.1333,0.4 -1.8667,1.2 -1.2,1.8667 -0.4,2.1333 0.4,2.1334 1.2,1.8666 1.8667,1.2 2.1333,0.5334 2.1333,-0.5334 1.8667,-1.2 1.2,-1.8666 0.5333,-2.1334 -0.5333,-2.1333 -1.2,-1.8667 -1.8667,-1.2 -2.1333,-0.4 m 120.9333,0 -2.1333,0.4 -1.8667,1.2 -1.2,1.8667 -0.4,2.1333 0.4,2.1334 1.2,1.8666 1.8667,1.2 2.1333,0.5334 2.2667,-0.5334 1.7333,-1.2 1.3334,-1.8666 0.4,-2.1334 -0.4,-2.1333 -1.3334,-1.8667 -1.7333,-1.2 -2.2667,-0.4 m 46,-228.4 -2.2666,0.4 -1.7334,1.2 -1.3333,1.8667 -0.4,2.1333 0.4,2.2667 1.3333,1.8667 1.7334,1.2 2.2666,0.4 2.1334,-0.4 1.8666,-1.2 1.2,-1.8667 0.4,-2.2667 -0.4,-2.1333 -1.2,-1.8667 -1.8666,-1.2 -2.1334,-0.4 m 0,340.1334 -2.2666,0.4 -1.7334,1.3333 -1.3333,1.7333 -0.4,2.2667 0.4,2.1333 1.3333,1.8667 1.7334,1.2 2.2666,0.4 2.1334,-0.4 1.8666,-1.2 1.2,-1.8667 0.4,-2.1333 -0.4,-2.2667 -1.2,-1.7333 -1.8666,-1.3333 -2.1334,-0.4 m 340.1334,11.3333 2.1333,-0.4 1.8667,-1.2 1.2,-1.8667 0.4,-2.1333 -0.4,-2.2667 -1.2,-1.7333 -1.8667,-1.3333 -2.1333,-0.4 -2.2667,0.4 -1.7333,1.3333 -1.3334,1.7333 -0.4,2.2667 0.4,2.1333 1.3334,1.8667 1.7333,1.2 2.2667,0.4 m -386.1334,-195.7333 -2.1333,0.4 -1.8667,1.3333 -1.2,1.7333 -0.4,2.2667 0.4,2.1333 1.2,1.8667 1.8667,1.2 2.1333,0.4 2.2667,-0.4 1.7333,-1.2 1.3334,-1.8667 0.4,-2.1333 -0.4,-2.2667 -1.3334,-1.7333 -1.7333,-1.3333 -2.2667,-0.4 m -120.9333,0 -2.1333,0.4 -1.8667,1.3333 -1.2,1.7333 -0.4,2.2667 0.4,2.1333 1.2,1.8667 1.8667,1.2 2.1333,0.4 2.1333,-0.4 1.8667,-1.2 1.2,-1.8667 0.5333,-2.1333 -0.5333,-2.2667 -1.2,-1.7333 -1.8667,-1.3333 -2.1333,-0.4 m 0,192.8 -2.1333,0.4 -1.8667,1.2 -1.2,1.8666 -0.4,2.1334 0.4,2.2666 1.2,1.8667 1.8667,1.2 2.1333,0.4 2.1333,-0.4 1.8667,-1.2 1.2,-1.8667 0.5333,-2.2666 -0.5333,-2.1334 -1.2,-1.8666 -1.8667,-1.2 -2.1333,-0.4 m 120.9333,0 -2.1333,0.4 -1.8667,1.2 -1.2,1.8666 -0.4,2.1334 0.4,2.2666 1.2,1.8667 1.8667,1.2 2.1333,0.4 2.2667,-0.4 1.7333,-1.2 1.3334,-1.8667 0.4,-2.2666 -0.4,-2.1334 -1.3334,-1.8666 -1.7333,-1.2 -2.2667,-0.4 m 432,11.3333 2.1334,-0.4 1.8666,-1.2 1.2,-1.8667 0.5334,-2.2666 -0.5334,-2.1334 -1.2,-1.8666 -1.8666,-1.2 -2.1334,-0.4 -2.1333,0.4 -1.8667,1.2 -1.2,1.8666 -0.4,2.1334 0.4,2.2666 1.2,1.8667 1.8667,1.2 2.1333,0.4 m 120.9334,0 2.1333,-0.4 1.8667,-1.2 1.2,-1.8667 0.5333,-2.2666 -0.5333,-2.1334 -1.2,-1.8666 -1.8667,-1.2 -2.1333,-0.4 -2.1334,0.4 -1.8666,1.2 -1.2,1.8666 -0.4,2.1334 0.4,2.2666 1.2,1.8667 1.8666,1.2 2.1334,0.4 m -343.8667,-756.6667 2.1333,-0.5333 1.8667,-1.2 1.2,-1.8667 0.4,-2.1333 -0.4,-2.1333 -1.2,-1.8667 -1.8667,-1.2 -2.1333,-0.4 -2.2667,0.4 -1.7333,1.2 -1.3333,1.8667 -0.4,2.1333 0.4,2.1333 1.3333,1.8667 1.7333,1.2 2.2667,0.5333 m 0,-264.6666 2.1333,-0.4 1.8667,-1.2 1.2,-1.86666 0.4,-2.13333 -0.4,-2.13333 -1.2,-1.86667 -1.8667,-1.2 -2.1333,-0.53333 -2.2667,0.53333 -1.7333,1.2 -1.3333,1.86667 -0.4,2.13333 0.4,2.13333 1.3333,1.86666 1.7333,1.2 2.2667,0.4 m 328.8,0 2.1333,-0.4 1.8667,-1.2 1.2,-1.86666 0.4,-2.13333 -0.4,-2.13333 -1.2,-1.86667 -1.8667,-1.2 -2.1333,-0.53333 -2.1333,0.53333 -1.8667,1.2 -1.2,1.86667 -0.5333,2.13333 0.5333,2.13333 1.2,1.86666 1.8667,1.2 2.1333,0.4 m -479.2,280.8 2.1333,-0.4 1.8667,-1.2 1.2,-1.8667 0.4,-2.1333 -0.4,-2.1334 -1.2,-1.8666 -1.8667,-1.2 -2.1333,-0.5334 -2.2667,0.5334 -1.8666,1.2 -1.2,1.8666 -0.4,2.1334 0.4,2.1333 1.2,1.8667 1.8666,1.2 2.2667,0.4 m 273.6,51.8666 2.1333,-0.4 1.8667,-1.3333 1.2,-1.7333 0.4,-2.2667 -0.4,-2.1333 -1.2,-1.8667 -1.8667,-1.2 -2.1333,-0.4 -2.1333,0.4 -1.8667,1.2 -1.2,1.8667 -0.5333,2.1333 0.5333,2.2667 1.2,1.7333 1.8667,1.3333 2.1333,0.4 m 132.2667,198.4 2.1333,-0.4 1.8667,-1.2 1.2,-1.8666 0.4,-2.1334 -0.4,-2.2666 -1.2,-1.8667 -1.8667,-1.2 -2.1333,-0.4 -2.1334,0.4 -1.8666,1.2 -1.2,1.8667 -0.5334,2.2666 0.5334,2.1334 1.2,1.8666 1.8666,1.2 2.1334,0.4 m -132.2667,0 2.1333,-0.4 1.8667,-1.2 1.2,-1.8666 0.4,-2.1334 -0.4,-2.2666 -1.2,-1.8667 -1.8667,-1.2 -2.1333,-0.4 -2.1333,0.4 -1.8667,1.2 -1.2,1.8667 -0.5333,2.2666 0.5333,2.1334 1.2,1.8666 1.8667,1.2 2.1333,0.4 m 205.6,-266.4 2.1333,-0.5333 1.8667,-1.2 1.2,-1.8667 0.4,-2.1333 -0.4,-2.1333 -1.2,-1.8667 -1.8667,-1.2 -2.1333,-0.4 -2.1333,0.4 -1.8667,1.2 -1.2,1.8667 -0.5333,2.1333 0.5333,2.1333 1.2,1.8667 1.8667,1.2 2.1333,0.5333 m -151.7333,408.1334 2.1333,-0.4 1.8667,-1.2 1.2,-1.8667 0.4,-2.2667 -0.4,-2.1333 -1.2,-1.8667 -1.8667,-1.2 -2.1333,-0.4 -2.2667,0.4 -1.7333,1.2 -1.3334,1.8667 -0.4,2.1333 0.4,2.2667 1.3334,1.8667 1.7333,1.2 2.2667,0.4 m 45.8666,228.4 2.1334,-0.5334 1.8666,-1.2 1.2,-1.8666 0.5334,-2.1334 -0.5334,-2.1333 -1.2,-1.8667 -1.8666,-1.2 -2.1334,-0.4 -2.1333,0.4 -1.8667,1.2 -1.2,1.8667 -0.4,2.1333 0.4,2.1334 1.2,1.8666 1.8667,1.2 2.1333,0.5334 m 120.9334,0 2.1333,-0.5334 1.8667,-1.2 1.2,-1.8666 0.5333,-2.1334 -0.5333,-2.1333 -1.2,-1.8667 -1.8667,-1.2 -2.1333,-0.4 -2.1334,0.4 -1.8666,1.2 -1.2,1.8667 -0.4,2.1333 0.4,2.1334 1.2,1.8666 1.8666,1.2 2.1334,0.5334 m 0,-192.8 2.1333,-0.4 1.8667,-1.3334 1.2,-1.7333 0.5333,-2.2667 -0.5333,-2.1333 -1.2,-1.8667 -1.8667,-1.2 -2.1333,-0.4 -2.1334,0.4 -1.8666,1.2 -1.2,1.8667 -0.4,2.1333 0.4,2.2667 1.2,1.7333 1.8666,1.3334 2.1334,0.4 m -120.9334,0 2.1334,-0.4 1.8666,-1.3334 1.2,-1.7333 0.5334,-2.2667 -0.5334,-2.1333 -1.2,-1.8667 -1.8666,-1.2 -2.1334,-0.4 -2.1333,0.4 -1.8667,1.2 -1.2,1.8667 -0.4,2.1333 0.4,2.2667 1.2,1.7333 1.8667,1.3334 2.1333,0.4 m -373.3333,-177.4667 2.1333,-0.4 1.8667,-1.2 1.2,-1.8667 0.4,-2.1333 -0.4,-2.2667 -1.2,-1.7333 -1.8667,-1.3333 -2.1333,-0.4 -2.2667,0.4 -1.8666,1.3333 -1.2,1.7333 -0.4,2.2667 0.4,2.1333 1.2,1.8667 1.8666,1.2 2.2667,0.4 m -170.1333,-0.9333 2.1333,-0.5334 1.8667,-1.2 1.2,-1.8666 0.4,-2.1334 -0.4,-2.1333 -1.2,-1.8667 -1.8667,-1.2 -2.1333,-0.5333 -2.1334,0.5333 -1.8666,1.2 -1.2,1.8667 -0.5334,2.1333 0.5334,2.1334 1.2,1.8666 1.8666,1.2 2.1334,0.5334 m 0,-249.2 2.1333,-0.4 1.8667,-1.2 1.2,-1.8667 0.4,-2.1333 -0.4,-2.1334 -1.2,-1.8666 -1.8667,-1.2 -2.1333,-0.5334 -2.1334,0.5334 -1.8666,1.2 -1.2,1.8666 -0.5334,2.1334 0.5334,2.1333 1.2,1.8667 1.8666,1.2 2.1334,0.4 m 664.4,547.7333 2.1333,-0.4 1.8667,-1.2 1.2,-1.8667 0.5333,-2.1333 -0.5333,-2.2667 -1.2,-1.7333 -1.8667,-1.3333 -2.1333,-0.4 -2.1334,0.4 -1.8666,1.3333 -1.2,1.7333 -0.4,2.2667 0.4,2.1333 1.2,1.8667 1.8666,1.2 2.1334,0.4 m -15.6,-1591.06661 h -642.5334 m -37.8666,37.86667 V 1987.9359 m 37.8666,37.8667 h 642.5334 m 37.7333,-37.8667 V 249.40266"
       style="fill:none;stroke:#000000;stroke-width:0.945333;stroke-linecap:round;stroke-linejoin:round;stroke-miterlimit:10;stroke-dasharray:none;stroke-opacity:1" />
    <rect
       style="fill:#000000;fill-opacity:0;stroke:#000000;stroke-width:1.00467;stroke-opacity:1"
       id="rect1"
       width="592.38116"
       height="433.64099"
       x="38.297611"
       y="38.297611" />
    <circle
       style="fill:#000000;fill-opacity:0;stroke:#000000;stroke-width:0.54987;stroke-opacity:1"
       id="path2"
       cx="58.58268"
       cy="54.80315"
       r="7.2841201" />
    <circle
       style="fill:#000000;fill-opacity:0;stroke:#000000;stroke-width:0.54987;stroke-opacity:1"
       id="path2-3"
       cx="614.17322"
       cy="54.80315"
       r="7.2841201" />
    <circle
       style="fill:#000000;fill-opacity:0;stroke:#000000;stroke-width:0.54987;stroke-opacity:1"
       id="path2-9"
       cx="614.17322"
       cy="455.43307"
       r="7.2841201" />
    <circle
       style="fill:#000000;fill-opacity:0;stroke:#000000;stroke-width:0.54987;stroke-opacity:1"
       id="path2-9-0"
       cx="58.58268"
       cy="455.43307"
       r="7.2841201" />
  </g>
</svg>
