%TF.GenerationSoftware,KiCad,Pcbnew,8.0.2-8.0.2-0~ubuntu22.04.1*%
%TF.CreationDate,2024-06-09T12:29:29+02:00*%
%TF.ProjectId,car_pcb,6361725f-7063-4622-9e6b-696361645f70,rev?*%
%TF.SameCoordinates,Original*%
%TF.FileFunction,Drillmap*%
%TF.FilePolarity,Positive*%
%FSLAX45Y45*%
G04 Gerber Fmt 4.5, Leading zero omitted, Abs format (unit mm)*
G04 Created by KiCad (PCBNEW 8.0.2-8.0.2-0~ubuntu22.04.1) date 2024-06-09 12:29:29*
%MOMM*%
%LPD*%
G01*
G04 APERTURE LIST*
%ADD10C,0.050000*%
%ADD11C,0.200000*%
G04 APERTURE END LIST*
D10*
X2000000Y-1500000D02*
X17800000Y-1500000D01*
X17800000Y-13000000D01*
X2000000Y-13000000D01*
X2000000Y-1500000D01*
D11*
X2258277Y-13313984D02*
X2258277Y-13113984D01*
X2258277Y-13113984D02*
X2305896Y-13113984D01*
X2305896Y-13113984D02*
X2334467Y-13123508D01*
X2334467Y-13123508D02*
X2353515Y-13142555D01*
X2353515Y-13142555D02*
X2363039Y-13161603D01*
X2363039Y-13161603D02*
X2372563Y-13199698D01*
X2372563Y-13199698D02*
X2372563Y-13228269D01*
X2372563Y-13228269D02*
X2363039Y-13266365D01*
X2363039Y-13266365D02*
X2353515Y-13285412D01*
X2353515Y-13285412D02*
X2334467Y-13304460D01*
X2334467Y-13304460D02*
X2305896Y-13313984D01*
X2305896Y-13313984D02*
X2258277Y-13313984D01*
X2458277Y-13313984D02*
X2458277Y-13180650D01*
X2458277Y-13218746D02*
X2467801Y-13199698D01*
X2467801Y-13199698D02*
X2477324Y-13190174D01*
X2477324Y-13190174D02*
X2496372Y-13180650D01*
X2496372Y-13180650D02*
X2515420Y-13180650D01*
X2582086Y-13313984D02*
X2582086Y-13180650D01*
X2582086Y-13113984D02*
X2572563Y-13123508D01*
X2572563Y-13123508D02*
X2582086Y-13133031D01*
X2582086Y-13133031D02*
X2591610Y-13123508D01*
X2591610Y-13123508D02*
X2582086Y-13113984D01*
X2582086Y-13113984D02*
X2582086Y-13133031D01*
X2705896Y-13313984D02*
X2686848Y-13304460D01*
X2686848Y-13304460D02*
X2677324Y-13285412D01*
X2677324Y-13285412D02*
X2677324Y-13113984D01*
X2810658Y-13313984D02*
X2791610Y-13304460D01*
X2791610Y-13304460D02*
X2782086Y-13285412D01*
X2782086Y-13285412D02*
X2782086Y-13113984D01*
X3039229Y-13313984D02*
X3039229Y-13113984D01*
X3039229Y-13113984D02*
X3105896Y-13256841D01*
X3105896Y-13256841D02*
X3172562Y-13113984D01*
X3172562Y-13113984D02*
X3172562Y-13313984D01*
X3353515Y-13313984D02*
X3353515Y-13209222D01*
X3353515Y-13209222D02*
X3343991Y-13190174D01*
X3343991Y-13190174D02*
X3324943Y-13180650D01*
X3324943Y-13180650D02*
X3286848Y-13180650D01*
X3286848Y-13180650D02*
X3267801Y-13190174D01*
X3353515Y-13304460D02*
X3334467Y-13313984D01*
X3334467Y-13313984D02*
X3286848Y-13313984D01*
X3286848Y-13313984D02*
X3267801Y-13304460D01*
X3267801Y-13304460D02*
X3258277Y-13285412D01*
X3258277Y-13285412D02*
X3258277Y-13266365D01*
X3258277Y-13266365D02*
X3267801Y-13247317D01*
X3267801Y-13247317D02*
X3286848Y-13237793D01*
X3286848Y-13237793D02*
X3334467Y-13237793D01*
X3334467Y-13237793D02*
X3353515Y-13228269D01*
X3448753Y-13180650D02*
X3448753Y-13380650D01*
X3448753Y-13190174D02*
X3467801Y-13180650D01*
X3467801Y-13180650D02*
X3505896Y-13180650D01*
X3505896Y-13180650D02*
X3524943Y-13190174D01*
X3524943Y-13190174D02*
X3534467Y-13199698D01*
X3534467Y-13199698D02*
X3543991Y-13218746D01*
X3543991Y-13218746D02*
X3543991Y-13275888D01*
X3543991Y-13275888D02*
X3534467Y-13294936D01*
X3534467Y-13294936D02*
X3524943Y-13304460D01*
X3524943Y-13304460D02*
X3505896Y-13313984D01*
X3505896Y-13313984D02*
X3467801Y-13313984D01*
X3467801Y-13313984D02*
X3448753Y-13304460D01*
X3629705Y-13294936D02*
X3639229Y-13304460D01*
X3639229Y-13304460D02*
X3629705Y-13313984D01*
X3629705Y-13313984D02*
X3620182Y-13304460D01*
X3620182Y-13304460D02*
X3629705Y-13294936D01*
X3629705Y-13294936D02*
X3629705Y-13313984D01*
X3629705Y-13190174D02*
X3639229Y-13199698D01*
X3639229Y-13199698D02*
X3629705Y-13209222D01*
X3629705Y-13209222D02*
X3620182Y-13199698D01*
X3620182Y-13199698D02*
X3629705Y-13190174D01*
X3629705Y-13190174D02*
X3629705Y-13209222D01*
M02*
