%TF.GenerationSoftware,KiCad,Pcbnew,8.0.2-8.0.2-0~ubuntu22.04.1*%
%TF.CreationDate,2024-05-18T17:39:12+02:00*%
%TF.ProjectId,car_pcb,6361725f-7063-4622-9e6b-696361645f70,rev?*%
%TF.SameCoordinates,Original*%
%TF.FileFunction,Drillmap*%
%TF.FilePolarity,Positive*%
%FSLAX45Y45*%
G04 Gerber Fmt 4.5, Leading zero omitted, Abs format (unit mm)*
G04 Created by KiCad (PCBNEW 8.0.2-8.0.2-0~ubuntu22.04.1) date 2024-05-18 17:39:12*
%MOMM*%
%LPD*%
G01*
G04 APERTURE LIST*
%ADD10C,0.050000*%
%ADD11C,0.200000*%
%ADD12C,0.100000*%
%ADD13C,0.130000*%
%ADD14C,0.132000*%
%ADD15C,0.300000*%
G04 APERTURE END LIST*
D10*
X2000000Y-1500000D02*
X17800000Y-1500000D01*
X17800000Y-13000000D01*
X2000000Y-13000000D01*
X2000000Y-1500000D01*
D11*
D12*
X4512250Y-10758350D02*
X4542250Y-10788350D01*
X4542250Y-10758350D02*
X4512250Y-10788350D01*
X6727870Y-5664610D02*
X6757870Y-5694610D01*
X6757870Y-5664610D02*
X6727870Y-5694610D01*
X6902770Y-5677760D02*
X6932770Y-5707760D01*
X6932770Y-5677760D02*
X6902770Y-5707760D01*
X7168090Y-9033750D02*
X7198090Y-9063750D01*
X7198090Y-9033750D02*
X7168090Y-9063750D01*
X7504980Y-8582640D02*
X7534980Y-8612640D01*
X7534980Y-8582640D02*
X7504980Y-8612640D01*
X7613230Y-6410450D02*
X7643230Y-6440450D01*
X7643230Y-6410450D02*
X7613230Y-6440450D01*
X7735800Y-3863420D02*
X7765800Y-3893420D01*
X7765800Y-3863420D02*
X7735800Y-3893420D01*
X8234800Y-9221740D02*
X8264800Y-9251740D01*
X8264800Y-9221740D02*
X8234800Y-9251740D01*
X8721860Y-10657600D02*
X8751860Y-10687600D01*
X8751860Y-10657600D02*
X8721860Y-10687600D01*
X9191650Y-10354310D02*
X9221650Y-10384310D01*
X9221650Y-10354310D02*
X9191650Y-10384310D01*
X9437540Y-11178370D02*
X9467540Y-11208370D01*
X9467540Y-11178370D02*
X9437540Y-11208370D01*
X9583240Y-11321590D02*
X9613240Y-11351590D01*
X9613240Y-11321590D02*
X9583240Y-11351590D01*
X9837430Y-10049630D02*
X9867430Y-10079630D01*
X9867430Y-10049630D02*
X9837430Y-10079630D01*
X9887990Y-9940560D02*
X9917990Y-9970560D01*
X9917990Y-9940560D02*
X9887990Y-9970560D01*
X10752660Y-9226600D02*
X10782660Y-9256600D01*
X10782660Y-9226600D02*
X10752660Y-9256600D01*
X11093470Y-9500530D02*
X11123470Y-9530530D01*
X11123470Y-9500530D02*
X11093470Y-9530530D01*
X11512500Y-8275600D02*
X11542500Y-8305600D01*
X11542500Y-8275600D02*
X11512500Y-8305600D01*
X11682140Y-12235610D02*
X11712140Y-12265610D01*
X11712140Y-12235610D02*
X11682140Y-12265610D01*
X11710010Y-12339170D02*
X11740010Y-12369170D01*
X11740010Y-12339170D02*
X11710010Y-12369170D01*
X11789740Y-11133640D02*
X11819740Y-11163640D01*
X11819740Y-11133640D02*
X11789740Y-11163640D01*
X11801880Y-12103700D02*
X11831880Y-12133700D01*
X11831880Y-12103700D02*
X11801880Y-12133700D01*
X11886590Y-11738690D02*
X11916590Y-11768690D01*
X11916590Y-11738690D02*
X11886590Y-11768690D01*
X12304220Y-9808140D02*
X12334220Y-9838140D01*
X12334220Y-9808140D02*
X12304220Y-9838140D01*
X12319510Y-7445220D02*
X12349510Y-7475220D01*
X12349510Y-7445220D02*
X12319510Y-7475220D01*
X12398750Y-7530280D02*
X12428750Y-7560280D01*
X12428750Y-7530280D02*
X12398750Y-7560280D01*
X12468980Y-8735360D02*
X12498980Y-8765360D01*
X12498980Y-8735360D02*
X12468980Y-8765360D01*
X12518140Y-7430970D02*
X12548140Y-7460970D01*
X12548140Y-7430970D02*
X12518140Y-7460970D01*
X12575420Y-12260190D02*
X12605420Y-12290190D01*
X12605420Y-12260190D02*
X12575420Y-12290190D01*
X4624100Y-3800000D02*
G75*
G02*
X4547900Y-3800000I-38100J0D01*
G01*
X4547900Y-3800000D02*
G75*
G02*
X4624100Y-3800000I38100J0D01*
G01*
X4624100Y-5324000D02*
G75*
G02*
X4547900Y-5324000I-38100J0D01*
G01*
X4547900Y-5324000D02*
G75*
G02*
X4624100Y-5324000I38100J0D01*
G01*
X5538100Y-3800000D02*
G75*
G02*
X5461900Y-3800000I-38100J0D01*
G01*
X5461900Y-3800000D02*
G75*
G02*
X5538100Y-3800000I38100J0D01*
G01*
X5538100Y-5324000D02*
G75*
G02*
X5461900Y-5324000I-38100J0D01*
G01*
X5461900Y-5324000D02*
G75*
G02*
X5538100Y-5324000I38100J0D01*
G01*
X6038100Y-3800000D02*
G75*
G02*
X5961900Y-3800000I-38100J0D01*
G01*
X5961900Y-3800000D02*
G75*
G02*
X6038100Y-3800000I38100J0D01*
G01*
X6038100Y-5324000D02*
G75*
G02*
X5961900Y-5324000I-38100J0D01*
G01*
X5961900Y-5324000D02*
G75*
G02*
X6038100Y-5324000I38100J0D01*
G01*
X6952100Y-3800000D02*
G75*
G02*
X6875900Y-3800000I-38100J0D01*
G01*
X6875900Y-3800000D02*
G75*
G02*
X6952100Y-3800000I38100J0D01*
G01*
X6952100Y-5324000D02*
G75*
G02*
X6875900Y-5324000I-38100J0D01*
G01*
X6875900Y-5324000D02*
G75*
G02*
X6952100Y-5324000I38100J0D01*
G01*
X9630100Y-9800000D02*
G75*
G02*
X9553900Y-9800000I-38100J0D01*
G01*
X9553900Y-9800000D02*
G75*
G02*
X9630100Y-9800000I38100J0D01*
G01*
X9884100Y-9800000D02*
G75*
G02*
X9807900Y-9800000I-38100J0D01*
G01*
X9807900Y-9800000D02*
G75*
G02*
X9884100Y-9800000I38100J0D01*
G01*
X10138100Y-9800000D02*
G75*
G02*
X10061900Y-9800000I-38100J0D01*
G01*
X10061900Y-9800000D02*
G75*
G02*
X10138100Y-9800000I38100J0D01*
G01*
X10392100Y-9800000D02*
G75*
G02*
X10315900Y-9800000I-38100J0D01*
G01*
X10315900Y-9800000D02*
G75*
G02*
X10392100Y-9800000I38100J0D01*
G01*
X10646100Y-9800000D02*
G75*
G02*
X10569900Y-9800000I-38100J0D01*
G01*
X10569900Y-9800000D02*
G75*
G02*
X10646100Y-9800000I38100J0D01*
G01*
X10900100Y-9800000D02*
G75*
G02*
X10823900Y-9800000I-38100J0D01*
G01*
X10823900Y-9800000D02*
G75*
G02*
X10900100Y-9800000I38100J0D01*
G01*
X11154100Y-9800000D02*
G75*
G02*
X11077900Y-9800000I-38100J0D01*
G01*
X11077900Y-9800000D02*
G75*
G02*
X11154100Y-9800000I38100J0D01*
G01*
X11408100Y-9800000D02*
G75*
G02*
X11331900Y-9800000I-38100J0D01*
G01*
X11331900Y-9800000D02*
G75*
G02*
X11408100Y-9800000I38100J0D01*
G01*
X12646000Y-10355000D02*
X12646000Y-10445000D01*
X12601000Y-10400000D02*
X12691000Y-10400000D01*
X12900000Y-10355000D02*
X12900000Y-10445000D01*
X12855000Y-10400000D02*
X12945000Y-10400000D01*
X12946000Y-4755000D02*
X12946000Y-4845000D01*
X12901000Y-4800000D02*
X12991000Y-4800000D01*
X13200000Y-4755000D02*
X13200000Y-4845000D01*
X13155000Y-4800000D02*
X13245000Y-4800000D01*
X2635356Y-4035356D02*
X2635356Y-3964644D01*
X2564644Y-3964644D01*
X2564644Y-4035356D01*
X2635356Y-4035356D01*
X2635356Y-4289356D02*
X2635356Y-4218644D01*
X2564644Y-4218644D01*
X2564644Y-4289356D01*
X2635356Y-4289356D01*
X2635356Y-4543356D02*
X2635356Y-4472644D01*
X2564644Y-4472644D01*
X2564644Y-4543356D01*
X2635356Y-4543356D01*
X2635356Y-4797356D02*
X2635356Y-4726644D01*
X2564644Y-4726644D01*
X2564644Y-4797356D01*
X2635356Y-4797356D01*
X3135356Y-4035356D02*
X3135356Y-3964644D01*
X3064644Y-3964644D01*
X3064644Y-4035356D01*
X3135356Y-4035356D01*
X3135356Y-4289356D02*
X3135356Y-4218644D01*
X3064644Y-4218644D01*
X3064644Y-4289356D01*
X3135356Y-4289356D01*
X3135356Y-4543356D02*
X3135356Y-4472644D01*
X3064644Y-4472644D01*
X3064644Y-4543356D01*
X3135356Y-4543356D01*
X3135356Y-4797356D02*
X3135356Y-4726644D01*
X3064644Y-4726644D01*
X3064644Y-4797356D01*
X3135356Y-4797356D01*
X3635356Y-4035356D02*
X3635356Y-3964644D01*
X3564644Y-3964644D01*
X3564644Y-4035356D01*
X3635356Y-4035356D01*
X3635356Y-4289356D02*
X3635356Y-4218644D01*
X3564644Y-4218644D01*
X3564644Y-4289356D01*
X3635356Y-4289356D01*
X3635356Y-4543356D02*
X3635356Y-4472644D01*
X3564644Y-4472644D01*
X3564644Y-4543356D01*
X3635356Y-4543356D01*
X3635356Y-4797356D02*
X3635356Y-4726644D01*
X3564644Y-4726644D01*
X3564644Y-4797356D01*
X3635356Y-4797356D01*
X4135356Y-4035356D02*
X4135356Y-3964644D01*
X4064644Y-3964644D01*
X4064644Y-4035356D01*
X4135356Y-4035356D01*
X4135356Y-4289356D02*
X4135356Y-4218644D01*
X4064644Y-4218644D01*
X4064644Y-4289356D01*
X4135356Y-4289356D01*
X4135356Y-4543356D02*
X4135356Y-4472644D01*
X4064644Y-4472644D01*
X4064644Y-4543356D01*
X4135356Y-4543356D01*
X4135356Y-4797356D02*
X4135356Y-4726644D01*
X4064644Y-4726644D01*
X4064644Y-4797356D01*
X4135356Y-4797356D01*
X4565356Y-2835356D02*
X4565356Y-2764644D01*
X4494644Y-2764644D01*
X4494644Y-2835356D01*
X4565356Y-2835356D01*
X4480000Y-2700000D02*
X4480000Y-2900000D01*
X4580000Y-2900000D02*
G75*
G02*
X4480000Y-2900000I-50000J0D01*
G01*
X4580000Y-2900000D02*
X4580000Y-2700000D01*
X4580000Y-2700000D02*
G75*
G03*
X4480000Y-2700000I-50000J0D01*
G01*
X5035356Y-2535356D02*
X5035356Y-2464644D01*
X4964644Y-2464644D01*
X4964644Y-2535356D01*
X5035356Y-2535356D01*
X5100000Y-2450000D02*
X4900000Y-2450000D01*
X4900000Y-2550000D02*
G75*
G02*
X4900000Y-2450000I0J50000D01*
G01*
X4900000Y-2550000D02*
X5100000Y-2550000D01*
X5100000Y-2550000D02*
G75*
G03*
X5100000Y-2450000I0J50000D01*
G01*
X5035356Y-3135356D02*
X5035356Y-3064644D01*
X4964644Y-3064644D01*
X4964644Y-3135356D01*
X5035356Y-3135356D01*
X5100000Y-3050000D02*
X4900000Y-3050000D01*
X4900000Y-3150000D02*
G75*
G02*
X4900000Y-3050000I0J50000D01*
G01*
X4900000Y-3150000D02*
X5100000Y-3150000D01*
X5100000Y-3150000D02*
G75*
G03*
X5100000Y-3050000I0J50000D01*
G01*
X6165356Y-2835356D02*
X6165356Y-2764644D01*
X6094644Y-2764644D01*
X6094644Y-2835356D01*
X6165356Y-2835356D01*
X6080000Y-2700000D02*
X6080000Y-2900000D01*
X6180000Y-2900000D02*
G75*
G02*
X6080000Y-2900000I-50000J0D01*
G01*
X6180000Y-2900000D02*
X6180000Y-2700000D01*
X6180000Y-2700000D02*
G75*
G03*
X6080000Y-2700000I-50000J0D01*
G01*
X6635356Y-2535356D02*
X6635356Y-2464644D01*
X6564644Y-2464644D01*
X6564644Y-2535356D01*
X6635356Y-2535356D01*
X6700000Y-2450000D02*
X6500000Y-2450000D01*
X6500000Y-2550000D02*
G75*
G02*
X6500000Y-2450000I0J50000D01*
G01*
X6500000Y-2550000D02*
X6700000Y-2550000D01*
X6700000Y-2550000D02*
G75*
G03*
X6700000Y-2450000I0J50000D01*
G01*
X6635356Y-3135356D02*
X6635356Y-3064644D01*
X6564644Y-3064644D01*
X6564644Y-3135356D01*
X6635356Y-3135356D01*
X6700000Y-3050000D02*
X6500000Y-3050000D01*
X6500000Y-3150000D02*
G75*
G02*
X6500000Y-3050000I0J50000D01*
G01*
X6500000Y-3150000D02*
X6700000Y-3150000D01*
X6700000Y-3150000D02*
G75*
G03*
X6700000Y-3050000I0J50000D01*
G01*
X6795356Y-12535356D02*
X6795356Y-12464644D01*
X6724644Y-12464644D01*
X6724644Y-12535356D01*
X6795356Y-12535356D01*
X6819356Y-12035356D02*
X6819356Y-11964644D01*
X6748644Y-11964644D01*
X6748644Y-12035356D01*
X6819356Y-12035356D01*
X7049356Y-12535356D02*
X7049356Y-12464644D01*
X6978644Y-12464644D01*
X6978644Y-12535356D01*
X7049356Y-12535356D01*
X7073356Y-12035356D02*
X7073356Y-11964644D01*
X7002644Y-11964644D01*
X7002644Y-12035356D01*
X7073356Y-12035356D01*
X7303356Y-12535356D02*
X7303356Y-12464644D01*
X7232644Y-12464644D01*
X7232644Y-12535356D01*
X7303356Y-12535356D01*
X7327356Y-12035356D02*
X7327356Y-11964644D01*
X7256644Y-11964644D01*
X7256644Y-12035356D01*
X7327356Y-12035356D01*
X7557356Y-12535356D02*
X7557356Y-12464644D01*
X7486644Y-12464644D01*
X7486644Y-12535356D01*
X7557356Y-12535356D01*
X7581356Y-12035356D02*
X7581356Y-11964644D01*
X7510644Y-11964644D01*
X7510644Y-12035356D01*
X7581356Y-12035356D01*
X7811356Y-12535356D02*
X7811356Y-12464644D01*
X7740644Y-12464644D01*
X7740644Y-12535356D01*
X7811356Y-12535356D01*
X7835356Y-12035356D02*
X7835356Y-11964644D01*
X7764644Y-11964644D01*
X7764644Y-12035356D01*
X7835356Y-12035356D01*
X7957356Y-3373356D02*
X7957356Y-3302644D01*
X7886644Y-3302644D01*
X7886644Y-3373356D01*
X7957356Y-3373356D01*
X7957356Y-3627356D02*
X7957356Y-3556644D01*
X7886644Y-3556644D01*
X7886644Y-3627356D01*
X7957356Y-3627356D01*
X7957356Y-3881356D02*
X7957356Y-3810644D01*
X7886644Y-3810644D01*
X7886644Y-3881356D01*
X7957356Y-3881356D01*
X7957356Y-4135356D02*
X7957356Y-4064644D01*
X7886644Y-4064644D01*
X7886644Y-4135356D01*
X7957356Y-4135356D01*
X7957356Y-4389356D02*
X7957356Y-4318644D01*
X7886644Y-4318644D01*
X7886644Y-4389356D01*
X7957356Y-4389356D01*
X7957356Y-4643356D02*
X7957356Y-4572644D01*
X7886644Y-4572644D01*
X7886644Y-4643356D01*
X7957356Y-4643356D01*
X7957356Y-4897356D02*
X7957356Y-4826644D01*
X7886644Y-4826644D01*
X7886644Y-4897356D01*
X7957356Y-4897356D01*
X7957356Y-5151356D02*
X7957356Y-5080644D01*
X7886644Y-5080644D01*
X7886644Y-5151356D01*
X7957356Y-5151356D01*
X7957356Y-5405356D02*
X7957356Y-5334644D01*
X7886644Y-5334644D01*
X7886644Y-5405356D01*
X7957356Y-5405356D01*
X7957356Y-5659356D02*
X7957356Y-5588644D01*
X7886644Y-5588644D01*
X7886644Y-5659356D01*
X7957356Y-5659356D01*
X7957356Y-5913356D02*
X7957356Y-5842644D01*
X7886644Y-5842644D01*
X7886644Y-5913356D01*
X7957356Y-5913356D01*
X7957356Y-6167356D02*
X7957356Y-6096644D01*
X7886644Y-6096644D01*
X7886644Y-6167356D01*
X7957356Y-6167356D01*
X7957356Y-6421356D02*
X7957356Y-6350644D01*
X7886644Y-6350644D01*
X7886644Y-6421356D01*
X7957356Y-6421356D01*
X7957356Y-6675356D02*
X7957356Y-6604644D01*
X7886644Y-6604644D01*
X7886644Y-6675356D01*
X7957356Y-6675356D01*
X7957356Y-6929356D02*
X7957356Y-6858644D01*
X7886644Y-6858644D01*
X7886644Y-6929356D01*
X7957356Y-6929356D01*
X7957356Y-7437356D02*
X7957356Y-7366644D01*
X7886644Y-7366644D01*
X7886644Y-7437356D01*
X7957356Y-7437356D01*
X7957356Y-7691356D02*
X7957356Y-7620644D01*
X7886644Y-7620644D01*
X7886644Y-7691356D01*
X7957356Y-7691356D01*
X7957356Y-7945356D02*
X7957356Y-7874644D01*
X7886644Y-7874644D01*
X7886644Y-7945356D01*
X7957356Y-7945356D01*
X7957356Y-8199356D02*
X7957356Y-8128644D01*
X7886644Y-8128644D01*
X7886644Y-8199356D01*
X7957356Y-8199356D01*
X7961544Y-7183356D02*
X7961544Y-7112644D01*
X7890832Y-7112644D01*
X7890832Y-7183356D01*
X7961544Y-7183356D01*
X8065356Y-12535356D02*
X8065356Y-12464644D01*
X7994644Y-12464644D01*
X7994644Y-12535356D01*
X8065356Y-12535356D01*
X8089356Y-12035356D02*
X8089356Y-11964644D01*
X8018644Y-11964644D01*
X8018644Y-12035356D01*
X8089356Y-12035356D01*
X8319356Y-12535356D02*
X8319356Y-12464644D01*
X8248644Y-12464644D01*
X8248644Y-12535356D01*
X8319356Y-12535356D01*
X8343356Y-12035356D02*
X8343356Y-11964644D01*
X8272644Y-11964644D01*
X8272644Y-12035356D01*
X8343356Y-12035356D01*
X8573356Y-12535356D02*
X8573356Y-12464644D01*
X8502644Y-12464644D01*
X8502644Y-12535356D01*
X8573356Y-12535356D01*
X8597356Y-12035356D02*
X8597356Y-11964644D01*
X8526644Y-11964644D01*
X8526644Y-12035356D01*
X8597356Y-12035356D01*
X8827356Y-12535356D02*
X8827356Y-12464644D01*
X8756644Y-12464644D01*
X8756644Y-12535356D01*
X8827356Y-12535356D01*
X8851356Y-12035356D02*
X8851356Y-11964644D01*
X8780644Y-11964644D01*
X8780644Y-12035356D01*
X8851356Y-12035356D01*
X9081356Y-12535356D02*
X9081356Y-12464644D01*
X9010644Y-12464644D01*
X9010644Y-12535356D01*
X9081356Y-12535356D01*
X9105356Y-12035356D02*
X9105356Y-11964644D01*
X9034644Y-11964644D01*
X9034644Y-12035356D01*
X9105356Y-12035356D01*
X9335356Y-12535356D02*
X9335356Y-12464644D01*
X9264644Y-12464644D01*
X9264644Y-12535356D01*
X9335356Y-12535356D01*
X9359356Y-12035356D02*
X9359356Y-11964644D01*
X9288644Y-11964644D01*
X9288644Y-12035356D01*
X9359356Y-12035356D01*
X9589356Y-12535356D02*
X9589356Y-12464644D01*
X9518644Y-12464644D01*
X9518644Y-12535356D01*
X9589356Y-12535356D01*
X9613356Y-12035356D02*
X9613356Y-11964644D01*
X9542644Y-11964644D01*
X9542644Y-12035356D01*
X9613356Y-12035356D01*
X9735356Y-3373356D02*
X9735356Y-3302644D01*
X9664644Y-3302644D01*
X9664644Y-3373356D01*
X9735356Y-3373356D01*
X9735356Y-3627356D02*
X9735356Y-3556644D01*
X9664644Y-3556644D01*
X9664644Y-3627356D01*
X9735356Y-3627356D01*
X9735356Y-3881356D02*
X9735356Y-3810644D01*
X9664644Y-3810644D01*
X9664644Y-3881356D01*
X9735356Y-3881356D01*
X9735356Y-4135356D02*
X9735356Y-4064644D01*
X9664644Y-4064644D01*
X9664644Y-4135356D01*
X9735356Y-4135356D01*
X9735356Y-4389356D02*
X9735356Y-4318644D01*
X9664644Y-4318644D01*
X9664644Y-4389356D01*
X9735356Y-4389356D01*
X9735356Y-4643356D02*
X9735356Y-4572644D01*
X9664644Y-4572644D01*
X9664644Y-4643356D01*
X9735356Y-4643356D01*
X9735356Y-4897356D02*
X9735356Y-4826644D01*
X9664644Y-4826644D01*
X9664644Y-4897356D01*
X9735356Y-4897356D01*
X9735356Y-5151356D02*
X9735356Y-5080644D01*
X9664644Y-5080644D01*
X9664644Y-5151356D01*
X9735356Y-5151356D01*
X9735356Y-5405356D02*
X9735356Y-5334644D01*
X9664644Y-5334644D01*
X9664644Y-5405356D01*
X9735356Y-5405356D01*
X9735356Y-5659356D02*
X9735356Y-5588644D01*
X9664644Y-5588644D01*
X9664644Y-5659356D01*
X9735356Y-5659356D01*
X9735356Y-5913356D02*
X9735356Y-5842644D01*
X9664644Y-5842644D01*
X9664644Y-5913356D01*
X9735356Y-5913356D01*
X9735356Y-6167356D02*
X9735356Y-6096644D01*
X9664644Y-6096644D01*
X9664644Y-6167356D01*
X9735356Y-6167356D01*
X9735356Y-6421356D02*
X9735356Y-6350644D01*
X9664644Y-6350644D01*
X9664644Y-6421356D01*
X9735356Y-6421356D01*
X9735356Y-6675356D02*
X9735356Y-6604644D01*
X9664644Y-6604644D01*
X9664644Y-6675356D01*
X9735356Y-6675356D01*
X9735356Y-6929356D02*
X9735356Y-6858644D01*
X9664644Y-6858644D01*
X9664644Y-6929356D01*
X9735356Y-6929356D01*
X9735356Y-7183356D02*
X9735356Y-7112644D01*
X9664644Y-7112644D01*
X9664644Y-7183356D01*
X9735356Y-7183356D01*
X9735356Y-7437356D02*
X9735356Y-7366644D01*
X9664644Y-7366644D01*
X9664644Y-7437356D01*
X9735356Y-7437356D01*
X9735356Y-7691356D02*
X9735356Y-7620644D01*
X9664644Y-7620644D01*
X9664644Y-7691356D01*
X9735356Y-7691356D01*
X9735356Y-7945356D02*
X9735356Y-7874644D01*
X9664644Y-7874644D01*
X9664644Y-7945356D01*
X9735356Y-7945356D01*
X9735356Y-8199356D02*
X9735356Y-8128644D01*
X9664644Y-8128644D01*
X9664644Y-8199356D01*
X9735356Y-8199356D01*
X9843356Y-12535356D02*
X9843356Y-12464644D01*
X9772644Y-12464644D01*
X9772644Y-12535356D01*
X9843356Y-12535356D01*
X9867356Y-12035356D02*
X9867356Y-11964644D01*
X9796644Y-11964644D01*
X9796644Y-12035356D01*
X9867356Y-12035356D01*
X10097356Y-12535356D02*
X10097356Y-12464644D01*
X10026644Y-12464644D01*
X10026644Y-12535356D01*
X10097356Y-12535356D01*
X10121356Y-12035356D02*
X10121356Y-11964644D01*
X10050644Y-11964644D01*
X10050644Y-12035356D01*
X10121356Y-12035356D01*
X10351356Y-12535356D02*
X10351356Y-12464644D01*
X10280644Y-12464644D01*
X10280644Y-12535356D01*
X10351356Y-12535356D01*
X10375356Y-12035356D02*
X10375356Y-11964644D01*
X10304644Y-11964644D01*
X10304644Y-12035356D01*
X10375356Y-12035356D01*
X10605356Y-12535356D02*
X10605356Y-12464644D01*
X10534644Y-12464644D01*
X10534644Y-12535356D01*
X10605356Y-12535356D01*
X10629356Y-12035356D02*
X10629356Y-11964644D01*
X10558644Y-11964644D01*
X10558644Y-12035356D01*
X10629356Y-12035356D01*
X10859356Y-12535356D02*
X10859356Y-12464644D01*
X10788644Y-12464644D01*
X10788644Y-12535356D01*
X10859356Y-12535356D01*
X10883356Y-12035356D02*
X10883356Y-11964644D01*
X10812644Y-11964644D01*
X10812644Y-12035356D01*
X10883356Y-12035356D01*
X11049356Y-8935356D02*
X11049356Y-8864644D01*
X10978644Y-8864644D01*
X10978644Y-8935356D01*
X11049356Y-8935356D01*
X11049356Y-9189356D02*
X11049356Y-9118644D01*
X10978644Y-9118644D01*
X10978644Y-9189356D01*
X11049356Y-9189356D01*
X11113356Y-12535356D02*
X11113356Y-12464644D01*
X11042644Y-12464644D01*
X11042644Y-12535356D01*
X11113356Y-12535356D01*
X11137356Y-12035356D02*
X11137356Y-11964644D01*
X11066644Y-11964644D01*
X11066644Y-12035356D01*
X11137356Y-12035356D01*
X11303356Y-8935356D02*
X11303356Y-8864644D01*
X11232644Y-8864644D01*
X11232644Y-8935356D01*
X11303356Y-8935356D01*
X11303356Y-9189356D02*
X11303356Y-9118644D01*
X11232644Y-9118644D01*
X11232644Y-9189356D01*
X11303356Y-9189356D01*
X11367356Y-12535356D02*
X11367356Y-12464644D01*
X11296644Y-12464644D01*
X11296644Y-12535356D01*
X11367356Y-12535356D01*
X11391356Y-12035356D02*
X11391356Y-11964644D01*
X11320644Y-11964644D01*
X11320644Y-12035356D01*
X11391356Y-12035356D01*
X11557356Y-8935356D02*
X11557356Y-8864644D01*
X11486644Y-8864644D01*
X11486644Y-8935356D01*
X11557356Y-8935356D01*
X11557356Y-9189356D02*
X11557356Y-9118644D01*
X11486644Y-9118644D01*
X11486644Y-9189356D01*
X11557356Y-9189356D01*
X11621356Y-12535356D02*
X11621356Y-12464644D01*
X11550644Y-12464644D01*
X11550644Y-12535356D01*
X11621356Y-12535356D01*
X11645356Y-12035356D02*
X11645356Y-11964644D01*
X11574644Y-11964644D01*
X11574644Y-12035356D01*
X11645356Y-12035356D01*
X11811356Y-8935356D02*
X11811356Y-8864644D01*
X11740644Y-8864644D01*
X11740644Y-8935356D01*
X11811356Y-8935356D01*
X11811356Y-9189356D02*
X11811356Y-9118644D01*
X11740644Y-9118644D01*
X11740644Y-9189356D01*
X11811356Y-9189356D01*
X12982856Y-3535356D02*
X12982856Y-3464644D01*
X12912144Y-3464644D01*
X12912144Y-3535356D01*
X12982856Y-3535356D01*
X13236856Y-3535356D02*
X13236856Y-3464644D01*
X13166144Y-3464644D01*
X13166144Y-3535356D01*
X13236856Y-3535356D01*
X13490856Y-3535356D02*
X13490856Y-3464644D01*
X13420144Y-3464644D01*
X13420144Y-3535356D01*
X13490856Y-3535356D01*
D13*
X3292000Y-2465000D02*
X3357000Y-2400000D01*
X3292000Y-2335000D01*
X3227000Y-2400000D01*
X3292000Y-2465000D01*
X3592000Y-11165000D02*
X3657000Y-11100000D01*
X3592000Y-11035000D01*
X3527000Y-11100000D01*
X3592000Y-11165000D01*
X3800000Y-2465000D02*
X3865000Y-2400000D01*
X3800000Y-2335000D01*
X3735000Y-2400000D01*
X3800000Y-2465000D01*
X4100000Y-11165000D02*
X4165000Y-11100000D01*
X4100000Y-11035000D01*
X4035000Y-11100000D01*
X4100000Y-11165000D01*
X4992000Y-11165000D02*
X5057000Y-11100000D01*
X4992000Y-11035000D01*
X4927000Y-11100000D01*
X4992000Y-11165000D01*
X5500000Y-11165000D02*
X5565000Y-11100000D01*
X5500000Y-11035000D01*
X5435000Y-11100000D01*
X5500000Y-11165000D01*
X13000000Y-2365000D02*
X13065000Y-2300000D01*
X13000000Y-2235000D01*
X12935000Y-2300000D01*
X13000000Y-2365000D01*
X13508000Y-2365000D02*
X13573000Y-2300000D01*
X13508000Y-2235000D01*
X13443000Y-2300000D01*
X13508000Y-2365000D01*
X14046500Y-11165000D02*
X14111500Y-11100000D01*
X14046500Y-11035000D01*
X13981500Y-11100000D01*
X14046500Y-11165000D01*
X14300000Y-2365000D02*
X14365000Y-2300000D01*
X14300000Y-2235000D01*
X14235000Y-2300000D01*
X14300000Y-2365000D01*
X14554500Y-11165000D02*
X14619500Y-11100000D01*
X14554500Y-11035000D01*
X14489500Y-11100000D01*
X14554500Y-11165000D01*
X14600000Y-4465000D02*
X14665000Y-4400000D01*
X14600000Y-4335000D01*
X14535000Y-4400000D01*
X14600000Y-4465000D01*
X14808000Y-2365000D02*
X14873000Y-2300000D01*
X14808000Y-2235000D01*
X14743000Y-2300000D01*
X14808000Y-2365000D01*
X15108000Y-4465000D02*
X15173000Y-4400000D01*
X15108000Y-4335000D01*
X15043000Y-4400000D01*
X15108000Y-4465000D01*
X15392000Y-11165000D02*
X15457000Y-11100000D01*
X15392000Y-11035000D01*
X15327000Y-11100000D01*
X15392000Y-11165000D01*
X15600000Y-2365000D02*
X15665000Y-2300000D01*
X15600000Y-2235000D01*
X15535000Y-2300000D01*
X15600000Y-2365000D01*
X15616000Y-4465000D02*
X15681000Y-4400000D01*
X15616000Y-4335000D01*
X15551000Y-4400000D01*
X15616000Y-4465000D01*
X15900000Y-11165000D02*
X15965000Y-11100000D01*
X15900000Y-11035000D01*
X15835000Y-11100000D01*
X15900000Y-11165000D01*
X16108000Y-2365000D02*
X16173000Y-2300000D01*
X16108000Y-2235000D01*
X16043000Y-2300000D01*
X16108000Y-2365000D01*
X17100000Y-3365000D02*
X17165000Y-3300000D01*
X17100000Y-3235000D01*
X17035000Y-3300000D01*
X17100000Y-3365000D01*
X17100000Y-3873000D02*
X17165000Y-3808000D01*
X17100000Y-3743000D01*
X17035000Y-3808000D01*
X17100000Y-3873000D01*
X17100000Y-4665000D02*
X17165000Y-4600000D01*
X17100000Y-4535000D01*
X17035000Y-4600000D01*
X17100000Y-4665000D01*
X17100000Y-5173000D02*
X17165000Y-5108000D01*
X17100000Y-5043000D01*
X17035000Y-5108000D01*
X17100000Y-5173000D01*
X17100000Y-5681000D02*
X17165000Y-5616000D01*
X17100000Y-5551000D01*
X17035000Y-5616000D01*
X17100000Y-5681000D01*
D14*
X6910000Y-9234000D02*
X7042000Y-9366000D01*
X7042000Y-9234000D02*
X6910000Y-9366000D01*
X7042000Y-9300000D02*
G75*
G02*
X6910000Y-9300000I-66000J0D01*
G01*
X6910000Y-9300000D02*
G75*
G02*
X7042000Y-9300000I66000J0D01*
G01*
X6910000Y-9488000D02*
X7042000Y-9620000D01*
X7042000Y-9488000D02*
X6910000Y-9620000D01*
X7042000Y-9554000D02*
G75*
G02*
X6910000Y-9554000I-66000J0D01*
G01*
X6910000Y-9554000D02*
G75*
G02*
X7042000Y-9554000I66000J0D01*
G01*
X6910000Y-9742000D02*
X7042000Y-9874000D01*
X7042000Y-9742000D02*
X6910000Y-9874000D01*
X7042000Y-9808000D02*
G75*
G02*
X6910000Y-9808000I-66000J0D01*
G01*
X6910000Y-9808000D02*
G75*
G02*
X7042000Y-9808000I66000J0D01*
G01*
X6910000Y-9996000D02*
X7042000Y-10128000D01*
X7042000Y-9996000D02*
X6910000Y-10128000D01*
X7042000Y-10062000D02*
G75*
G02*
X6910000Y-10062000I-66000J0D01*
G01*
X6910000Y-10062000D02*
G75*
G02*
X7042000Y-10062000I66000J0D01*
G01*
X6910000Y-10250000D02*
X7042000Y-10382000D01*
X7042000Y-10250000D02*
X6910000Y-10382000D01*
X7042000Y-10316000D02*
G75*
G02*
X6910000Y-10316000I-66000J0D01*
G01*
X6910000Y-10316000D02*
G75*
G02*
X7042000Y-10316000I66000J0D01*
G01*
X6910000Y-10504000D02*
X7042000Y-10636000D01*
X7042000Y-10504000D02*
X6910000Y-10636000D01*
X7042000Y-10570000D02*
G75*
G02*
X6910000Y-10570000I-66000J0D01*
G01*
X6910000Y-10570000D02*
G75*
G02*
X7042000Y-10570000I66000J0D01*
G01*
X6910000Y-10758000D02*
X7042000Y-10890000D01*
X7042000Y-10758000D02*
X6910000Y-10890000D01*
X7042000Y-10824000D02*
G75*
G02*
X6910000Y-10824000I-66000J0D01*
G01*
X6910000Y-10824000D02*
G75*
G02*
X7042000Y-10824000I66000J0D01*
G01*
X6910000Y-11012000D02*
X7042000Y-11144000D01*
X7042000Y-11012000D02*
X6910000Y-11144000D01*
X7042000Y-11078000D02*
G75*
G02*
X6910000Y-11078000I-66000J0D01*
G01*
X6910000Y-11078000D02*
G75*
G02*
X7042000Y-11078000I66000J0D01*
G01*
X8434000Y-9234000D02*
X8566000Y-9366000D01*
X8566000Y-9234000D02*
X8434000Y-9366000D01*
X8566000Y-9300000D02*
G75*
G02*
X8434000Y-9300000I-66000J0D01*
G01*
X8434000Y-9300000D02*
G75*
G02*
X8566000Y-9300000I66000J0D01*
G01*
X8434000Y-9488000D02*
X8566000Y-9620000D01*
X8566000Y-9488000D02*
X8434000Y-9620000D01*
X8566000Y-9554000D02*
G75*
G02*
X8434000Y-9554000I-66000J0D01*
G01*
X8434000Y-9554000D02*
G75*
G02*
X8566000Y-9554000I66000J0D01*
G01*
X8434000Y-9742000D02*
X8566000Y-9874000D01*
X8566000Y-9742000D02*
X8434000Y-9874000D01*
X8566000Y-9808000D02*
G75*
G02*
X8434000Y-9808000I-66000J0D01*
G01*
X8434000Y-9808000D02*
G75*
G02*
X8566000Y-9808000I66000J0D01*
G01*
X8434000Y-9996000D02*
X8566000Y-10128000D01*
X8566000Y-9996000D02*
X8434000Y-10128000D01*
X8566000Y-10062000D02*
G75*
G02*
X8434000Y-10062000I-66000J0D01*
G01*
X8434000Y-10062000D02*
G75*
G02*
X8566000Y-10062000I66000J0D01*
G01*
X8434000Y-10250000D02*
X8566000Y-10382000D01*
X8566000Y-10250000D02*
X8434000Y-10382000D01*
X8566000Y-10316000D02*
G75*
G02*
X8434000Y-10316000I-66000J0D01*
G01*
X8434000Y-10316000D02*
G75*
G02*
X8566000Y-10316000I66000J0D01*
G01*
X8434000Y-10504000D02*
X8566000Y-10636000D01*
X8566000Y-10504000D02*
X8434000Y-10636000D01*
X8566000Y-10570000D02*
G75*
G02*
X8434000Y-10570000I-66000J0D01*
G01*
X8434000Y-10570000D02*
G75*
G02*
X8566000Y-10570000I66000J0D01*
G01*
X8434000Y-10758000D02*
X8566000Y-10890000D01*
X8566000Y-10758000D02*
X8434000Y-10890000D01*
X8566000Y-10824000D02*
G75*
G02*
X8434000Y-10824000I-66000J0D01*
G01*
X8434000Y-10824000D02*
G75*
G02*
X8566000Y-10824000I66000J0D01*
G01*
X8434000Y-11012000D02*
X8566000Y-11144000D01*
X8566000Y-11012000D02*
X8434000Y-11144000D01*
X8566000Y-11078000D02*
G75*
G02*
X8434000Y-11078000I-66000J0D01*
G01*
X8434000Y-11078000D02*
G75*
G02*
X8566000Y-11078000I66000J0D01*
G01*
D15*
X2250000Y-1850000D02*
X2550000Y-2150000D01*
X2550000Y-1850000D02*
X2250000Y-2150000D01*
X2400000Y-1850000D02*
X2400000Y-2150000D01*
X2250000Y-2000000D02*
X2550000Y-2000000D01*
X2250000Y-12350000D02*
X2550000Y-12650000D01*
X2550000Y-12350000D02*
X2250000Y-12650000D01*
X2400000Y-12350000D02*
X2400000Y-12650000D01*
X2250000Y-12500000D02*
X2550000Y-12500000D01*
X3350000Y-5850000D02*
X3650000Y-6150000D01*
X3650000Y-5850000D02*
X3350000Y-6150000D01*
X3500000Y-5850000D02*
X3500000Y-6150000D01*
X3350000Y-6000000D02*
X3650000Y-6000000D01*
X3350000Y-8500000D02*
X3650000Y-8800000D01*
X3650000Y-8500000D02*
X3350000Y-8800000D01*
X3500000Y-8500000D02*
X3500000Y-8800000D01*
X3350000Y-8650000D02*
X3650000Y-8650000D01*
X5450000Y-5850000D02*
X5750000Y-6150000D01*
X5750000Y-5850000D02*
X5450000Y-6150000D01*
X5600000Y-5850000D02*
X5600000Y-6150000D01*
X5450000Y-6000000D02*
X5750000Y-6000000D01*
X5450000Y-8500000D02*
X5750000Y-8800000D01*
X5750000Y-8500000D02*
X5450000Y-8800000D01*
X5600000Y-8500000D02*
X5600000Y-8800000D01*
X5450000Y-8650000D02*
X5750000Y-8650000D01*
X13500000Y-5850000D02*
X13800000Y-6150000D01*
X13800000Y-5850000D02*
X13500000Y-6150000D01*
X13650000Y-5850000D02*
X13650000Y-6150000D01*
X13500000Y-6000000D02*
X13800000Y-6000000D01*
X13500000Y-8500000D02*
X13800000Y-8800000D01*
X13800000Y-8500000D02*
X13500000Y-8800000D01*
X13650000Y-8500000D02*
X13650000Y-8800000D01*
X13500000Y-8650000D02*
X13800000Y-8650000D01*
X15600000Y-5850000D02*
X15900000Y-6150000D01*
X15900000Y-5850000D02*
X15600000Y-6150000D01*
X15750000Y-5850000D02*
X15750000Y-6150000D01*
X15600000Y-6000000D02*
X15900000Y-6000000D01*
X15600000Y-8500000D02*
X15900000Y-8800000D01*
X15900000Y-8500000D02*
X15600000Y-8800000D01*
X15750000Y-8500000D02*
X15750000Y-8800000D01*
X15600000Y-8650000D02*
X15900000Y-8650000D01*
X17000000Y-1850000D02*
X17300000Y-2150000D01*
X17300000Y-1850000D02*
X17000000Y-2150000D01*
X17150000Y-1850000D02*
X17150000Y-2150000D01*
X17000000Y-2000000D02*
X17300000Y-2000000D01*
X17000000Y-12350000D02*
X17300000Y-12650000D01*
X17300000Y-12350000D02*
X17000000Y-12650000D01*
X17150000Y-12350000D02*
X17150000Y-12650000D01*
X17000000Y-12500000D02*
X17300000Y-12500000D01*
D11*
X2258277Y-13313984D02*
X2258277Y-13113984D01*
X2258277Y-13113984D02*
X2305896Y-13113984D01*
X2305896Y-13113984D02*
X2334467Y-13123508D01*
X2334467Y-13123508D02*
X2353515Y-13142555D01*
X2353515Y-13142555D02*
X2363039Y-13161603D01*
X2363039Y-13161603D02*
X2372563Y-13199698D01*
X2372563Y-13199698D02*
X2372563Y-13228269D01*
X2372563Y-13228269D02*
X2363039Y-13266365D01*
X2363039Y-13266365D02*
X2353515Y-13285412D01*
X2353515Y-13285412D02*
X2334467Y-13304460D01*
X2334467Y-13304460D02*
X2305896Y-13313984D01*
X2305896Y-13313984D02*
X2258277Y-13313984D01*
X2458277Y-13313984D02*
X2458277Y-13180650D01*
X2458277Y-13218746D02*
X2467801Y-13199698D01*
X2467801Y-13199698D02*
X2477324Y-13190174D01*
X2477324Y-13190174D02*
X2496372Y-13180650D01*
X2496372Y-13180650D02*
X2515420Y-13180650D01*
X2582086Y-13313984D02*
X2582086Y-13180650D01*
X2582086Y-13113984D02*
X2572563Y-13123508D01*
X2572563Y-13123508D02*
X2582086Y-13133031D01*
X2582086Y-13133031D02*
X2591610Y-13123508D01*
X2591610Y-13123508D02*
X2582086Y-13113984D01*
X2582086Y-13113984D02*
X2582086Y-13133031D01*
X2705896Y-13313984D02*
X2686848Y-13304460D01*
X2686848Y-13304460D02*
X2677324Y-13285412D01*
X2677324Y-13285412D02*
X2677324Y-13113984D01*
X2810658Y-13313984D02*
X2791610Y-13304460D01*
X2791610Y-13304460D02*
X2782086Y-13285412D01*
X2782086Y-13285412D02*
X2782086Y-13113984D01*
X3039229Y-13313984D02*
X3039229Y-13113984D01*
X3039229Y-13113984D02*
X3105896Y-13256841D01*
X3105896Y-13256841D02*
X3172562Y-13113984D01*
X3172562Y-13113984D02*
X3172562Y-13313984D01*
X3353515Y-13313984D02*
X3353515Y-13209222D01*
X3353515Y-13209222D02*
X3343991Y-13190174D01*
X3343991Y-13190174D02*
X3324943Y-13180650D01*
X3324943Y-13180650D02*
X3286848Y-13180650D01*
X3286848Y-13180650D02*
X3267801Y-13190174D01*
X3353515Y-13304460D02*
X3334467Y-13313984D01*
X3334467Y-13313984D02*
X3286848Y-13313984D01*
X3286848Y-13313984D02*
X3267801Y-13304460D01*
X3267801Y-13304460D02*
X3258277Y-13285412D01*
X3258277Y-13285412D02*
X3258277Y-13266365D01*
X3258277Y-13266365D02*
X3267801Y-13247317D01*
X3267801Y-13247317D02*
X3286848Y-13237793D01*
X3286848Y-13237793D02*
X3334467Y-13237793D01*
X3334467Y-13237793D02*
X3353515Y-13228269D01*
X3448753Y-13180650D02*
X3448753Y-13380650D01*
X3448753Y-13190174D02*
X3467801Y-13180650D01*
X3467801Y-13180650D02*
X3505896Y-13180650D01*
X3505896Y-13180650D02*
X3524943Y-13190174D01*
X3524943Y-13190174D02*
X3534467Y-13199698D01*
X3534467Y-13199698D02*
X3543991Y-13218746D01*
X3543991Y-13218746D02*
X3543991Y-13275888D01*
X3543991Y-13275888D02*
X3534467Y-13294936D01*
X3534467Y-13294936D02*
X3524943Y-13304460D01*
X3524943Y-13304460D02*
X3505896Y-13313984D01*
X3505896Y-13313984D02*
X3467801Y-13313984D01*
X3467801Y-13313984D02*
X3448753Y-13304460D01*
X3629705Y-13294936D02*
X3639229Y-13304460D01*
X3639229Y-13304460D02*
X3629705Y-13313984D01*
X3629705Y-13313984D02*
X3620182Y-13304460D01*
X3620182Y-13304460D02*
X3629705Y-13294936D01*
X3629705Y-13294936D02*
X3629705Y-13313984D01*
X3629705Y-13190174D02*
X3639229Y-13199698D01*
X3639229Y-13199698D02*
X3629705Y-13209222D01*
X3629705Y-13209222D02*
X3620182Y-13199698D01*
X3620182Y-13199698D02*
X3629705Y-13190174D01*
X3629705Y-13190174D02*
X3629705Y-13209222D01*
D12*
X1967500Y-13627500D02*
X1997500Y-13657500D01*
X1997500Y-13627500D02*
X1967500Y-13657500D01*
D11*
X2296372Y-13533984D02*
X2315420Y-13533984D01*
X2315420Y-13533984D02*
X2334467Y-13543508D01*
X2334467Y-13543508D02*
X2343991Y-13553031D01*
X2343991Y-13553031D02*
X2353515Y-13572079D01*
X2353515Y-13572079D02*
X2363039Y-13610174D01*
X2363039Y-13610174D02*
X2363039Y-13657793D01*
X2363039Y-13657793D02*
X2353515Y-13695888D01*
X2353515Y-13695888D02*
X2343991Y-13714936D01*
X2343991Y-13714936D02*
X2334467Y-13724460D01*
X2334467Y-13724460D02*
X2315420Y-13733984D01*
X2315420Y-13733984D02*
X2296372Y-13733984D01*
X2296372Y-13733984D02*
X2277324Y-13724460D01*
X2277324Y-13724460D02*
X2267801Y-13714936D01*
X2267801Y-13714936D02*
X2258277Y-13695888D01*
X2258277Y-13695888D02*
X2248753Y-13657793D01*
X2248753Y-13657793D02*
X2248753Y-13610174D01*
X2248753Y-13610174D02*
X2258277Y-13572079D01*
X2258277Y-13572079D02*
X2267801Y-13553031D01*
X2267801Y-13553031D02*
X2277324Y-13543508D01*
X2277324Y-13543508D02*
X2296372Y-13533984D01*
X2448753Y-13714936D02*
X2458277Y-13724460D01*
X2458277Y-13724460D02*
X2448753Y-13733984D01*
X2448753Y-13733984D02*
X2439229Y-13724460D01*
X2439229Y-13724460D02*
X2448753Y-13714936D01*
X2448753Y-13714936D02*
X2448753Y-13733984D01*
X2524944Y-13533984D02*
X2648753Y-13533984D01*
X2648753Y-13533984D02*
X2582086Y-13610174D01*
X2582086Y-13610174D02*
X2610658Y-13610174D01*
X2610658Y-13610174D02*
X2629705Y-13619698D01*
X2629705Y-13619698D02*
X2639229Y-13629222D01*
X2639229Y-13629222D02*
X2648753Y-13648269D01*
X2648753Y-13648269D02*
X2648753Y-13695888D01*
X2648753Y-13695888D02*
X2639229Y-13714936D01*
X2639229Y-13714936D02*
X2629705Y-13724460D01*
X2629705Y-13724460D02*
X2610658Y-13733984D01*
X2610658Y-13733984D02*
X2553515Y-13733984D01*
X2553515Y-13733984D02*
X2534467Y-13724460D01*
X2534467Y-13724460D02*
X2524944Y-13714936D01*
X2772563Y-13533984D02*
X2791610Y-13533984D01*
X2791610Y-13533984D02*
X2810658Y-13543508D01*
X2810658Y-13543508D02*
X2820182Y-13553031D01*
X2820182Y-13553031D02*
X2829705Y-13572079D01*
X2829705Y-13572079D02*
X2839229Y-13610174D01*
X2839229Y-13610174D02*
X2839229Y-13657793D01*
X2839229Y-13657793D02*
X2829705Y-13695888D01*
X2829705Y-13695888D02*
X2820182Y-13714936D01*
X2820182Y-13714936D02*
X2810658Y-13724460D01*
X2810658Y-13724460D02*
X2791610Y-13733984D01*
X2791610Y-13733984D02*
X2772563Y-13733984D01*
X2772563Y-13733984D02*
X2753515Y-13724460D01*
X2753515Y-13724460D02*
X2743991Y-13714936D01*
X2743991Y-13714936D02*
X2734467Y-13695888D01*
X2734467Y-13695888D02*
X2724944Y-13657793D01*
X2724944Y-13657793D02*
X2724944Y-13610174D01*
X2724944Y-13610174D02*
X2734467Y-13572079D01*
X2734467Y-13572079D02*
X2743991Y-13553031D01*
X2743991Y-13553031D02*
X2753515Y-13543508D01*
X2753515Y-13543508D02*
X2772563Y-13533984D01*
X2963039Y-13533984D02*
X2982086Y-13533984D01*
X2982086Y-13533984D02*
X3001134Y-13543508D01*
X3001134Y-13543508D02*
X3010658Y-13553031D01*
X3010658Y-13553031D02*
X3020182Y-13572079D01*
X3020182Y-13572079D02*
X3029705Y-13610174D01*
X3029705Y-13610174D02*
X3029705Y-13657793D01*
X3029705Y-13657793D02*
X3020182Y-13695888D01*
X3020182Y-13695888D02*
X3010658Y-13714936D01*
X3010658Y-13714936D02*
X3001134Y-13724460D01*
X3001134Y-13724460D02*
X2982086Y-13733984D01*
X2982086Y-13733984D02*
X2963039Y-13733984D01*
X2963039Y-13733984D02*
X2943991Y-13724460D01*
X2943991Y-13724460D02*
X2934467Y-13714936D01*
X2934467Y-13714936D02*
X2924943Y-13695888D01*
X2924943Y-13695888D02*
X2915420Y-13657793D01*
X2915420Y-13657793D02*
X2915420Y-13610174D01*
X2915420Y-13610174D02*
X2924943Y-13572079D01*
X2924943Y-13572079D02*
X2934467Y-13553031D01*
X2934467Y-13553031D02*
X2943991Y-13543508D01*
X2943991Y-13543508D02*
X2963039Y-13533984D01*
X3115420Y-13733984D02*
X3115420Y-13600650D01*
X3115420Y-13619698D02*
X3124943Y-13610174D01*
X3124943Y-13610174D02*
X3143991Y-13600650D01*
X3143991Y-13600650D02*
X3172563Y-13600650D01*
X3172563Y-13600650D02*
X3191610Y-13610174D01*
X3191610Y-13610174D02*
X3201134Y-13629222D01*
X3201134Y-13629222D02*
X3201134Y-13733984D01*
X3201134Y-13629222D02*
X3210658Y-13610174D01*
X3210658Y-13610174D02*
X3229705Y-13600650D01*
X3229705Y-13600650D02*
X3258277Y-13600650D01*
X3258277Y-13600650D02*
X3277324Y-13610174D01*
X3277324Y-13610174D02*
X3286848Y-13629222D01*
X3286848Y-13629222D02*
X3286848Y-13733984D01*
X3382086Y-13733984D02*
X3382086Y-13600650D01*
X3382086Y-13619698D02*
X3391610Y-13610174D01*
X3391610Y-13610174D02*
X3410658Y-13600650D01*
X3410658Y-13600650D02*
X3439229Y-13600650D01*
X3439229Y-13600650D02*
X3458277Y-13610174D01*
X3458277Y-13610174D02*
X3467801Y-13629222D01*
X3467801Y-13629222D02*
X3467801Y-13733984D01*
X3467801Y-13629222D02*
X3477324Y-13610174D01*
X3477324Y-13610174D02*
X3496372Y-13600650D01*
X3496372Y-13600650D02*
X3524943Y-13600650D01*
X3524943Y-13600650D02*
X3543991Y-13610174D01*
X3543991Y-13610174D02*
X3553515Y-13629222D01*
X3553515Y-13629222D02*
X3553515Y-13733984D01*
X3943991Y-13524460D02*
X3772563Y-13781603D01*
X4201134Y-13533984D02*
X4220182Y-13533984D01*
X4220182Y-13533984D02*
X4239229Y-13543508D01*
X4239229Y-13543508D02*
X4248753Y-13553031D01*
X4248753Y-13553031D02*
X4258277Y-13572079D01*
X4258277Y-13572079D02*
X4267801Y-13610174D01*
X4267801Y-13610174D02*
X4267801Y-13657793D01*
X4267801Y-13657793D02*
X4258277Y-13695888D01*
X4258277Y-13695888D02*
X4248753Y-13714936D01*
X4248753Y-13714936D02*
X4239229Y-13724460D01*
X4239229Y-13724460D02*
X4220182Y-13733984D01*
X4220182Y-13733984D02*
X4201134Y-13733984D01*
X4201134Y-13733984D02*
X4182086Y-13724460D01*
X4182086Y-13724460D02*
X4172563Y-13714936D01*
X4172563Y-13714936D02*
X4163039Y-13695888D01*
X4163039Y-13695888D02*
X4153515Y-13657793D01*
X4153515Y-13657793D02*
X4153515Y-13610174D01*
X4153515Y-13610174D02*
X4163039Y-13572079D01*
X4163039Y-13572079D02*
X4172563Y-13553031D01*
X4172563Y-13553031D02*
X4182086Y-13543508D01*
X4182086Y-13543508D02*
X4201134Y-13533984D01*
X4353515Y-13714936D02*
X4363039Y-13724460D01*
X4363039Y-13724460D02*
X4353515Y-13733984D01*
X4353515Y-13733984D02*
X4343991Y-13724460D01*
X4343991Y-13724460D02*
X4353515Y-13714936D01*
X4353515Y-13714936D02*
X4353515Y-13733984D01*
X4486848Y-13533984D02*
X4505896Y-13533984D01*
X4505896Y-13533984D02*
X4524944Y-13543508D01*
X4524944Y-13543508D02*
X4534468Y-13553031D01*
X4534468Y-13553031D02*
X4543991Y-13572079D01*
X4543991Y-13572079D02*
X4553515Y-13610174D01*
X4553515Y-13610174D02*
X4553515Y-13657793D01*
X4553515Y-13657793D02*
X4543991Y-13695888D01*
X4543991Y-13695888D02*
X4534468Y-13714936D01*
X4534468Y-13714936D02*
X4524944Y-13724460D01*
X4524944Y-13724460D02*
X4505896Y-13733984D01*
X4505896Y-13733984D02*
X4486848Y-13733984D01*
X4486848Y-13733984D02*
X4467801Y-13724460D01*
X4467801Y-13724460D02*
X4458277Y-13714936D01*
X4458277Y-13714936D02*
X4448753Y-13695888D01*
X4448753Y-13695888D02*
X4439229Y-13657793D01*
X4439229Y-13657793D02*
X4439229Y-13610174D01*
X4439229Y-13610174D02*
X4448753Y-13572079D01*
X4448753Y-13572079D02*
X4458277Y-13553031D01*
X4458277Y-13553031D02*
X4467801Y-13543508D01*
X4467801Y-13543508D02*
X4486848Y-13533984D01*
X4743991Y-13733984D02*
X4629706Y-13733984D01*
X4686848Y-13733984D02*
X4686848Y-13533984D01*
X4686848Y-13533984D02*
X4667801Y-13562555D01*
X4667801Y-13562555D02*
X4648753Y-13581603D01*
X4648753Y-13581603D02*
X4629706Y-13591127D01*
X4934468Y-13733984D02*
X4820182Y-13733984D01*
X4877325Y-13733984D02*
X4877325Y-13533984D01*
X4877325Y-13533984D02*
X4858277Y-13562555D01*
X4858277Y-13562555D02*
X4839229Y-13581603D01*
X4839229Y-13581603D02*
X4820182Y-13591127D01*
X5048753Y-13619698D02*
X5029706Y-13610174D01*
X5029706Y-13610174D02*
X5020182Y-13600650D01*
X5020182Y-13600650D02*
X5010658Y-13581603D01*
X5010658Y-13581603D02*
X5010658Y-13572079D01*
X5010658Y-13572079D02*
X5020182Y-13553031D01*
X5020182Y-13553031D02*
X5029706Y-13543508D01*
X5029706Y-13543508D02*
X5048753Y-13533984D01*
X5048753Y-13533984D02*
X5086849Y-13533984D01*
X5086849Y-13533984D02*
X5105896Y-13543508D01*
X5105896Y-13543508D02*
X5115420Y-13553031D01*
X5115420Y-13553031D02*
X5124944Y-13572079D01*
X5124944Y-13572079D02*
X5124944Y-13581603D01*
X5124944Y-13581603D02*
X5115420Y-13600650D01*
X5115420Y-13600650D02*
X5105896Y-13610174D01*
X5105896Y-13610174D02*
X5086849Y-13619698D01*
X5086849Y-13619698D02*
X5048753Y-13619698D01*
X5048753Y-13619698D02*
X5029706Y-13629222D01*
X5029706Y-13629222D02*
X5020182Y-13638746D01*
X5020182Y-13638746D02*
X5010658Y-13657793D01*
X5010658Y-13657793D02*
X5010658Y-13695888D01*
X5010658Y-13695888D02*
X5020182Y-13714936D01*
X5020182Y-13714936D02*
X5029706Y-13724460D01*
X5029706Y-13724460D02*
X5048753Y-13733984D01*
X5048753Y-13733984D02*
X5086849Y-13733984D01*
X5086849Y-13733984D02*
X5105896Y-13724460D01*
X5105896Y-13724460D02*
X5115420Y-13714936D01*
X5115420Y-13714936D02*
X5124944Y-13695888D01*
X5124944Y-13695888D02*
X5124944Y-13657793D01*
X5124944Y-13657793D02*
X5115420Y-13638746D01*
X5115420Y-13638746D02*
X5105896Y-13629222D01*
X5105896Y-13629222D02*
X5086849Y-13619698D01*
X5201134Y-13533984D02*
X5201134Y-13572079D01*
X5277325Y-13533984D02*
X5277325Y-13572079D01*
X5572563Y-13810174D02*
X5563039Y-13800650D01*
X5563039Y-13800650D02*
X5543991Y-13772079D01*
X5543991Y-13772079D02*
X5534468Y-13753031D01*
X5534468Y-13753031D02*
X5524944Y-13724460D01*
X5524944Y-13724460D02*
X5515420Y-13676841D01*
X5515420Y-13676841D02*
X5515420Y-13638746D01*
X5515420Y-13638746D02*
X5524944Y-13591127D01*
X5524944Y-13591127D02*
X5534468Y-13562555D01*
X5534468Y-13562555D02*
X5543991Y-13543508D01*
X5543991Y-13543508D02*
X5563039Y-13514936D01*
X5563039Y-13514936D02*
X5572563Y-13505412D01*
X5639229Y-13553031D02*
X5648753Y-13543508D01*
X5648753Y-13543508D02*
X5667801Y-13533984D01*
X5667801Y-13533984D02*
X5715420Y-13533984D01*
X5715420Y-13533984D02*
X5734468Y-13543508D01*
X5734468Y-13543508D02*
X5743991Y-13553031D01*
X5743991Y-13553031D02*
X5753515Y-13572079D01*
X5753515Y-13572079D02*
X5753515Y-13591127D01*
X5753515Y-13591127D02*
X5743991Y-13619698D01*
X5743991Y-13619698D02*
X5629706Y-13733984D01*
X5629706Y-13733984D02*
X5753515Y-13733984D01*
X5867801Y-13619698D02*
X5848753Y-13610174D01*
X5848753Y-13610174D02*
X5839229Y-13600650D01*
X5839229Y-13600650D02*
X5829706Y-13581603D01*
X5829706Y-13581603D02*
X5829706Y-13572079D01*
X5829706Y-13572079D02*
X5839229Y-13553031D01*
X5839229Y-13553031D02*
X5848753Y-13543508D01*
X5848753Y-13543508D02*
X5867801Y-13533984D01*
X5867801Y-13533984D02*
X5905896Y-13533984D01*
X5905896Y-13533984D02*
X5924944Y-13543508D01*
X5924944Y-13543508D02*
X5934468Y-13553031D01*
X5934468Y-13553031D02*
X5943991Y-13572079D01*
X5943991Y-13572079D02*
X5943991Y-13581603D01*
X5943991Y-13581603D02*
X5934468Y-13600650D01*
X5934468Y-13600650D02*
X5924944Y-13610174D01*
X5924944Y-13610174D02*
X5905896Y-13619698D01*
X5905896Y-13619698D02*
X5867801Y-13619698D01*
X5867801Y-13619698D02*
X5848753Y-13629222D01*
X5848753Y-13629222D02*
X5839229Y-13638746D01*
X5839229Y-13638746D02*
X5829706Y-13657793D01*
X5829706Y-13657793D02*
X5829706Y-13695888D01*
X5829706Y-13695888D02*
X5839229Y-13714936D01*
X5839229Y-13714936D02*
X5848753Y-13724460D01*
X5848753Y-13724460D02*
X5867801Y-13733984D01*
X5867801Y-13733984D02*
X5905896Y-13733984D01*
X5905896Y-13733984D02*
X5924944Y-13724460D01*
X5924944Y-13724460D02*
X5934468Y-13714936D01*
X5934468Y-13714936D02*
X5943991Y-13695888D01*
X5943991Y-13695888D02*
X5943991Y-13657793D01*
X5943991Y-13657793D02*
X5934468Y-13638746D01*
X5934468Y-13638746D02*
X5924944Y-13629222D01*
X5924944Y-13629222D02*
X5905896Y-13619698D01*
X6182087Y-13733984D02*
X6182087Y-13533984D01*
X6267801Y-13733984D02*
X6267801Y-13629222D01*
X6267801Y-13629222D02*
X6258277Y-13610174D01*
X6258277Y-13610174D02*
X6239230Y-13600650D01*
X6239230Y-13600650D02*
X6210658Y-13600650D01*
X6210658Y-13600650D02*
X6191610Y-13610174D01*
X6191610Y-13610174D02*
X6182087Y-13619698D01*
X6391610Y-13733984D02*
X6372563Y-13724460D01*
X6372563Y-13724460D02*
X6363039Y-13714936D01*
X6363039Y-13714936D02*
X6353515Y-13695888D01*
X6353515Y-13695888D02*
X6353515Y-13638746D01*
X6353515Y-13638746D02*
X6363039Y-13619698D01*
X6363039Y-13619698D02*
X6372563Y-13610174D01*
X6372563Y-13610174D02*
X6391610Y-13600650D01*
X6391610Y-13600650D02*
X6420182Y-13600650D01*
X6420182Y-13600650D02*
X6439230Y-13610174D01*
X6439230Y-13610174D02*
X6448753Y-13619698D01*
X6448753Y-13619698D02*
X6458277Y-13638746D01*
X6458277Y-13638746D02*
X6458277Y-13695888D01*
X6458277Y-13695888D02*
X6448753Y-13714936D01*
X6448753Y-13714936D02*
X6439230Y-13724460D01*
X6439230Y-13724460D02*
X6420182Y-13733984D01*
X6420182Y-13733984D02*
X6391610Y-13733984D01*
X6572563Y-13733984D02*
X6553515Y-13724460D01*
X6553515Y-13724460D02*
X6543991Y-13705412D01*
X6543991Y-13705412D02*
X6543991Y-13533984D01*
X6724944Y-13724460D02*
X6705896Y-13733984D01*
X6705896Y-13733984D02*
X6667801Y-13733984D01*
X6667801Y-13733984D02*
X6648753Y-13724460D01*
X6648753Y-13724460D02*
X6639230Y-13705412D01*
X6639230Y-13705412D02*
X6639230Y-13629222D01*
X6639230Y-13629222D02*
X6648753Y-13610174D01*
X6648753Y-13610174D02*
X6667801Y-13600650D01*
X6667801Y-13600650D02*
X6705896Y-13600650D01*
X6705896Y-13600650D02*
X6724944Y-13610174D01*
X6724944Y-13610174D02*
X6734468Y-13629222D01*
X6734468Y-13629222D02*
X6734468Y-13648269D01*
X6734468Y-13648269D02*
X6639230Y-13667317D01*
X6810658Y-13724460D02*
X6829706Y-13733984D01*
X6829706Y-13733984D02*
X6867801Y-13733984D01*
X6867801Y-13733984D02*
X6886849Y-13724460D01*
X6886849Y-13724460D02*
X6896372Y-13705412D01*
X6896372Y-13705412D02*
X6896372Y-13695888D01*
X6896372Y-13695888D02*
X6886849Y-13676841D01*
X6886849Y-13676841D02*
X6867801Y-13667317D01*
X6867801Y-13667317D02*
X6839230Y-13667317D01*
X6839230Y-13667317D02*
X6820182Y-13657793D01*
X6820182Y-13657793D02*
X6810658Y-13638746D01*
X6810658Y-13638746D02*
X6810658Y-13629222D01*
X6810658Y-13629222D02*
X6820182Y-13610174D01*
X6820182Y-13610174D02*
X6839230Y-13600650D01*
X6839230Y-13600650D02*
X6867801Y-13600650D01*
X6867801Y-13600650D02*
X6886849Y-13610174D01*
X6963039Y-13810174D02*
X6972563Y-13800650D01*
X6972563Y-13800650D02*
X6991611Y-13772079D01*
X6991611Y-13772079D02*
X7001134Y-13753031D01*
X7001134Y-13753031D02*
X7010658Y-13724460D01*
X7010658Y-13724460D02*
X7020182Y-13676841D01*
X7020182Y-13676841D02*
X7020182Y-13638746D01*
X7020182Y-13638746D02*
X7010658Y-13591127D01*
X7010658Y-13591127D02*
X7001134Y-13562555D01*
X7001134Y-13562555D02*
X6991611Y-13543508D01*
X6991611Y-13543508D02*
X6972563Y-13514936D01*
X6972563Y-13514936D02*
X6963039Y-13505412D01*
D12*
X1997500Y-13906500D02*
G75*
G02*
X1921300Y-13906500I-38100J0D01*
G01*
X1921300Y-13906500D02*
G75*
G02*
X1997500Y-13906500I38100J0D01*
G01*
D11*
X2296372Y-13797984D02*
X2315420Y-13797984D01*
X2315420Y-13797984D02*
X2334467Y-13807508D01*
X2334467Y-13807508D02*
X2343991Y-13817031D01*
X2343991Y-13817031D02*
X2353515Y-13836079D01*
X2353515Y-13836079D02*
X2363039Y-13874174D01*
X2363039Y-13874174D02*
X2363039Y-13921793D01*
X2363039Y-13921793D02*
X2353515Y-13959888D01*
X2353515Y-13959888D02*
X2343991Y-13978936D01*
X2343991Y-13978936D02*
X2334467Y-13988460D01*
X2334467Y-13988460D02*
X2315420Y-13997984D01*
X2315420Y-13997984D02*
X2296372Y-13997984D01*
X2296372Y-13997984D02*
X2277324Y-13988460D01*
X2277324Y-13988460D02*
X2267801Y-13978936D01*
X2267801Y-13978936D02*
X2258277Y-13959888D01*
X2258277Y-13959888D02*
X2248753Y-13921793D01*
X2248753Y-13921793D02*
X2248753Y-13874174D01*
X2248753Y-13874174D02*
X2258277Y-13836079D01*
X2258277Y-13836079D02*
X2267801Y-13817031D01*
X2267801Y-13817031D02*
X2277324Y-13807508D01*
X2277324Y-13807508D02*
X2296372Y-13797984D01*
X2448753Y-13978936D02*
X2458277Y-13988460D01*
X2458277Y-13988460D02*
X2448753Y-13997984D01*
X2448753Y-13997984D02*
X2439229Y-13988460D01*
X2439229Y-13988460D02*
X2448753Y-13978936D01*
X2448753Y-13978936D02*
X2448753Y-13997984D01*
X2524944Y-13797984D02*
X2658277Y-13797984D01*
X2658277Y-13797984D02*
X2572563Y-13997984D01*
X2820182Y-13797984D02*
X2782086Y-13797984D01*
X2782086Y-13797984D02*
X2763039Y-13807508D01*
X2763039Y-13807508D02*
X2753515Y-13817031D01*
X2753515Y-13817031D02*
X2734467Y-13845603D01*
X2734467Y-13845603D02*
X2724944Y-13883698D01*
X2724944Y-13883698D02*
X2724944Y-13959888D01*
X2724944Y-13959888D02*
X2734467Y-13978936D01*
X2734467Y-13978936D02*
X2743991Y-13988460D01*
X2743991Y-13988460D02*
X2763039Y-13997984D01*
X2763039Y-13997984D02*
X2801134Y-13997984D01*
X2801134Y-13997984D02*
X2820182Y-13988460D01*
X2820182Y-13988460D02*
X2829705Y-13978936D01*
X2829705Y-13978936D02*
X2839229Y-13959888D01*
X2839229Y-13959888D02*
X2839229Y-13912269D01*
X2839229Y-13912269D02*
X2829705Y-13893222D01*
X2829705Y-13893222D02*
X2820182Y-13883698D01*
X2820182Y-13883698D02*
X2801134Y-13874174D01*
X2801134Y-13874174D02*
X2763039Y-13874174D01*
X2763039Y-13874174D02*
X2743991Y-13883698D01*
X2743991Y-13883698D02*
X2734467Y-13893222D01*
X2734467Y-13893222D02*
X2724944Y-13912269D01*
X2915420Y-13817031D02*
X2924943Y-13807508D01*
X2924943Y-13807508D02*
X2943991Y-13797984D01*
X2943991Y-13797984D02*
X2991610Y-13797984D01*
X2991610Y-13797984D02*
X3010658Y-13807508D01*
X3010658Y-13807508D02*
X3020182Y-13817031D01*
X3020182Y-13817031D02*
X3029705Y-13836079D01*
X3029705Y-13836079D02*
X3029705Y-13855127D01*
X3029705Y-13855127D02*
X3020182Y-13883698D01*
X3020182Y-13883698D02*
X2905896Y-13997984D01*
X2905896Y-13997984D02*
X3029705Y-13997984D01*
X3115420Y-13997984D02*
X3115420Y-13864650D01*
X3115420Y-13883698D02*
X3124943Y-13874174D01*
X3124943Y-13874174D02*
X3143991Y-13864650D01*
X3143991Y-13864650D02*
X3172563Y-13864650D01*
X3172563Y-13864650D02*
X3191610Y-13874174D01*
X3191610Y-13874174D02*
X3201134Y-13893222D01*
X3201134Y-13893222D02*
X3201134Y-13997984D01*
X3201134Y-13893222D02*
X3210658Y-13874174D01*
X3210658Y-13874174D02*
X3229705Y-13864650D01*
X3229705Y-13864650D02*
X3258277Y-13864650D01*
X3258277Y-13864650D02*
X3277324Y-13874174D01*
X3277324Y-13874174D02*
X3286848Y-13893222D01*
X3286848Y-13893222D02*
X3286848Y-13997984D01*
X3382086Y-13997984D02*
X3382086Y-13864650D01*
X3382086Y-13883698D02*
X3391610Y-13874174D01*
X3391610Y-13874174D02*
X3410658Y-13864650D01*
X3410658Y-13864650D02*
X3439229Y-13864650D01*
X3439229Y-13864650D02*
X3458277Y-13874174D01*
X3458277Y-13874174D02*
X3467801Y-13893222D01*
X3467801Y-13893222D02*
X3467801Y-13997984D01*
X3467801Y-13893222D02*
X3477324Y-13874174D01*
X3477324Y-13874174D02*
X3496372Y-13864650D01*
X3496372Y-13864650D02*
X3524943Y-13864650D01*
X3524943Y-13864650D02*
X3543991Y-13874174D01*
X3543991Y-13874174D02*
X3553515Y-13893222D01*
X3553515Y-13893222D02*
X3553515Y-13997984D01*
X3943991Y-13788460D02*
X3772563Y-14045603D01*
X4201134Y-13797984D02*
X4220182Y-13797984D01*
X4220182Y-13797984D02*
X4239229Y-13807508D01*
X4239229Y-13807508D02*
X4248753Y-13817031D01*
X4248753Y-13817031D02*
X4258277Y-13836079D01*
X4258277Y-13836079D02*
X4267801Y-13874174D01*
X4267801Y-13874174D02*
X4267801Y-13921793D01*
X4267801Y-13921793D02*
X4258277Y-13959888D01*
X4258277Y-13959888D02*
X4248753Y-13978936D01*
X4248753Y-13978936D02*
X4239229Y-13988460D01*
X4239229Y-13988460D02*
X4220182Y-13997984D01*
X4220182Y-13997984D02*
X4201134Y-13997984D01*
X4201134Y-13997984D02*
X4182086Y-13988460D01*
X4182086Y-13988460D02*
X4172563Y-13978936D01*
X4172563Y-13978936D02*
X4163039Y-13959888D01*
X4163039Y-13959888D02*
X4153515Y-13921793D01*
X4153515Y-13921793D02*
X4153515Y-13874174D01*
X4153515Y-13874174D02*
X4163039Y-13836079D01*
X4163039Y-13836079D02*
X4172563Y-13817031D01*
X4172563Y-13817031D02*
X4182086Y-13807508D01*
X4182086Y-13807508D02*
X4201134Y-13797984D01*
X4353515Y-13978936D02*
X4363039Y-13988460D01*
X4363039Y-13988460D02*
X4353515Y-13997984D01*
X4353515Y-13997984D02*
X4343991Y-13988460D01*
X4343991Y-13988460D02*
X4353515Y-13978936D01*
X4353515Y-13978936D02*
X4353515Y-13997984D01*
X4486848Y-13797984D02*
X4505896Y-13797984D01*
X4505896Y-13797984D02*
X4524944Y-13807508D01*
X4524944Y-13807508D02*
X4534468Y-13817031D01*
X4534468Y-13817031D02*
X4543991Y-13836079D01*
X4543991Y-13836079D02*
X4553515Y-13874174D01*
X4553515Y-13874174D02*
X4553515Y-13921793D01*
X4553515Y-13921793D02*
X4543991Y-13959888D01*
X4543991Y-13959888D02*
X4534468Y-13978936D01*
X4534468Y-13978936D02*
X4524944Y-13988460D01*
X4524944Y-13988460D02*
X4505896Y-13997984D01*
X4505896Y-13997984D02*
X4486848Y-13997984D01*
X4486848Y-13997984D02*
X4467801Y-13988460D01*
X4467801Y-13988460D02*
X4458277Y-13978936D01*
X4458277Y-13978936D02*
X4448753Y-13959888D01*
X4448753Y-13959888D02*
X4439229Y-13921793D01*
X4439229Y-13921793D02*
X4439229Y-13874174D01*
X4439229Y-13874174D02*
X4448753Y-13836079D01*
X4448753Y-13836079D02*
X4458277Y-13817031D01*
X4458277Y-13817031D02*
X4467801Y-13807508D01*
X4467801Y-13807508D02*
X4486848Y-13797984D01*
X4620182Y-13797984D02*
X4743991Y-13797984D01*
X4743991Y-13797984D02*
X4677325Y-13874174D01*
X4677325Y-13874174D02*
X4705896Y-13874174D01*
X4705896Y-13874174D02*
X4724944Y-13883698D01*
X4724944Y-13883698D02*
X4734468Y-13893222D01*
X4734468Y-13893222D02*
X4743991Y-13912269D01*
X4743991Y-13912269D02*
X4743991Y-13959888D01*
X4743991Y-13959888D02*
X4734468Y-13978936D01*
X4734468Y-13978936D02*
X4724944Y-13988460D01*
X4724944Y-13988460D02*
X4705896Y-13997984D01*
X4705896Y-13997984D02*
X4648753Y-13997984D01*
X4648753Y-13997984D02*
X4629706Y-13988460D01*
X4629706Y-13988460D02*
X4620182Y-13978936D01*
X4867801Y-13797984D02*
X4886849Y-13797984D01*
X4886849Y-13797984D02*
X4905896Y-13807508D01*
X4905896Y-13807508D02*
X4915420Y-13817031D01*
X4915420Y-13817031D02*
X4924944Y-13836079D01*
X4924944Y-13836079D02*
X4934468Y-13874174D01*
X4934468Y-13874174D02*
X4934468Y-13921793D01*
X4934468Y-13921793D02*
X4924944Y-13959888D01*
X4924944Y-13959888D02*
X4915420Y-13978936D01*
X4915420Y-13978936D02*
X4905896Y-13988460D01*
X4905896Y-13988460D02*
X4886849Y-13997984D01*
X4886849Y-13997984D02*
X4867801Y-13997984D01*
X4867801Y-13997984D02*
X4848753Y-13988460D01*
X4848753Y-13988460D02*
X4839229Y-13978936D01*
X4839229Y-13978936D02*
X4829706Y-13959888D01*
X4829706Y-13959888D02*
X4820182Y-13921793D01*
X4820182Y-13921793D02*
X4820182Y-13874174D01*
X4820182Y-13874174D02*
X4829706Y-13836079D01*
X4829706Y-13836079D02*
X4839229Y-13817031D01*
X4839229Y-13817031D02*
X4848753Y-13807508D01*
X4848753Y-13807508D02*
X4867801Y-13797984D01*
X5058277Y-13797984D02*
X5077325Y-13797984D01*
X5077325Y-13797984D02*
X5096372Y-13807508D01*
X5096372Y-13807508D02*
X5105896Y-13817031D01*
X5105896Y-13817031D02*
X5115420Y-13836079D01*
X5115420Y-13836079D02*
X5124944Y-13874174D01*
X5124944Y-13874174D02*
X5124944Y-13921793D01*
X5124944Y-13921793D02*
X5115420Y-13959888D01*
X5115420Y-13959888D02*
X5105896Y-13978936D01*
X5105896Y-13978936D02*
X5096372Y-13988460D01*
X5096372Y-13988460D02*
X5077325Y-13997984D01*
X5077325Y-13997984D02*
X5058277Y-13997984D01*
X5058277Y-13997984D02*
X5039229Y-13988460D01*
X5039229Y-13988460D02*
X5029706Y-13978936D01*
X5029706Y-13978936D02*
X5020182Y-13959888D01*
X5020182Y-13959888D02*
X5010658Y-13921793D01*
X5010658Y-13921793D02*
X5010658Y-13874174D01*
X5010658Y-13874174D02*
X5020182Y-13836079D01*
X5020182Y-13836079D02*
X5029706Y-13817031D01*
X5029706Y-13817031D02*
X5039229Y-13807508D01*
X5039229Y-13807508D02*
X5058277Y-13797984D01*
X5201134Y-13797984D02*
X5201134Y-13836079D01*
X5277325Y-13797984D02*
X5277325Y-13836079D01*
X5572563Y-14074174D02*
X5563039Y-14064650D01*
X5563039Y-14064650D02*
X5543991Y-14036079D01*
X5543991Y-14036079D02*
X5534468Y-14017031D01*
X5534468Y-14017031D02*
X5524944Y-13988460D01*
X5524944Y-13988460D02*
X5515420Y-13940841D01*
X5515420Y-13940841D02*
X5515420Y-13902746D01*
X5515420Y-13902746D02*
X5524944Y-13855127D01*
X5524944Y-13855127D02*
X5534468Y-13826555D01*
X5534468Y-13826555D02*
X5543991Y-13807508D01*
X5543991Y-13807508D02*
X5563039Y-13778936D01*
X5563039Y-13778936D02*
X5572563Y-13769412D01*
X5753515Y-13997984D02*
X5639229Y-13997984D01*
X5696372Y-13997984D02*
X5696372Y-13797984D01*
X5696372Y-13797984D02*
X5677325Y-13826555D01*
X5677325Y-13826555D02*
X5658277Y-13845603D01*
X5658277Y-13845603D02*
X5639229Y-13855127D01*
X5924944Y-13797984D02*
X5886848Y-13797984D01*
X5886848Y-13797984D02*
X5867801Y-13807508D01*
X5867801Y-13807508D02*
X5858277Y-13817031D01*
X5858277Y-13817031D02*
X5839229Y-13845603D01*
X5839229Y-13845603D02*
X5829706Y-13883698D01*
X5829706Y-13883698D02*
X5829706Y-13959888D01*
X5829706Y-13959888D02*
X5839229Y-13978936D01*
X5839229Y-13978936D02*
X5848753Y-13988460D01*
X5848753Y-13988460D02*
X5867801Y-13997984D01*
X5867801Y-13997984D02*
X5905896Y-13997984D01*
X5905896Y-13997984D02*
X5924944Y-13988460D01*
X5924944Y-13988460D02*
X5934468Y-13978936D01*
X5934468Y-13978936D02*
X5943991Y-13959888D01*
X5943991Y-13959888D02*
X5943991Y-13912269D01*
X5943991Y-13912269D02*
X5934468Y-13893222D01*
X5934468Y-13893222D02*
X5924944Y-13883698D01*
X5924944Y-13883698D02*
X5905896Y-13874174D01*
X5905896Y-13874174D02*
X5867801Y-13874174D01*
X5867801Y-13874174D02*
X5848753Y-13883698D01*
X5848753Y-13883698D02*
X5839229Y-13893222D01*
X5839229Y-13893222D02*
X5829706Y-13912269D01*
X6182087Y-13997984D02*
X6182087Y-13797984D01*
X6267801Y-13997984D02*
X6267801Y-13893222D01*
X6267801Y-13893222D02*
X6258277Y-13874174D01*
X6258277Y-13874174D02*
X6239230Y-13864650D01*
X6239230Y-13864650D02*
X6210658Y-13864650D01*
X6210658Y-13864650D02*
X6191610Y-13874174D01*
X6191610Y-13874174D02*
X6182087Y-13883698D01*
X6391610Y-13997984D02*
X6372563Y-13988460D01*
X6372563Y-13988460D02*
X6363039Y-13978936D01*
X6363039Y-13978936D02*
X6353515Y-13959888D01*
X6353515Y-13959888D02*
X6353515Y-13902746D01*
X6353515Y-13902746D02*
X6363039Y-13883698D01*
X6363039Y-13883698D02*
X6372563Y-13874174D01*
X6372563Y-13874174D02*
X6391610Y-13864650D01*
X6391610Y-13864650D02*
X6420182Y-13864650D01*
X6420182Y-13864650D02*
X6439230Y-13874174D01*
X6439230Y-13874174D02*
X6448753Y-13883698D01*
X6448753Y-13883698D02*
X6458277Y-13902746D01*
X6458277Y-13902746D02*
X6458277Y-13959888D01*
X6458277Y-13959888D02*
X6448753Y-13978936D01*
X6448753Y-13978936D02*
X6439230Y-13988460D01*
X6439230Y-13988460D02*
X6420182Y-13997984D01*
X6420182Y-13997984D02*
X6391610Y-13997984D01*
X6572563Y-13997984D02*
X6553515Y-13988460D01*
X6553515Y-13988460D02*
X6543991Y-13969412D01*
X6543991Y-13969412D02*
X6543991Y-13797984D01*
X6724944Y-13988460D02*
X6705896Y-13997984D01*
X6705896Y-13997984D02*
X6667801Y-13997984D01*
X6667801Y-13997984D02*
X6648753Y-13988460D01*
X6648753Y-13988460D02*
X6639230Y-13969412D01*
X6639230Y-13969412D02*
X6639230Y-13893222D01*
X6639230Y-13893222D02*
X6648753Y-13874174D01*
X6648753Y-13874174D02*
X6667801Y-13864650D01*
X6667801Y-13864650D02*
X6705896Y-13864650D01*
X6705896Y-13864650D02*
X6724944Y-13874174D01*
X6724944Y-13874174D02*
X6734468Y-13893222D01*
X6734468Y-13893222D02*
X6734468Y-13912269D01*
X6734468Y-13912269D02*
X6639230Y-13931317D01*
X6810658Y-13988460D02*
X6829706Y-13997984D01*
X6829706Y-13997984D02*
X6867801Y-13997984D01*
X6867801Y-13997984D02*
X6886849Y-13988460D01*
X6886849Y-13988460D02*
X6896372Y-13969412D01*
X6896372Y-13969412D02*
X6896372Y-13959888D01*
X6896372Y-13959888D02*
X6886849Y-13940841D01*
X6886849Y-13940841D02*
X6867801Y-13931317D01*
X6867801Y-13931317D02*
X6839230Y-13931317D01*
X6839230Y-13931317D02*
X6820182Y-13921793D01*
X6820182Y-13921793D02*
X6810658Y-13902746D01*
X6810658Y-13902746D02*
X6810658Y-13893222D01*
X6810658Y-13893222D02*
X6820182Y-13874174D01*
X6820182Y-13874174D02*
X6839230Y-13864650D01*
X6839230Y-13864650D02*
X6867801Y-13864650D01*
X6867801Y-13864650D02*
X6886849Y-13874174D01*
X6963039Y-14074174D02*
X6972563Y-14064650D01*
X6972563Y-14064650D02*
X6991611Y-14036079D01*
X6991611Y-14036079D02*
X7001134Y-14017031D01*
X7001134Y-14017031D02*
X7010658Y-13988460D01*
X7010658Y-13988460D02*
X7020182Y-13940841D01*
X7020182Y-13940841D02*
X7020182Y-13902746D01*
X7020182Y-13902746D02*
X7010658Y-13855127D01*
X7010658Y-13855127D02*
X7001134Y-13826555D01*
X7001134Y-13826555D02*
X6991611Y-13807508D01*
X6991611Y-13807508D02*
X6972563Y-13778936D01*
X6972563Y-13778936D02*
X6963039Y-13769412D01*
D12*
X1952500Y-14125500D02*
X1952500Y-14215500D01*
X1907500Y-14170500D02*
X1997500Y-14170500D01*
D11*
X2296372Y-14061984D02*
X2315420Y-14061984D01*
X2315420Y-14061984D02*
X2334467Y-14071508D01*
X2334467Y-14071508D02*
X2343991Y-14081031D01*
X2343991Y-14081031D02*
X2353515Y-14100079D01*
X2353515Y-14100079D02*
X2363039Y-14138174D01*
X2363039Y-14138174D02*
X2363039Y-14185793D01*
X2363039Y-14185793D02*
X2353515Y-14223888D01*
X2353515Y-14223888D02*
X2343991Y-14242936D01*
X2343991Y-14242936D02*
X2334467Y-14252460D01*
X2334467Y-14252460D02*
X2315420Y-14261984D01*
X2315420Y-14261984D02*
X2296372Y-14261984D01*
X2296372Y-14261984D02*
X2277324Y-14252460D01*
X2277324Y-14252460D02*
X2267801Y-14242936D01*
X2267801Y-14242936D02*
X2258277Y-14223888D01*
X2258277Y-14223888D02*
X2248753Y-14185793D01*
X2248753Y-14185793D02*
X2248753Y-14138174D01*
X2248753Y-14138174D02*
X2258277Y-14100079D01*
X2258277Y-14100079D02*
X2267801Y-14081031D01*
X2267801Y-14081031D02*
X2277324Y-14071508D01*
X2277324Y-14071508D02*
X2296372Y-14061984D01*
X2448753Y-14242936D02*
X2458277Y-14252460D01*
X2458277Y-14252460D02*
X2448753Y-14261984D01*
X2448753Y-14261984D02*
X2439229Y-14252460D01*
X2439229Y-14252460D02*
X2448753Y-14242936D01*
X2448753Y-14242936D02*
X2448753Y-14261984D01*
X2553515Y-14261984D02*
X2591610Y-14261984D01*
X2591610Y-14261984D02*
X2610658Y-14252460D01*
X2610658Y-14252460D02*
X2620182Y-14242936D01*
X2620182Y-14242936D02*
X2639229Y-14214365D01*
X2639229Y-14214365D02*
X2648753Y-14176269D01*
X2648753Y-14176269D02*
X2648753Y-14100079D01*
X2648753Y-14100079D02*
X2639229Y-14081031D01*
X2639229Y-14081031D02*
X2629705Y-14071508D01*
X2629705Y-14071508D02*
X2610658Y-14061984D01*
X2610658Y-14061984D02*
X2572563Y-14061984D01*
X2572563Y-14061984D02*
X2553515Y-14071508D01*
X2553515Y-14071508D02*
X2543991Y-14081031D01*
X2543991Y-14081031D02*
X2534467Y-14100079D01*
X2534467Y-14100079D02*
X2534467Y-14147698D01*
X2534467Y-14147698D02*
X2543991Y-14166746D01*
X2543991Y-14166746D02*
X2553515Y-14176269D01*
X2553515Y-14176269D02*
X2572563Y-14185793D01*
X2572563Y-14185793D02*
X2610658Y-14185793D01*
X2610658Y-14185793D02*
X2629705Y-14176269D01*
X2629705Y-14176269D02*
X2639229Y-14166746D01*
X2639229Y-14166746D02*
X2648753Y-14147698D01*
X2772563Y-14061984D02*
X2791610Y-14061984D01*
X2791610Y-14061984D02*
X2810658Y-14071508D01*
X2810658Y-14071508D02*
X2820182Y-14081031D01*
X2820182Y-14081031D02*
X2829705Y-14100079D01*
X2829705Y-14100079D02*
X2839229Y-14138174D01*
X2839229Y-14138174D02*
X2839229Y-14185793D01*
X2839229Y-14185793D02*
X2829705Y-14223888D01*
X2829705Y-14223888D02*
X2820182Y-14242936D01*
X2820182Y-14242936D02*
X2810658Y-14252460D01*
X2810658Y-14252460D02*
X2791610Y-14261984D01*
X2791610Y-14261984D02*
X2772563Y-14261984D01*
X2772563Y-14261984D02*
X2753515Y-14252460D01*
X2753515Y-14252460D02*
X2743991Y-14242936D01*
X2743991Y-14242936D02*
X2734467Y-14223888D01*
X2734467Y-14223888D02*
X2724944Y-14185793D01*
X2724944Y-14185793D02*
X2724944Y-14138174D01*
X2724944Y-14138174D02*
X2734467Y-14100079D01*
X2734467Y-14100079D02*
X2743991Y-14081031D01*
X2743991Y-14081031D02*
X2753515Y-14071508D01*
X2753515Y-14071508D02*
X2772563Y-14061984D01*
X2963039Y-14061984D02*
X2982086Y-14061984D01*
X2982086Y-14061984D02*
X3001134Y-14071508D01*
X3001134Y-14071508D02*
X3010658Y-14081031D01*
X3010658Y-14081031D02*
X3020182Y-14100079D01*
X3020182Y-14100079D02*
X3029705Y-14138174D01*
X3029705Y-14138174D02*
X3029705Y-14185793D01*
X3029705Y-14185793D02*
X3020182Y-14223888D01*
X3020182Y-14223888D02*
X3010658Y-14242936D01*
X3010658Y-14242936D02*
X3001134Y-14252460D01*
X3001134Y-14252460D02*
X2982086Y-14261984D01*
X2982086Y-14261984D02*
X2963039Y-14261984D01*
X2963039Y-14261984D02*
X2943991Y-14252460D01*
X2943991Y-14252460D02*
X2934467Y-14242936D01*
X2934467Y-14242936D02*
X2924943Y-14223888D01*
X2924943Y-14223888D02*
X2915420Y-14185793D01*
X2915420Y-14185793D02*
X2915420Y-14138174D01*
X2915420Y-14138174D02*
X2924943Y-14100079D01*
X2924943Y-14100079D02*
X2934467Y-14081031D01*
X2934467Y-14081031D02*
X2943991Y-14071508D01*
X2943991Y-14071508D02*
X2963039Y-14061984D01*
X3115420Y-14261984D02*
X3115420Y-14128650D01*
X3115420Y-14147698D02*
X3124943Y-14138174D01*
X3124943Y-14138174D02*
X3143991Y-14128650D01*
X3143991Y-14128650D02*
X3172563Y-14128650D01*
X3172563Y-14128650D02*
X3191610Y-14138174D01*
X3191610Y-14138174D02*
X3201134Y-14157222D01*
X3201134Y-14157222D02*
X3201134Y-14261984D01*
X3201134Y-14157222D02*
X3210658Y-14138174D01*
X3210658Y-14138174D02*
X3229705Y-14128650D01*
X3229705Y-14128650D02*
X3258277Y-14128650D01*
X3258277Y-14128650D02*
X3277324Y-14138174D01*
X3277324Y-14138174D02*
X3286848Y-14157222D01*
X3286848Y-14157222D02*
X3286848Y-14261984D01*
X3382086Y-14261984D02*
X3382086Y-14128650D01*
X3382086Y-14147698D02*
X3391610Y-14138174D01*
X3391610Y-14138174D02*
X3410658Y-14128650D01*
X3410658Y-14128650D02*
X3439229Y-14128650D01*
X3439229Y-14128650D02*
X3458277Y-14138174D01*
X3458277Y-14138174D02*
X3467801Y-14157222D01*
X3467801Y-14157222D02*
X3467801Y-14261984D01*
X3467801Y-14157222D02*
X3477324Y-14138174D01*
X3477324Y-14138174D02*
X3496372Y-14128650D01*
X3496372Y-14128650D02*
X3524943Y-14128650D01*
X3524943Y-14128650D02*
X3543991Y-14138174D01*
X3543991Y-14138174D02*
X3553515Y-14157222D01*
X3553515Y-14157222D02*
X3553515Y-14261984D01*
X3943991Y-14052460D02*
X3772563Y-14309603D01*
X4201134Y-14061984D02*
X4220182Y-14061984D01*
X4220182Y-14061984D02*
X4239229Y-14071508D01*
X4239229Y-14071508D02*
X4248753Y-14081031D01*
X4248753Y-14081031D02*
X4258277Y-14100079D01*
X4258277Y-14100079D02*
X4267801Y-14138174D01*
X4267801Y-14138174D02*
X4267801Y-14185793D01*
X4267801Y-14185793D02*
X4258277Y-14223888D01*
X4258277Y-14223888D02*
X4248753Y-14242936D01*
X4248753Y-14242936D02*
X4239229Y-14252460D01*
X4239229Y-14252460D02*
X4220182Y-14261984D01*
X4220182Y-14261984D02*
X4201134Y-14261984D01*
X4201134Y-14261984D02*
X4182086Y-14252460D01*
X4182086Y-14252460D02*
X4172563Y-14242936D01*
X4172563Y-14242936D02*
X4163039Y-14223888D01*
X4163039Y-14223888D02*
X4153515Y-14185793D01*
X4153515Y-14185793D02*
X4153515Y-14138174D01*
X4153515Y-14138174D02*
X4163039Y-14100079D01*
X4163039Y-14100079D02*
X4172563Y-14081031D01*
X4172563Y-14081031D02*
X4182086Y-14071508D01*
X4182086Y-14071508D02*
X4201134Y-14061984D01*
X4353515Y-14242936D02*
X4363039Y-14252460D01*
X4363039Y-14252460D02*
X4353515Y-14261984D01*
X4353515Y-14261984D02*
X4343991Y-14252460D01*
X4343991Y-14252460D02*
X4353515Y-14242936D01*
X4353515Y-14242936D02*
X4353515Y-14261984D01*
X4486848Y-14061984D02*
X4505896Y-14061984D01*
X4505896Y-14061984D02*
X4524944Y-14071508D01*
X4524944Y-14071508D02*
X4534468Y-14081031D01*
X4534468Y-14081031D02*
X4543991Y-14100079D01*
X4543991Y-14100079D02*
X4553515Y-14138174D01*
X4553515Y-14138174D02*
X4553515Y-14185793D01*
X4553515Y-14185793D02*
X4543991Y-14223888D01*
X4543991Y-14223888D02*
X4534468Y-14242936D01*
X4534468Y-14242936D02*
X4524944Y-14252460D01*
X4524944Y-14252460D02*
X4505896Y-14261984D01*
X4505896Y-14261984D02*
X4486848Y-14261984D01*
X4486848Y-14261984D02*
X4467801Y-14252460D01*
X4467801Y-14252460D02*
X4458277Y-14242936D01*
X4458277Y-14242936D02*
X4448753Y-14223888D01*
X4448753Y-14223888D02*
X4439229Y-14185793D01*
X4439229Y-14185793D02*
X4439229Y-14138174D01*
X4439229Y-14138174D02*
X4448753Y-14100079D01*
X4448753Y-14100079D02*
X4458277Y-14081031D01*
X4458277Y-14081031D02*
X4467801Y-14071508D01*
X4467801Y-14071508D02*
X4486848Y-14061984D01*
X4620182Y-14061984D02*
X4743991Y-14061984D01*
X4743991Y-14061984D02*
X4677325Y-14138174D01*
X4677325Y-14138174D02*
X4705896Y-14138174D01*
X4705896Y-14138174D02*
X4724944Y-14147698D01*
X4724944Y-14147698D02*
X4734468Y-14157222D01*
X4734468Y-14157222D02*
X4743991Y-14176269D01*
X4743991Y-14176269D02*
X4743991Y-14223888D01*
X4743991Y-14223888D02*
X4734468Y-14242936D01*
X4734468Y-14242936D02*
X4724944Y-14252460D01*
X4724944Y-14252460D02*
X4705896Y-14261984D01*
X4705896Y-14261984D02*
X4648753Y-14261984D01*
X4648753Y-14261984D02*
X4629706Y-14252460D01*
X4629706Y-14252460D02*
X4620182Y-14242936D01*
X4924944Y-14061984D02*
X4829706Y-14061984D01*
X4829706Y-14061984D02*
X4820182Y-14157222D01*
X4820182Y-14157222D02*
X4829706Y-14147698D01*
X4829706Y-14147698D02*
X4848753Y-14138174D01*
X4848753Y-14138174D02*
X4896372Y-14138174D01*
X4896372Y-14138174D02*
X4915420Y-14147698D01*
X4915420Y-14147698D02*
X4924944Y-14157222D01*
X4924944Y-14157222D02*
X4934468Y-14176269D01*
X4934468Y-14176269D02*
X4934468Y-14223888D01*
X4934468Y-14223888D02*
X4924944Y-14242936D01*
X4924944Y-14242936D02*
X4915420Y-14252460D01*
X4915420Y-14252460D02*
X4896372Y-14261984D01*
X4896372Y-14261984D02*
X4848753Y-14261984D01*
X4848753Y-14261984D02*
X4829706Y-14252460D01*
X4829706Y-14252460D02*
X4820182Y-14242936D01*
X5105896Y-14128650D02*
X5105896Y-14261984D01*
X5058277Y-14052460D02*
X5010658Y-14195317D01*
X5010658Y-14195317D02*
X5134468Y-14195317D01*
X5201134Y-14061984D02*
X5201134Y-14100079D01*
X5277325Y-14061984D02*
X5277325Y-14100079D01*
X5572563Y-14338174D02*
X5563039Y-14328650D01*
X5563039Y-14328650D02*
X5543991Y-14300079D01*
X5543991Y-14300079D02*
X5534468Y-14281031D01*
X5534468Y-14281031D02*
X5524944Y-14252460D01*
X5524944Y-14252460D02*
X5515420Y-14204841D01*
X5515420Y-14204841D02*
X5515420Y-14166746D01*
X5515420Y-14166746D02*
X5524944Y-14119127D01*
X5524944Y-14119127D02*
X5534468Y-14090555D01*
X5534468Y-14090555D02*
X5543991Y-14071508D01*
X5543991Y-14071508D02*
X5563039Y-14042936D01*
X5563039Y-14042936D02*
X5572563Y-14033412D01*
X5734468Y-14128650D02*
X5734468Y-14261984D01*
X5686848Y-14052460D02*
X5639229Y-14195317D01*
X5639229Y-14195317D02*
X5763039Y-14195317D01*
X5991610Y-14261984D02*
X5991610Y-14061984D01*
X6077325Y-14261984D02*
X6077325Y-14157222D01*
X6077325Y-14157222D02*
X6067801Y-14138174D01*
X6067801Y-14138174D02*
X6048753Y-14128650D01*
X6048753Y-14128650D02*
X6020182Y-14128650D01*
X6020182Y-14128650D02*
X6001134Y-14138174D01*
X6001134Y-14138174D02*
X5991610Y-14147698D01*
X6201134Y-14261984D02*
X6182087Y-14252460D01*
X6182087Y-14252460D02*
X6172563Y-14242936D01*
X6172563Y-14242936D02*
X6163039Y-14223888D01*
X6163039Y-14223888D02*
X6163039Y-14166746D01*
X6163039Y-14166746D02*
X6172563Y-14147698D01*
X6172563Y-14147698D02*
X6182087Y-14138174D01*
X6182087Y-14138174D02*
X6201134Y-14128650D01*
X6201134Y-14128650D02*
X6229706Y-14128650D01*
X6229706Y-14128650D02*
X6248753Y-14138174D01*
X6248753Y-14138174D02*
X6258277Y-14147698D01*
X6258277Y-14147698D02*
X6267801Y-14166746D01*
X6267801Y-14166746D02*
X6267801Y-14223888D01*
X6267801Y-14223888D02*
X6258277Y-14242936D01*
X6258277Y-14242936D02*
X6248753Y-14252460D01*
X6248753Y-14252460D02*
X6229706Y-14261984D01*
X6229706Y-14261984D02*
X6201134Y-14261984D01*
X6382087Y-14261984D02*
X6363039Y-14252460D01*
X6363039Y-14252460D02*
X6353515Y-14233412D01*
X6353515Y-14233412D02*
X6353515Y-14061984D01*
X6534468Y-14252460D02*
X6515420Y-14261984D01*
X6515420Y-14261984D02*
X6477325Y-14261984D01*
X6477325Y-14261984D02*
X6458277Y-14252460D01*
X6458277Y-14252460D02*
X6448753Y-14233412D01*
X6448753Y-14233412D02*
X6448753Y-14157222D01*
X6448753Y-14157222D02*
X6458277Y-14138174D01*
X6458277Y-14138174D02*
X6477325Y-14128650D01*
X6477325Y-14128650D02*
X6515420Y-14128650D01*
X6515420Y-14128650D02*
X6534468Y-14138174D01*
X6534468Y-14138174D02*
X6543991Y-14157222D01*
X6543991Y-14157222D02*
X6543991Y-14176269D01*
X6543991Y-14176269D02*
X6448753Y-14195317D01*
X6620182Y-14252460D02*
X6639230Y-14261984D01*
X6639230Y-14261984D02*
X6677325Y-14261984D01*
X6677325Y-14261984D02*
X6696372Y-14252460D01*
X6696372Y-14252460D02*
X6705896Y-14233412D01*
X6705896Y-14233412D02*
X6705896Y-14223888D01*
X6705896Y-14223888D02*
X6696372Y-14204841D01*
X6696372Y-14204841D02*
X6677325Y-14195317D01*
X6677325Y-14195317D02*
X6648753Y-14195317D01*
X6648753Y-14195317D02*
X6629706Y-14185793D01*
X6629706Y-14185793D02*
X6620182Y-14166746D01*
X6620182Y-14166746D02*
X6620182Y-14157222D01*
X6620182Y-14157222D02*
X6629706Y-14138174D01*
X6629706Y-14138174D02*
X6648753Y-14128650D01*
X6648753Y-14128650D02*
X6677325Y-14128650D01*
X6677325Y-14128650D02*
X6696372Y-14138174D01*
X6772563Y-14338174D02*
X6782087Y-14328650D01*
X6782087Y-14328650D02*
X6801134Y-14300079D01*
X6801134Y-14300079D02*
X6810658Y-14281031D01*
X6810658Y-14281031D02*
X6820182Y-14252460D01*
X6820182Y-14252460D02*
X6829706Y-14204841D01*
X6829706Y-14204841D02*
X6829706Y-14166746D01*
X6829706Y-14166746D02*
X6820182Y-14119127D01*
X6820182Y-14119127D02*
X6810658Y-14090555D01*
X6810658Y-14090555D02*
X6801134Y-14071508D01*
X6801134Y-14071508D02*
X6782087Y-14042936D01*
X6782087Y-14042936D02*
X6772563Y-14033412D01*
D12*
X1982856Y-14469856D02*
X1982856Y-14399144D01*
X1912144Y-14399144D01*
X1912144Y-14469856D01*
X1982856Y-14469856D01*
D11*
X2363039Y-14525984D02*
X2248753Y-14525984D01*
X2305896Y-14525984D02*
X2305896Y-14325984D01*
X2305896Y-14325984D02*
X2286848Y-14354555D01*
X2286848Y-14354555D02*
X2267801Y-14373603D01*
X2267801Y-14373603D02*
X2248753Y-14383127D01*
X2448753Y-14506936D02*
X2458277Y-14516460D01*
X2458277Y-14516460D02*
X2448753Y-14525984D01*
X2448753Y-14525984D02*
X2439229Y-14516460D01*
X2439229Y-14516460D02*
X2448753Y-14506936D01*
X2448753Y-14506936D02*
X2448753Y-14525984D01*
X2582086Y-14325984D02*
X2601134Y-14325984D01*
X2601134Y-14325984D02*
X2620182Y-14335508D01*
X2620182Y-14335508D02*
X2629705Y-14345031D01*
X2629705Y-14345031D02*
X2639229Y-14364079D01*
X2639229Y-14364079D02*
X2648753Y-14402174D01*
X2648753Y-14402174D02*
X2648753Y-14449793D01*
X2648753Y-14449793D02*
X2639229Y-14487888D01*
X2639229Y-14487888D02*
X2629705Y-14506936D01*
X2629705Y-14506936D02*
X2620182Y-14516460D01*
X2620182Y-14516460D02*
X2601134Y-14525984D01*
X2601134Y-14525984D02*
X2582086Y-14525984D01*
X2582086Y-14525984D02*
X2563039Y-14516460D01*
X2563039Y-14516460D02*
X2553515Y-14506936D01*
X2553515Y-14506936D02*
X2543991Y-14487888D01*
X2543991Y-14487888D02*
X2534467Y-14449793D01*
X2534467Y-14449793D02*
X2534467Y-14402174D01*
X2534467Y-14402174D02*
X2543991Y-14364079D01*
X2543991Y-14364079D02*
X2553515Y-14345031D01*
X2553515Y-14345031D02*
X2563039Y-14335508D01*
X2563039Y-14335508D02*
X2582086Y-14325984D01*
X2772563Y-14325984D02*
X2791610Y-14325984D01*
X2791610Y-14325984D02*
X2810658Y-14335508D01*
X2810658Y-14335508D02*
X2820182Y-14345031D01*
X2820182Y-14345031D02*
X2829705Y-14364079D01*
X2829705Y-14364079D02*
X2839229Y-14402174D01*
X2839229Y-14402174D02*
X2839229Y-14449793D01*
X2839229Y-14449793D02*
X2829705Y-14487888D01*
X2829705Y-14487888D02*
X2820182Y-14506936D01*
X2820182Y-14506936D02*
X2810658Y-14516460D01*
X2810658Y-14516460D02*
X2791610Y-14525984D01*
X2791610Y-14525984D02*
X2772563Y-14525984D01*
X2772563Y-14525984D02*
X2753515Y-14516460D01*
X2753515Y-14516460D02*
X2743991Y-14506936D01*
X2743991Y-14506936D02*
X2734467Y-14487888D01*
X2734467Y-14487888D02*
X2724944Y-14449793D01*
X2724944Y-14449793D02*
X2724944Y-14402174D01*
X2724944Y-14402174D02*
X2734467Y-14364079D01*
X2734467Y-14364079D02*
X2743991Y-14345031D01*
X2743991Y-14345031D02*
X2753515Y-14335508D01*
X2753515Y-14335508D02*
X2772563Y-14325984D01*
X2963039Y-14325984D02*
X2982086Y-14325984D01*
X2982086Y-14325984D02*
X3001134Y-14335508D01*
X3001134Y-14335508D02*
X3010658Y-14345031D01*
X3010658Y-14345031D02*
X3020182Y-14364079D01*
X3020182Y-14364079D02*
X3029705Y-14402174D01*
X3029705Y-14402174D02*
X3029705Y-14449793D01*
X3029705Y-14449793D02*
X3020182Y-14487888D01*
X3020182Y-14487888D02*
X3010658Y-14506936D01*
X3010658Y-14506936D02*
X3001134Y-14516460D01*
X3001134Y-14516460D02*
X2982086Y-14525984D01*
X2982086Y-14525984D02*
X2963039Y-14525984D01*
X2963039Y-14525984D02*
X2943991Y-14516460D01*
X2943991Y-14516460D02*
X2934467Y-14506936D01*
X2934467Y-14506936D02*
X2924943Y-14487888D01*
X2924943Y-14487888D02*
X2915420Y-14449793D01*
X2915420Y-14449793D02*
X2915420Y-14402174D01*
X2915420Y-14402174D02*
X2924943Y-14364079D01*
X2924943Y-14364079D02*
X2934467Y-14345031D01*
X2934467Y-14345031D02*
X2943991Y-14335508D01*
X2943991Y-14335508D02*
X2963039Y-14325984D01*
X3115420Y-14525984D02*
X3115420Y-14392650D01*
X3115420Y-14411698D02*
X3124943Y-14402174D01*
X3124943Y-14402174D02*
X3143991Y-14392650D01*
X3143991Y-14392650D02*
X3172563Y-14392650D01*
X3172563Y-14392650D02*
X3191610Y-14402174D01*
X3191610Y-14402174D02*
X3201134Y-14421222D01*
X3201134Y-14421222D02*
X3201134Y-14525984D01*
X3201134Y-14421222D02*
X3210658Y-14402174D01*
X3210658Y-14402174D02*
X3229705Y-14392650D01*
X3229705Y-14392650D02*
X3258277Y-14392650D01*
X3258277Y-14392650D02*
X3277324Y-14402174D01*
X3277324Y-14402174D02*
X3286848Y-14421222D01*
X3286848Y-14421222D02*
X3286848Y-14525984D01*
X3382086Y-14525984D02*
X3382086Y-14392650D01*
X3382086Y-14411698D02*
X3391610Y-14402174D01*
X3391610Y-14402174D02*
X3410658Y-14392650D01*
X3410658Y-14392650D02*
X3439229Y-14392650D01*
X3439229Y-14392650D02*
X3458277Y-14402174D01*
X3458277Y-14402174D02*
X3467801Y-14421222D01*
X3467801Y-14421222D02*
X3467801Y-14525984D01*
X3467801Y-14421222D02*
X3477324Y-14402174D01*
X3477324Y-14402174D02*
X3496372Y-14392650D01*
X3496372Y-14392650D02*
X3524943Y-14392650D01*
X3524943Y-14392650D02*
X3543991Y-14402174D01*
X3543991Y-14402174D02*
X3553515Y-14421222D01*
X3553515Y-14421222D02*
X3553515Y-14525984D01*
X3943991Y-14316460D02*
X3772563Y-14573603D01*
X4201134Y-14325984D02*
X4220182Y-14325984D01*
X4220182Y-14325984D02*
X4239229Y-14335508D01*
X4239229Y-14335508D02*
X4248753Y-14345031D01*
X4248753Y-14345031D02*
X4258277Y-14364079D01*
X4258277Y-14364079D02*
X4267801Y-14402174D01*
X4267801Y-14402174D02*
X4267801Y-14449793D01*
X4267801Y-14449793D02*
X4258277Y-14487888D01*
X4258277Y-14487888D02*
X4248753Y-14506936D01*
X4248753Y-14506936D02*
X4239229Y-14516460D01*
X4239229Y-14516460D02*
X4220182Y-14525984D01*
X4220182Y-14525984D02*
X4201134Y-14525984D01*
X4201134Y-14525984D02*
X4182086Y-14516460D01*
X4182086Y-14516460D02*
X4172563Y-14506936D01*
X4172563Y-14506936D02*
X4163039Y-14487888D01*
X4163039Y-14487888D02*
X4153515Y-14449793D01*
X4153515Y-14449793D02*
X4153515Y-14402174D01*
X4153515Y-14402174D02*
X4163039Y-14364079D01*
X4163039Y-14364079D02*
X4172563Y-14345031D01*
X4172563Y-14345031D02*
X4182086Y-14335508D01*
X4182086Y-14335508D02*
X4201134Y-14325984D01*
X4353515Y-14506936D02*
X4363039Y-14516460D01*
X4363039Y-14516460D02*
X4353515Y-14525984D01*
X4353515Y-14525984D02*
X4343991Y-14516460D01*
X4343991Y-14516460D02*
X4353515Y-14506936D01*
X4353515Y-14506936D02*
X4353515Y-14525984D01*
X4486848Y-14325984D02*
X4505896Y-14325984D01*
X4505896Y-14325984D02*
X4524944Y-14335508D01*
X4524944Y-14335508D02*
X4534468Y-14345031D01*
X4534468Y-14345031D02*
X4543991Y-14364079D01*
X4543991Y-14364079D02*
X4553515Y-14402174D01*
X4553515Y-14402174D02*
X4553515Y-14449793D01*
X4553515Y-14449793D02*
X4543991Y-14487888D01*
X4543991Y-14487888D02*
X4534468Y-14506936D01*
X4534468Y-14506936D02*
X4524944Y-14516460D01*
X4524944Y-14516460D02*
X4505896Y-14525984D01*
X4505896Y-14525984D02*
X4486848Y-14525984D01*
X4486848Y-14525984D02*
X4467801Y-14516460D01*
X4467801Y-14516460D02*
X4458277Y-14506936D01*
X4458277Y-14506936D02*
X4448753Y-14487888D01*
X4448753Y-14487888D02*
X4439229Y-14449793D01*
X4439229Y-14449793D02*
X4439229Y-14402174D01*
X4439229Y-14402174D02*
X4448753Y-14364079D01*
X4448753Y-14364079D02*
X4458277Y-14345031D01*
X4458277Y-14345031D02*
X4467801Y-14335508D01*
X4467801Y-14335508D02*
X4486848Y-14325984D01*
X4620182Y-14325984D02*
X4743991Y-14325984D01*
X4743991Y-14325984D02*
X4677325Y-14402174D01*
X4677325Y-14402174D02*
X4705896Y-14402174D01*
X4705896Y-14402174D02*
X4724944Y-14411698D01*
X4724944Y-14411698D02*
X4734468Y-14421222D01*
X4734468Y-14421222D02*
X4743991Y-14440269D01*
X4743991Y-14440269D02*
X4743991Y-14487888D01*
X4743991Y-14487888D02*
X4734468Y-14506936D01*
X4734468Y-14506936D02*
X4724944Y-14516460D01*
X4724944Y-14516460D02*
X4705896Y-14525984D01*
X4705896Y-14525984D02*
X4648753Y-14525984D01*
X4648753Y-14525984D02*
X4629706Y-14516460D01*
X4629706Y-14516460D02*
X4620182Y-14506936D01*
X4839229Y-14525984D02*
X4877325Y-14525984D01*
X4877325Y-14525984D02*
X4896372Y-14516460D01*
X4896372Y-14516460D02*
X4905896Y-14506936D01*
X4905896Y-14506936D02*
X4924944Y-14478365D01*
X4924944Y-14478365D02*
X4934468Y-14440269D01*
X4934468Y-14440269D02*
X4934468Y-14364079D01*
X4934468Y-14364079D02*
X4924944Y-14345031D01*
X4924944Y-14345031D02*
X4915420Y-14335508D01*
X4915420Y-14335508D02*
X4896372Y-14325984D01*
X4896372Y-14325984D02*
X4858277Y-14325984D01*
X4858277Y-14325984D02*
X4839229Y-14335508D01*
X4839229Y-14335508D02*
X4829706Y-14345031D01*
X4829706Y-14345031D02*
X4820182Y-14364079D01*
X4820182Y-14364079D02*
X4820182Y-14411698D01*
X4820182Y-14411698D02*
X4829706Y-14430746D01*
X4829706Y-14430746D02*
X4839229Y-14440269D01*
X4839229Y-14440269D02*
X4858277Y-14449793D01*
X4858277Y-14449793D02*
X4896372Y-14449793D01*
X4896372Y-14449793D02*
X4915420Y-14440269D01*
X4915420Y-14440269D02*
X4924944Y-14430746D01*
X4924944Y-14430746D02*
X4934468Y-14411698D01*
X5105896Y-14392650D02*
X5105896Y-14525984D01*
X5058277Y-14316460D02*
X5010658Y-14459317D01*
X5010658Y-14459317D02*
X5134468Y-14459317D01*
X5201134Y-14325984D02*
X5201134Y-14364079D01*
X5277325Y-14325984D02*
X5277325Y-14364079D01*
X5572563Y-14602174D02*
X5563039Y-14592650D01*
X5563039Y-14592650D02*
X5543991Y-14564079D01*
X5543991Y-14564079D02*
X5534468Y-14545031D01*
X5534468Y-14545031D02*
X5524944Y-14516460D01*
X5524944Y-14516460D02*
X5515420Y-14468841D01*
X5515420Y-14468841D02*
X5515420Y-14430746D01*
X5515420Y-14430746D02*
X5524944Y-14383127D01*
X5524944Y-14383127D02*
X5534468Y-14354555D01*
X5534468Y-14354555D02*
X5543991Y-14335508D01*
X5543991Y-14335508D02*
X5563039Y-14306936D01*
X5563039Y-14306936D02*
X5572563Y-14297412D01*
X5753515Y-14525984D02*
X5639229Y-14525984D01*
X5696372Y-14525984D02*
X5696372Y-14325984D01*
X5696372Y-14325984D02*
X5677325Y-14354555D01*
X5677325Y-14354555D02*
X5658277Y-14373603D01*
X5658277Y-14373603D02*
X5639229Y-14383127D01*
X5877325Y-14325984D02*
X5896372Y-14325984D01*
X5896372Y-14325984D02*
X5915420Y-14335508D01*
X5915420Y-14335508D02*
X5924944Y-14345031D01*
X5924944Y-14345031D02*
X5934468Y-14364079D01*
X5934468Y-14364079D02*
X5943991Y-14402174D01*
X5943991Y-14402174D02*
X5943991Y-14449793D01*
X5943991Y-14449793D02*
X5934468Y-14487888D01*
X5934468Y-14487888D02*
X5924944Y-14506936D01*
X5924944Y-14506936D02*
X5915420Y-14516460D01*
X5915420Y-14516460D02*
X5896372Y-14525984D01*
X5896372Y-14525984D02*
X5877325Y-14525984D01*
X5877325Y-14525984D02*
X5858277Y-14516460D01*
X5858277Y-14516460D02*
X5848753Y-14506936D01*
X5848753Y-14506936D02*
X5839229Y-14487888D01*
X5839229Y-14487888D02*
X5829706Y-14449793D01*
X5829706Y-14449793D02*
X5829706Y-14402174D01*
X5829706Y-14402174D02*
X5839229Y-14364079D01*
X5839229Y-14364079D02*
X5848753Y-14345031D01*
X5848753Y-14345031D02*
X5858277Y-14335508D01*
X5858277Y-14335508D02*
X5877325Y-14325984D01*
X6010658Y-14325984D02*
X6143991Y-14325984D01*
X6143991Y-14325984D02*
X6058277Y-14525984D01*
X6372563Y-14525984D02*
X6372563Y-14325984D01*
X6458277Y-14525984D02*
X6458277Y-14421222D01*
X6458277Y-14421222D02*
X6448753Y-14402174D01*
X6448753Y-14402174D02*
X6429706Y-14392650D01*
X6429706Y-14392650D02*
X6401134Y-14392650D01*
X6401134Y-14392650D02*
X6382087Y-14402174D01*
X6382087Y-14402174D02*
X6372563Y-14411698D01*
X6582087Y-14525984D02*
X6563039Y-14516460D01*
X6563039Y-14516460D02*
X6553515Y-14506936D01*
X6553515Y-14506936D02*
X6543991Y-14487888D01*
X6543991Y-14487888D02*
X6543991Y-14430746D01*
X6543991Y-14430746D02*
X6553515Y-14411698D01*
X6553515Y-14411698D02*
X6563039Y-14402174D01*
X6563039Y-14402174D02*
X6582087Y-14392650D01*
X6582087Y-14392650D02*
X6610658Y-14392650D01*
X6610658Y-14392650D02*
X6629706Y-14402174D01*
X6629706Y-14402174D02*
X6639230Y-14411698D01*
X6639230Y-14411698D02*
X6648753Y-14430746D01*
X6648753Y-14430746D02*
X6648753Y-14487888D01*
X6648753Y-14487888D02*
X6639230Y-14506936D01*
X6639230Y-14506936D02*
X6629706Y-14516460D01*
X6629706Y-14516460D02*
X6610658Y-14525984D01*
X6610658Y-14525984D02*
X6582087Y-14525984D01*
X6763039Y-14525984D02*
X6743991Y-14516460D01*
X6743991Y-14516460D02*
X6734468Y-14497412D01*
X6734468Y-14497412D02*
X6734468Y-14325984D01*
X6915420Y-14516460D02*
X6896372Y-14525984D01*
X6896372Y-14525984D02*
X6858277Y-14525984D01*
X6858277Y-14525984D02*
X6839230Y-14516460D01*
X6839230Y-14516460D02*
X6829706Y-14497412D01*
X6829706Y-14497412D02*
X6829706Y-14421222D01*
X6829706Y-14421222D02*
X6839230Y-14402174D01*
X6839230Y-14402174D02*
X6858277Y-14392650D01*
X6858277Y-14392650D02*
X6896372Y-14392650D01*
X6896372Y-14392650D02*
X6915420Y-14402174D01*
X6915420Y-14402174D02*
X6924944Y-14421222D01*
X6924944Y-14421222D02*
X6924944Y-14440269D01*
X6924944Y-14440269D02*
X6829706Y-14459317D01*
X7001134Y-14516460D02*
X7020182Y-14525984D01*
X7020182Y-14525984D02*
X7058277Y-14525984D01*
X7058277Y-14525984D02*
X7077325Y-14516460D01*
X7077325Y-14516460D02*
X7086849Y-14497412D01*
X7086849Y-14497412D02*
X7086849Y-14487888D01*
X7086849Y-14487888D02*
X7077325Y-14468841D01*
X7077325Y-14468841D02*
X7058277Y-14459317D01*
X7058277Y-14459317D02*
X7029706Y-14459317D01*
X7029706Y-14459317D02*
X7010658Y-14449793D01*
X7010658Y-14449793D02*
X7001134Y-14430746D01*
X7001134Y-14430746D02*
X7001134Y-14421222D01*
X7001134Y-14421222D02*
X7010658Y-14402174D01*
X7010658Y-14402174D02*
X7029706Y-14392650D01*
X7029706Y-14392650D02*
X7058277Y-14392650D01*
X7058277Y-14392650D02*
X7077325Y-14402174D01*
X7324944Y-14449793D02*
X7477325Y-14449793D01*
X7401134Y-14525984D02*
X7401134Y-14373603D01*
X7810658Y-14325984D02*
X7772563Y-14325984D01*
X7772563Y-14325984D02*
X7753515Y-14335508D01*
X7753515Y-14335508D02*
X7743992Y-14345031D01*
X7743992Y-14345031D02*
X7724944Y-14373603D01*
X7724944Y-14373603D02*
X7715420Y-14411698D01*
X7715420Y-14411698D02*
X7715420Y-14487888D01*
X7715420Y-14487888D02*
X7724944Y-14506936D01*
X7724944Y-14506936D02*
X7734468Y-14516460D01*
X7734468Y-14516460D02*
X7753515Y-14525984D01*
X7753515Y-14525984D02*
X7791611Y-14525984D01*
X7791611Y-14525984D02*
X7810658Y-14516460D01*
X7810658Y-14516460D02*
X7820182Y-14506936D01*
X7820182Y-14506936D02*
X7829706Y-14487888D01*
X7829706Y-14487888D02*
X7829706Y-14440269D01*
X7829706Y-14440269D02*
X7820182Y-14421222D01*
X7820182Y-14421222D02*
X7810658Y-14411698D01*
X7810658Y-14411698D02*
X7791611Y-14402174D01*
X7791611Y-14402174D02*
X7753515Y-14402174D01*
X7753515Y-14402174D02*
X7734468Y-14411698D01*
X7734468Y-14411698D02*
X7724944Y-14421222D01*
X7724944Y-14421222D02*
X7715420Y-14440269D01*
X8058277Y-14516460D02*
X8077325Y-14525984D01*
X8077325Y-14525984D02*
X8115420Y-14525984D01*
X8115420Y-14525984D02*
X8134468Y-14516460D01*
X8134468Y-14516460D02*
X8143992Y-14497412D01*
X8143992Y-14497412D02*
X8143992Y-14487888D01*
X8143992Y-14487888D02*
X8134468Y-14468841D01*
X8134468Y-14468841D02*
X8115420Y-14459317D01*
X8115420Y-14459317D02*
X8086849Y-14459317D01*
X8086849Y-14459317D02*
X8067801Y-14449793D01*
X8067801Y-14449793D02*
X8058277Y-14430746D01*
X8058277Y-14430746D02*
X8058277Y-14421222D01*
X8058277Y-14421222D02*
X8067801Y-14402174D01*
X8067801Y-14402174D02*
X8086849Y-14392650D01*
X8086849Y-14392650D02*
X8115420Y-14392650D01*
X8115420Y-14392650D02*
X8134468Y-14402174D01*
X8258277Y-14525984D02*
X8239230Y-14516460D01*
X8239230Y-14516460D02*
X8229706Y-14497412D01*
X8229706Y-14497412D02*
X8229706Y-14325984D01*
X8363039Y-14525984D02*
X8343992Y-14516460D01*
X8343992Y-14516460D02*
X8334468Y-14506936D01*
X8334468Y-14506936D02*
X8324944Y-14487888D01*
X8324944Y-14487888D02*
X8324944Y-14430746D01*
X8324944Y-14430746D02*
X8334468Y-14411698D01*
X8334468Y-14411698D02*
X8343992Y-14402174D01*
X8343992Y-14402174D02*
X8363039Y-14392650D01*
X8363039Y-14392650D02*
X8391611Y-14392650D01*
X8391611Y-14392650D02*
X8410658Y-14402174D01*
X8410658Y-14402174D02*
X8420182Y-14411698D01*
X8420182Y-14411698D02*
X8429706Y-14430746D01*
X8429706Y-14430746D02*
X8429706Y-14487888D01*
X8429706Y-14487888D02*
X8420182Y-14506936D01*
X8420182Y-14506936D02*
X8410658Y-14516460D01*
X8410658Y-14516460D02*
X8391611Y-14525984D01*
X8391611Y-14525984D02*
X8363039Y-14525984D01*
X8486849Y-14392650D02*
X8563039Y-14392650D01*
X8515420Y-14325984D02*
X8515420Y-14497412D01*
X8515420Y-14497412D02*
X8524944Y-14516460D01*
X8524944Y-14516460D02*
X8543992Y-14525984D01*
X8543992Y-14525984D02*
X8563039Y-14525984D01*
X8620182Y-14516460D02*
X8639230Y-14525984D01*
X8639230Y-14525984D02*
X8677325Y-14525984D01*
X8677325Y-14525984D02*
X8696373Y-14516460D01*
X8696373Y-14516460D02*
X8705897Y-14497412D01*
X8705897Y-14497412D02*
X8705897Y-14487888D01*
X8705897Y-14487888D02*
X8696373Y-14468841D01*
X8696373Y-14468841D02*
X8677325Y-14459317D01*
X8677325Y-14459317D02*
X8648754Y-14459317D01*
X8648754Y-14459317D02*
X8629706Y-14449793D01*
X8629706Y-14449793D02*
X8620182Y-14430746D01*
X8620182Y-14430746D02*
X8620182Y-14421222D01*
X8620182Y-14421222D02*
X8629706Y-14402174D01*
X8629706Y-14402174D02*
X8648754Y-14392650D01*
X8648754Y-14392650D02*
X8677325Y-14392650D01*
X8677325Y-14392650D02*
X8696373Y-14402174D01*
X8772563Y-14602174D02*
X8782087Y-14592650D01*
X8782087Y-14592650D02*
X8801135Y-14564079D01*
X8801135Y-14564079D02*
X8810658Y-14545031D01*
X8810658Y-14545031D02*
X8820182Y-14516460D01*
X8820182Y-14516460D02*
X8829706Y-14468841D01*
X8829706Y-14468841D02*
X8829706Y-14430746D01*
X8829706Y-14430746D02*
X8820182Y-14383127D01*
X8820182Y-14383127D02*
X8810658Y-14354555D01*
X8810658Y-14354555D02*
X8801135Y-14335508D01*
X8801135Y-14335508D02*
X8782087Y-14306936D01*
X8782087Y-14306936D02*
X8772563Y-14297412D01*
D13*
X1932500Y-14763500D02*
X1997500Y-14698500D01*
X1932500Y-14633500D01*
X1867500Y-14698500D01*
X1932500Y-14763500D01*
D11*
X2363039Y-14789984D02*
X2248753Y-14789984D01*
X2305896Y-14789984D02*
X2305896Y-14589984D01*
X2305896Y-14589984D02*
X2286848Y-14618555D01*
X2286848Y-14618555D02*
X2267801Y-14637603D01*
X2267801Y-14637603D02*
X2248753Y-14647127D01*
X2448753Y-14770936D02*
X2458277Y-14780460D01*
X2458277Y-14780460D02*
X2448753Y-14789984D01*
X2448753Y-14789984D02*
X2439229Y-14780460D01*
X2439229Y-14780460D02*
X2448753Y-14770936D01*
X2448753Y-14770936D02*
X2448753Y-14789984D01*
X2524944Y-14589984D02*
X2648753Y-14589984D01*
X2648753Y-14589984D02*
X2582086Y-14666174D01*
X2582086Y-14666174D02*
X2610658Y-14666174D01*
X2610658Y-14666174D02*
X2629705Y-14675698D01*
X2629705Y-14675698D02*
X2639229Y-14685222D01*
X2639229Y-14685222D02*
X2648753Y-14704269D01*
X2648753Y-14704269D02*
X2648753Y-14751888D01*
X2648753Y-14751888D02*
X2639229Y-14770936D01*
X2639229Y-14770936D02*
X2629705Y-14780460D01*
X2629705Y-14780460D02*
X2610658Y-14789984D01*
X2610658Y-14789984D02*
X2553515Y-14789984D01*
X2553515Y-14789984D02*
X2534467Y-14780460D01*
X2534467Y-14780460D02*
X2524944Y-14770936D01*
X2772563Y-14589984D02*
X2791610Y-14589984D01*
X2791610Y-14589984D02*
X2810658Y-14599508D01*
X2810658Y-14599508D02*
X2820182Y-14609031D01*
X2820182Y-14609031D02*
X2829705Y-14628079D01*
X2829705Y-14628079D02*
X2839229Y-14666174D01*
X2839229Y-14666174D02*
X2839229Y-14713793D01*
X2839229Y-14713793D02*
X2829705Y-14751888D01*
X2829705Y-14751888D02*
X2820182Y-14770936D01*
X2820182Y-14770936D02*
X2810658Y-14780460D01*
X2810658Y-14780460D02*
X2791610Y-14789984D01*
X2791610Y-14789984D02*
X2772563Y-14789984D01*
X2772563Y-14789984D02*
X2753515Y-14780460D01*
X2753515Y-14780460D02*
X2743991Y-14770936D01*
X2743991Y-14770936D02*
X2734467Y-14751888D01*
X2734467Y-14751888D02*
X2724944Y-14713793D01*
X2724944Y-14713793D02*
X2724944Y-14666174D01*
X2724944Y-14666174D02*
X2734467Y-14628079D01*
X2734467Y-14628079D02*
X2743991Y-14609031D01*
X2743991Y-14609031D02*
X2753515Y-14599508D01*
X2753515Y-14599508D02*
X2772563Y-14589984D01*
X2963039Y-14589984D02*
X2982086Y-14589984D01*
X2982086Y-14589984D02*
X3001134Y-14599508D01*
X3001134Y-14599508D02*
X3010658Y-14609031D01*
X3010658Y-14609031D02*
X3020182Y-14628079D01*
X3020182Y-14628079D02*
X3029705Y-14666174D01*
X3029705Y-14666174D02*
X3029705Y-14713793D01*
X3029705Y-14713793D02*
X3020182Y-14751888D01*
X3020182Y-14751888D02*
X3010658Y-14770936D01*
X3010658Y-14770936D02*
X3001134Y-14780460D01*
X3001134Y-14780460D02*
X2982086Y-14789984D01*
X2982086Y-14789984D02*
X2963039Y-14789984D01*
X2963039Y-14789984D02*
X2943991Y-14780460D01*
X2943991Y-14780460D02*
X2934467Y-14770936D01*
X2934467Y-14770936D02*
X2924943Y-14751888D01*
X2924943Y-14751888D02*
X2915420Y-14713793D01*
X2915420Y-14713793D02*
X2915420Y-14666174D01*
X2915420Y-14666174D02*
X2924943Y-14628079D01*
X2924943Y-14628079D02*
X2934467Y-14609031D01*
X2934467Y-14609031D02*
X2943991Y-14599508D01*
X2943991Y-14599508D02*
X2963039Y-14589984D01*
X3115420Y-14789984D02*
X3115420Y-14656650D01*
X3115420Y-14675698D02*
X3124943Y-14666174D01*
X3124943Y-14666174D02*
X3143991Y-14656650D01*
X3143991Y-14656650D02*
X3172563Y-14656650D01*
X3172563Y-14656650D02*
X3191610Y-14666174D01*
X3191610Y-14666174D02*
X3201134Y-14685222D01*
X3201134Y-14685222D02*
X3201134Y-14789984D01*
X3201134Y-14685222D02*
X3210658Y-14666174D01*
X3210658Y-14666174D02*
X3229705Y-14656650D01*
X3229705Y-14656650D02*
X3258277Y-14656650D01*
X3258277Y-14656650D02*
X3277324Y-14666174D01*
X3277324Y-14666174D02*
X3286848Y-14685222D01*
X3286848Y-14685222D02*
X3286848Y-14789984D01*
X3382086Y-14789984D02*
X3382086Y-14656650D01*
X3382086Y-14675698D02*
X3391610Y-14666174D01*
X3391610Y-14666174D02*
X3410658Y-14656650D01*
X3410658Y-14656650D02*
X3439229Y-14656650D01*
X3439229Y-14656650D02*
X3458277Y-14666174D01*
X3458277Y-14666174D02*
X3467801Y-14685222D01*
X3467801Y-14685222D02*
X3467801Y-14789984D01*
X3467801Y-14685222D02*
X3477324Y-14666174D01*
X3477324Y-14666174D02*
X3496372Y-14656650D01*
X3496372Y-14656650D02*
X3524943Y-14656650D01*
X3524943Y-14656650D02*
X3543991Y-14666174D01*
X3543991Y-14666174D02*
X3553515Y-14685222D01*
X3553515Y-14685222D02*
X3553515Y-14789984D01*
X3943991Y-14580460D02*
X3772563Y-14837603D01*
X4201134Y-14589984D02*
X4220182Y-14589984D01*
X4220182Y-14589984D02*
X4239229Y-14599508D01*
X4239229Y-14599508D02*
X4248753Y-14609031D01*
X4248753Y-14609031D02*
X4258277Y-14628079D01*
X4258277Y-14628079D02*
X4267801Y-14666174D01*
X4267801Y-14666174D02*
X4267801Y-14713793D01*
X4267801Y-14713793D02*
X4258277Y-14751888D01*
X4258277Y-14751888D02*
X4248753Y-14770936D01*
X4248753Y-14770936D02*
X4239229Y-14780460D01*
X4239229Y-14780460D02*
X4220182Y-14789984D01*
X4220182Y-14789984D02*
X4201134Y-14789984D01*
X4201134Y-14789984D02*
X4182086Y-14780460D01*
X4182086Y-14780460D02*
X4172563Y-14770936D01*
X4172563Y-14770936D02*
X4163039Y-14751888D01*
X4163039Y-14751888D02*
X4153515Y-14713793D01*
X4153515Y-14713793D02*
X4153515Y-14666174D01*
X4153515Y-14666174D02*
X4163039Y-14628079D01*
X4163039Y-14628079D02*
X4172563Y-14609031D01*
X4172563Y-14609031D02*
X4182086Y-14599508D01*
X4182086Y-14599508D02*
X4201134Y-14589984D01*
X4353515Y-14770936D02*
X4363039Y-14780460D01*
X4363039Y-14780460D02*
X4353515Y-14789984D01*
X4353515Y-14789984D02*
X4343991Y-14780460D01*
X4343991Y-14780460D02*
X4353515Y-14770936D01*
X4353515Y-14770936D02*
X4353515Y-14789984D01*
X4486848Y-14589984D02*
X4505896Y-14589984D01*
X4505896Y-14589984D02*
X4524944Y-14599508D01*
X4524944Y-14599508D02*
X4534468Y-14609031D01*
X4534468Y-14609031D02*
X4543991Y-14628079D01*
X4543991Y-14628079D02*
X4553515Y-14666174D01*
X4553515Y-14666174D02*
X4553515Y-14713793D01*
X4553515Y-14713793D02*
X4543991Y-14751888D01*
X4543991Y-14751888D02*
X4534468Y-14770936D01*
X4534468Y-14770936D02*
X4524944Y-14780460D01*
X4524944Y-14780460D02*
X4505896Y-14789984D01*
X4505896Y-14789984D02*
X4486848Y-14789984D01*
X4486848Y-14789984D02*
X4467801Y-14780460D01*
X4467801Y-14780460D02*
X4458277Y-14770936D01*
X4458277Y-14770936D02*
X4448753Y-14751888D01*
X4448753Y-14751888D02*
X4439229Y-14713793D01*
X4439229Y-14713793D02*
X4439229Y-14666174D01*
X4439229Y-14666174D02*
X4448753Y-14628079D01*
X4448753Y-14628079D02*
X4458277Y-14609031D01*
X4458277Y-14609031D02*
X4467801Y-14599508D01*
X4467801Y-14599508D02*
X4486848Y-14589984D01*
X4734468Y-14589984D02*
X4639229Y-14589984D01*
X4639229Y-14589984D02*
X4629706Y-14685222D01*
X4629706Y-14685222D02*
X4639229Y-14675698D01*
X4639229Y-14675698D02*
X4658277Y-14666174D01*
X4658277Y-14666174D02*
X4705896Y-14666174D01*
X4705896Y-14666174D02*
X4724944Y-14675698D01*
X4724944Y-14675698D02*
X4734468Y-14685222D01*
X4734468Y-14685222D02*
X4743991Y-14704269D01*
X4743991Y-14704269D02*
X4743991Y-14751888D01*
X4743991Y-14751888D02*
X4734468Y-14770936D01*
X4734468Y-14770936D02*
X4724944Y-14780460D01*
X4724944Y-14780460D02*
X4705896Y-14789984D01*
X4705896Y-14789984D02*
X4658277Y-14789984D01*
X4658277Y-14789984D02*
X4639229Y-14780460D01*
X4639229Y-14780460D02*
X4629706Y-14770936D01*
X4934468Y-14789984D02*
X4820182Y-14789984D01*
X4877325Y-14789984D02*
X4877325Y-14589984D01*
X4877325Y-14589984D02*
X4858277Y-14618555D01*
X4858277Y-14618555D02*
X4839229Y-14637603D01*
X4839229Y-14637603D02*
X4820182Y-14647127D01*
X5010658Y-14609031D02*
X5020182Y-14599508D01*
X5020182Y-14599508D02*
X5039229Y-14589984D01*
X5039229Y-14589984D02*
X5086849Y-14589984D01*
X5086849Y-14589984D02*
X5105896Y-14599508D01*
X5105896Y-14599508D02*
X5115420Y-14609031D01*
X5115420Y-14609031D02*
X5124944Y-14628079D01*
X5124944Y-14628079D02*
X5124944Y-14647127D01*
X5124944Y-14647127D02*
X5115420Y-14675698D01*
X5115420Y-14675698D02*
X5001134Y-14789984D01*
X5001134Y-14789984D02*
X5124944Y-14789984D01*
X5201134Y-14589984D02*
X5201134Y-14628079D01*
X5277325Y-14589984D02*
X5277325Y-14628079D01*
X5572563Y-14866174D02*
X5563039Y-14856650D01*
X5563039Y-14856650D02*
X5543991Y-14828079D01*
X5543991Y-14828079D02*
X5534468Y-14809031D01*
X5534468Y-14809031D02*
X5524944Y-14780460D01*
X5524944Y-14780460D02*
X5515420Y-14732841D01*
X5515420Y-14732841D02*
X5515420Y-14694746D01*
X5515420Y-14694746D02*
X5524944Y-14647127D01*
X5524944Y-14647127D02*
X5534468Y-14618555D01*
X5534468Y-14618555D02*
X5543991Y-14599508D01*
X5543991Y-14599508D02*
X5563039Y-14570936D01*
X5563039Y-14570936D02*
X5572563Y-14561412D01*
X5639229Y-14609031D02*
X5648753Y-14599508D01*
X5648753Y-14599508D02*
X5667801Y-14589984D01*
X5667801Y-14589984D02*
X5715420Y-14589984D01*
X5715420Y-14589984D02*
X5734468Y-14599508D01*
X5734468Y-14599508D02*
X5743991Y-14609031D01*
X5743991Y-14609031D02*
X5753515Y-14628079D01*
X5753515Y-14628079D02*
X5753515Y-14647127D01*
X5753515Y-14647127D02*
X5743991Y-14675698D01*
X5743991Y-14675698D02*
X5629706Y-14789984D01*
X5629706Y-14789984D02*
X5753515Y-14789984D01*
X5924944Y-14656650D02*
X5924944Y-14789984D01*
X5877325Y-14580460D02*
X5829706Y-14723317D01*
X5829706Y-14723317D02*
X5953515Y-14723317D01*
X6182087Y-14789984D02*
X6182087Y-14589984D01*
X6267801Y-14789984D02*
X6267801Y-14685222D01*
X6267801Y-14685222D02*
X6258277Y-14666174D01*
X6258277Y-14666174D02*
X6239230Y-14656650D01*
X6239230Y-14656650D02*
X6210658Y-14656650D01*
X6210658Y-14656650D02*
X6191610Y-14666174D01*
X6191610Y-14666174D02*
X6182087Y-14675698D01*
X6391610Y-14789984D02*
X6372563Y-14780460D01*
X6372563Y-14780460D02*
X6363039Y-14770936D01*
X6363039Y-14770936D02*
X6353515Y-14751888D01*
X6353515Y-14751888D02*
X6353515Y-14694746D01*
X6353515Y-14694746D02*
X6363039Y-14675698D01*
X6363039Y-14675698D02*
X6372563Y-14666174D01*
X6372563Y-14666174D02*
X6391610Y-14656650D01*
X6391610Y-14656650D02*
X6420182Y-14656650D01*
X6420182Y-14656650D02*
X6439230Y-14666174D01*
X6439230Y-14666174D02*
X6448753Y-14675698D01*
X6448753Y-14675698D02*
X6458277Y-14694746D01*
X6458277Y-14694746D02*
X6458277Y-14751888D01*
X6458277Y-14751888D02*
X6448753Y-14770936D01*
X6448753Y-14770936D02*
X6439230Y-14780460D01*
X6439230Y-14780460D02*
X6420182Y-14789984D01*
X6420182Y-14789984D02*
X6391610Y-14789984D01*
X6572563Y-14789984D02*
X6553515Y-14780460D01*
X6553515Y-14780460D02*
X6543991Y-14761412D01*
X6543991Y-14761412D02*
X6543991Y-14589984D01*
X6724944Y-14780460D02*
X6705896Y-14789984D01*
X6705896Y-14789984D02*
X6667801Y-14789984D01*
X6667801Y-14789984D02*
X6648753Y-14780460D01*
X6648753Y-14780460D02*
X6639230Y-14761412D01*
X6639230Y-14761412D02*
X6639230Y-14685222D01*
X6639230Y-14685222D02*
X6648753Y-14666174D01*
X6648753Y-14666174D02*
X6667801Y-14656650D01*
X6667801Y-14656650D02*
X6705896Y-14656650D01*
X6705896Y-14656650D02*
X6724944Y-14666174D01*
X6724944Y-14666174D02*
X6734468Y-14685222D01*
X6734468Y-14685222D02*
X6734468Y-14704269D01*
X6734468Y-14704269D02*
X6639230Y-14723317D01*
X6810658Y-14780460D02*
X6829706Y-14789984D01*
X6829706Y-14789984D02*
X6867801Y-14789984D01*
X6867801Y-14789984D02*
X6886849Y-14780460D01*
X6886849Y-14780460D02*
X6896372Y-14761412D01*
X6896372Y-14761412D02*
X6896372Y-14751888D01*
X6896372Y-14751888D02*
X6886849Y-14732841D01*
X6886849Y-14732841D02*
X6867801Y-14723317D01*
X6867801Y-14723317D02*
X6839230Y-14723317D01*
X6839230Y-14723317D02*
X6820182Y-14713793D01*
X6820182Y-14713793D02*
X6810658Y-14694746D01*
X6810658Y-14694746D02*
X6810658Y-14685222D01*
X6810658Y-14685222D02*
X6820182Y-14666174D01*
X6820182Y-14666174D02*
X6839230Y-14656650D01*
X6839230Y-14656650D02*
X6867801Y-14656650D01*
X6867801Y-14656650D02*
X6886849Y-14666174D01*
X6963039Y-14866174D02*
X6972563Y-14856650D01*
X6972563Y-14856650D02*
X6991611Y-14828079D01*
X6991611Y-14828079D02*
X7001134Y-14809031D01*
X7001134Y-14809031D02*
X7010658Y-14780460D01*
X7010658Y-14780460D02*
X7020182Y-14732841D01*
X7020182Y-14732841D02*
X7020182Y-14694746D01*
X7020182Y-14694746D02*
X7010658Y-14647127D01*
X7010658Y-14647127D02*
X7001134Y-14618555D01*
X7001134Y-14618555D02*
X6991611Y-14599508D01*
X6991611Y-14599508D02*
X6972563Y-14570936D01*
X6972563Y-14570936D02*
X6963039Y-14561412D01*
D14*
X1865500Y-14896500D02*
X1997500Y-15028500D01*
X1997500Y-14896500D02*
X1865500Y-15028500D01*
X1997500Y-14962500D02*
G75*
G02*
X1865500Y-14962500I-66000J0D01*
G01*
X1865500Y-14962500D02*
G75*
G02*
X1997500Y-14962500I66000J0D01*
G01*
D11*
X2363039Y-15053984D02*
X2248753Y-15053984D01*
X2305896Y-15053984D02*
X2305896Y-14853984D01*
X2305896Y-14853984D02*
X2286848Y-14882555D01*
X2286848Y-14882555D02*
X2267801Y-14901603D01*
X2267801Y-14901603D02*
X2248753Y-14911127D01*
X2448753Y-15034936D02*
X2458277Y-15044460D01*
X2458277Y-15044460D02*
X2448753Y-15053984D01*
X2448753Y-15053984D02*
X2439229Y-15044460D01*
X2439229Y-15044460D02*
X2448753Y-15034936D01*
X2448753Y-15034936D02*
X2448753Y-15053984D01*
X2524944Y-14853984D02*
X2648753Y-14853984D01*
X2648753Y-14853984D02*
X2582086Y-14930174D01*
X2582086Y-14930174D02*
X2610658Y-14930174D01*
X2610658Y-14930174D02*
X2629705Y-14939698D01*
X2629705Y-14939698D02*
X2639229Y-14949222D01*
X2639229Y-14949222D02*
X2648753Y-14968269D01*
X2648753Y-14968269D02*
X2648753Y-15015888D01*
X2648753Y-15015888D02*
X2639229Y-15034936D01*
X2639229Y-15034936D02*
X2629705Y-15044460D01*
X2629705Y-15044460D02*
X2610658Y-15053984D01*
X2610658Y-15053984D02*
X2553515Y-15053984D01*
X2553515Y-15053984D02*
X2534467Y-15044460D01*
X2534467Y-15044460D02*
X2524944Y-15034936D01*
X2724944Y-14873031D02*
X2734467Y-14863508D01*
X2734467Y-14863508D02*
X2753515Y-14853984D01*
X2753515Y-14853984D02*
X2801134Y-14853984D01*
X2801134Y-14853984D02*
X2820182Y-14863508D01*
X2820182Y-14863508D02*
X2829705Y-14873031D01*
X2829705Y-14873031D02*
X2839229Y-14892079D01*
X2839229Y-14892079D02*
X2839229Y-14911127D01*
X2839229Y-14911127D02*
X2829705Y-14939698D01*
X2829705Y-14939698D02*
X2715420Y-15053984D01*
X2715420Y-15053984D02*
X2839229Y-15053984D01*
X2963039Y-14853984D02*
X2982086Y-14853984D01*
X2982086Y-14853984D02*
X3001134Y-14863508D01*
X3001134Y-14863508D02*
X3010658Y-14873031D01*
X3010658Y-14873031D02*
X3020182Y-14892079D01*
X3020182Y-14892079D02*
X3029705Y-14930174D01*
X3029705Y-14930174D02*
X3029705Y-14977793D01*
X3029705Y-14977793D02*
X3020182Y-15015888D01*
X3020182Y-15015888D02*
X3010658Y-15034936D01*
X3010658Y-15034936D02*
X3001134Y-15044460D01*
X3001134Y-15044460D02*
X2982086Y-15053984D01*
X2982086Y-15053984D02*
X2963039Y-15053984D01*
X2963039Y-15053984D02*
X2943991Y-15044460D01*
X2943991Y-15044460D02*
X2934467Y-15034936D01*
X2934467Y-15034936D02*
X2924943Y-15015888D01*
X2924943Y-15015888D02*
X2915420Y-14977793D01*
X2915420Y-14977793D02*
X2915420Y-14930174D01*
X2915420Y-14930174D02*
X2924943Y-14892079D01*
X2924943Y-14892079D02*
X2934467Y-14873031D01*
X2934467Y-14873031D02*
X2943991Y-14863508D01*
X2943991Y-14863508D02*
X2963039Y-14853984D01*
X3115420Y-15053984D02*
X3115420Y-14920650D01*
X3115420Y-14939698D02*
X3124943Y-14930174D01*
X3124943Y-14930174D02*
X3143991Y-14920650D01*
X3143991Y-14920650D02*
X3172563Y-14920650D01*
X3172563Y-14920650D02*
X3191610Y-14930174D01*
X3191610Y-14930174D02*
X3201134Y-14949222D01*
X3201134Y-14949222D02*
X3201134Y-15053984D01*
X3201134Y-14949222D02*
X3210658Y-14930174D01*
X3210658Y-14930174D02*
X3229705Y-14920650D01*
X3229705Y-14920650D02*
X3258277Y-14920650D01*
X3258277Y-14920650D02*
X3277324Y-14930174D01*
X3277324Y-14930174D02*
X3286848Y-14949222D01*
X3286848Y-14949222D02*
X3286848Y-15053984D01*
X3382086Y-15053984D02*
X3382086Y-14920650D01*
X3382086Y-14939698D02*
X3391610Y-14930174D01*
X3391610Y-14930174D02*
X3410658Y-14920650D01*
X3410658Y-14920650D02*
X3439229Y-14920650D01*
X3439229Y-14920650D02*
X3458277Y-14930174D01*
X3458277Y-14930174D02*
X3467801Y-14949222D01*
X3467801Y-14949222D02*
X3467801Y-15053984D01*
X3467801Y-14949222D02*
X3477324Y-14930174D01*
X3477324Y-14930174D02*
X3496372Y-14920650D01*
X3496372Y-14920650D02*
X3524943Y-14920650D01*
X3524943Y-14920650D02*
X3543991Y-14930174D01*
X3543991Y-14930174D02*
X3553515Y-14949222D01*
X3553515Y-14949222D02*
X3553515Y-15053984D01*
X3943991Y-14844460D02*
X3772563Y-15101603D01*
X4201134Y-14853984D02*
X4220182Y-14853984D01*
X4220182Y-14853984D02*
X4239229Y-14863508D01*
X4239229Y-14863508D02*
X4248753Y-14873031D01*
X4248753Y-14873031D02*
X4258277Y-14892079D01*
X4258277Y-14892079D02*
X4267801Y-14930174D01*
X4267801Y-14930174D02*
X4267801Y-14977793D01*
X4267801Y-14977793D02*
X4258277Y-15015888D01*
X4258277Y-15015888D02*
X4248753Y-15034936D01*
X4248753Y-15034936D02*
X4239229Y-15044460D01*
X4239229Y-15044460D02*
X4220182Y-15053984D01*
X4220182Y-15053984D02*
X4201134Y-15053984D01*
X4201134Y-15053984D02*
X4182086Y-15044460D01*
X4182086Y-15044460D02*
X4172563Y-15034936D01*
X4172563Y-15034936D02*
X4163039Y-15015888D01*
X4163039Y-15015888D02*
X4153515Y-14977793D01*
X4153515Y-14977793D02*
X4153515Y-14930174D01*
X4153515Y-14930174D02*
X4163039Y-14892079D01*
X4163039Y-14892079D02*
X4172563Y-14873031D01*
X4172563Y-14873031D02*
X4182086Y-14863508D01*
X4182086Y-14863508D02*
X4201134Y-14853984D01*
X4353515Y-15034936D02*
X4363039Y-15044460D01*
X4363039Y-15044460D02*
X4353515Y-15053984D01*
X4353515Y-15053984D02*
X4343991Y-15044460D01*
X4343991Y-15044460D02*
X4353515Y-15034936D01*
X4353515Y-15034936D02*
X4353515Y-15053984D01*
X4486848Y-14853984D02*
X4505896Y-14853984D01*
X4505896Y-14853984D02*
X4524944Y-14863508D01*
X4524944Y-14863508D02*
X4534468Y-14873031D01*
X4534468Y-14873031D02*
X4543991Y-14892079D01*
X4543991Y-14892079D02*
X4553515Y-14930174D01*
X4553515Y-14930174D02*
X4553515Y-14977793D01*
X4553515Y-14977793D02*
X4543991Y-15015888D01*
X4543991Y-15015888D02*
X4534468Y-15034936D01*
X4534468Y-15034936D02*
X4524944Y-15044460D01*
X4524944Y-15044460D02*
X4505896Y-15053984D01*
X4505896Y-15053984D02*
X4486848Y-15053984D01*
X4486848Y-15053984D02*
X4467801Y-15044460D01*
X4467801Y-15044460D02*
X4458277Y-15034936D01*
X4458277Y-15034936D02*
X4448753Y-15015888D01*
X4448753Y-15015888D02*
X4439229Y-14977793D01*
X4439229Y-14977793D02*
X4439229Y-14930174D01*
X4439229Y-14930174D02*
X4448753Y-14892079D01*
X4448753Y-14892079D02*
X4458277Y-14873031D01*
X4458277Y-14873031D02*
X4467801Y-14863508D01*
X4467801Y-14863508D02*
X4486848Y-14853984D01*
X4734468Y-14853984D02*
X4639229Y-14853984D01*
X4639229Y-14853984D02*
X4629706Y-14949222D01*
X4629706Y-14949222D02*
X4639229Y-14939698D01*
X4639229Y-14939698D02*
X4658277Y-14930174D01*
X4658277Y-14930174D02*
X4705896Y-14930174D01*
X4705896Y-14930174D02*
X4724944Y-14939698D01*
X4724944Y-14939698D02*
X4734468Y-14949222D01*
X4734468Y-14949222D02*
X4743991Y-14968269D01*
X4743991Y-14968269D02*
X4743991Y-15015888D01*
X4743991Y-15015888D02*
X4734468Y-15034936D01*
X4734468Y-15034936D02*
X4724944Y-15044460D01*
X4724944Y-15044460D02*
X4705896Y-15053984D01*
X4705896Y-15053984D02*
X4658277Y-15053984D01*
X4658277Y-15053984D02*
X4639229Y-15044460D01*
X4639229Y-15044460D02*
X4629706Y-15034936D01*
X4820182Y-14873031D02*
X4829706Y-14863508D01*
X4829706Y-14863508D02*
X4848753Y-14853984D01*
X4848753Y-14853984D02*
X4896372Y-14853984D01*
X4896372Y-14853984D02*
X4915420Y-14863508D01*
X4915420Y-14863508D02*
X4924944Y-14873031D01*
X4924944Y-14873031D02*
X4934468Y-14892079D01*
X4934468Y-14892079D02*
X4934468Y-14911127D01*
X4934468Y-14911127D02*
X4924944Y-14939698D01*
X4924944Y-14939698D02*
X4810658Y-15053984D01*
X4810658Y-15053984D02*
X4934468Y-15053984D01*
X5058277Y-14853984D02*
X5077325Y-14853984D01*
X5077325Y-14853984D02*
X5096372Y-14863508D01*
X5096372Y-14863508D02*
X5105896Y-14873031D01*
X5105896Y-14873031D02*
X5115420Y-14892079D01*
X5115420Y-14892079D02*
X5124944Y-14930174D01*
X5124944Y-14930174D02*
X5124944Y-14977793D01*
X5124944Y-14977793D02*
X5115420Y-15015888D01*
X5115420Y-15015888D02*
X5105896Y-15034936D01*
X5105896Y-15034936D02*
X5096372Y-15044460D01*
X5096372Y-15044460D02*
X5077325Y-15053984D01*
X5077325Y-15053984D02*
X5058277Y-15053984D01*
X5058277Y-15053984D02*
X5039229Y-15044460D01*
X5039229Y-15044460D02*
X5029706Y-15034936D01*
X5029706Y-15034936D02*
X5020182Y-15015888D01*
X5020182Y-15015888D02*
X5010658Y-14977793D01*
X5010658Y-14977793D02*
X5010658Y-14930174D01*
X5010658Y-14930174D02*
X5020182Y-14892079D01*
X5020182Y-14892079D02*
X5029706Y-14873031D01*
X5029706Y-14873031D02*
X5039229Y-14863508D01*
X5039229Y-14863508D02*
X5058277Y-14853984D01*
X5201134Y-14853984D02*
X5201134Y-14892079D01*
X5277325Y-14853984D02*
X5277325Y-14892079D01*
X5572563Y-15130174D02*
X5563039Y-15120650D01*
X5563039Y-15120650D02*
X5543991Y-15092079D01*
X5543991Y-15092079D02*
X5534468Y-15073031D01*
X5534468Y-15073031D02*
X5524944Y-15044460D01*
X5524944Y-15044460D02*
X5515420Y-14996841D01*
X5515420Y-14996841D02*
X5515420Y-14958746D01*
X5515420Y-14958746D02*
X5524944Y-14911127D01*
X5524944Y-14911127D02*
X5534468Y-14882555D01*
X5534468Y-14882555D02*
X5543991Y-14863508D01*
X5543991Y-14863508D02*
X5563039Y-14834936D01*
X5563039Y-14834936D02*
X5572563Y-14825412D01*
X5753515Y-15053984D02*
X5639229Y-15053984D01*
X5696372Y-15053984D02*
X5696372Y-14853984D01*
X5696372Y-14853984D02*
X5677325Y-14882555D01*
X5677325Y-14882555D02*
X5658277Y-14901603D01*
X5658277Y-14901603D02*
X5639229Y-14911127D01*
X5924944Y-14853984D02*
X5886848Y-14853984D01*
X5886848Y-14853984D02*
X5867801Y-14863508D01*
X5867801Y-14863508D02*
X5858277Y-14873031D01*
X5858277Y-14873031D02*
X5839229Y-14901603D01*
X5839229Y-14901603D02*
X5829706Y-14939698D01*
X5829706Y-14939698D02*
X5829706Y-15015888D01*
X5829706Y-15015888D02*
X5839229Y-15034936D01*
X5839229Y-15034936D02*
X5848753Y-15044460D01*
X5848753Y-15044460D02*
X5867801Y-15053984D01*
X5867801Y-15053984D02*
X5905896Y-15053984D01*
X5905896Y-15053984D02*
X5924944Y-15044460D01*
X5924944Y-15044460D02*
X5934468Y-15034936D01*
X5934468Y-15034936D02*
X5943991Y-15015888D01*
X5943991Y-15015888D02*
X5943991Y-14968269D01*
X5943991Y-14968269D02*
X5934468Y-14949222D01*
X5934468Y-14949222D02*
X5924944Y-14939698D01*
X5924944Y-14939698D02*
X5905896Y-14930174D01*
X5905896Y-14930174D02*
X5867801Y-14930174D01*
X5867801Y-14930174D02*
X5848753Y-14939698D01*
X5848753Y-14939698D02*
X5839229Y-14949222D01*
X5839229Y-14949222D02*
X5829706Y-14968269D01*
X6182087Y-15053984D02*
X6182087Y-14853984D01*
X6267801Y-15053984D02*
X6267801Y-14949222D01*
X6267801Y-14949222D02*
X6258277Y-14930174D01*
X6258277Y-14930174D02*
X6239230Y-14920650D01*
X6239230Y-14920650D02*
X6210658Y-14920650D01*
X6210658Y-14920650D02*
X6191610Y-14930174D01*
X6191610Y-14930174D02*
X6182087Y-14939698D01*
X6391610Y-15053984D02*
X6372563Y-15044460D01*
X6372563Y-15044460D02*
X6363039Y-15034936D01*
X6363039Y-15034936D02*
X6353515Y-15015888D01*
X6353515Y-15015888D02*
X6353515Y-14958746D01*
X6353515Y-14958746D02*
X6363039Y-14939698D01*
X6363039Y-14939698D02*
X6372563Y-14930174D01*
X6372563Y-14930174D02*
X6391610Y-14920650D01*
X6391610Y-14920650D02*
X6420182Y-14920650D01*
X6420182Y-14920650D02*
X6439230Y-14930174D01*
X6439230Y-14930174D02*
X6448753Y-14939698D01*
X6448753Y-14939698D02*
X6458277Y-14958746D01*
X6458277Y-14958746D02*
X6458277Y-15015888D01*
X6458277Y-15015888D02*
X6448753Y-15034936D01*
X6448753Y-15034936D02*
X6439230Y-15044460D01*
X6439230Y-15044460D02*
X6420182Y-15053984D01*
X6420182Y-15053984D02*
X6391610Y-15053984D01*
X6572563Y-15053984D02*
X6553515Y-15044460D01*
X6553515Y-15044460D02*
X6543991Y-15025412D01*
X6543991Y-15025412D02*
X6543991Y-14853984D01*
X6724944Y-15044460D02*
X6705896Y-15053984D01*
X6705896Y-15053984D02*
X6667801Y-15053984D01*
X6667801Y-15053984D02*
X6648753Y-15044460D01*
X6648753Y-15044460D02*
X6639230Y-15025412D01*
X6639230Y-15025412D02*
X6639230Y-14949222D01*
X6639230Y-14949222D02*
X6648753Y-14930174D01*
X6648753Y-14930174D02*
X6667801Y-14920650D01*
X6667801Y-14920650D02*
X6705896Y-14920650D01*
X6705896Y-14920650D02*
X6724944Y-14930174D01*
X6724944Y-14930174D02*
X6734468Y-14949222D01*
X6734468Y-14949222D02*
X6734468Y-14968269D01*
X6734468Y-14968269D02*
X6639230Y-14987317D01*
X6810658Y-15044460D02*
X6829706Y-15053984D01*
X6829706Y-15053984D02*
X6867801Y-15053984D01*
X6867801Y-15053984D02*
X6886849Y-15044460D01*
X6886849Y-15044460D02*
X6896372Y-15025412D01*
X6896372Y-15025412D02*
X6896372Y-15015888D01*
X6896372Y-15015888D02*
X6886849Y-14996841D01*
X6886849Y-14996841D02*
X6867801Y-14987317D01*
X6867801Y-14987317D02*
X6839230Y-14987317D01*
X6839230Y-14987317D02*
X6820182Y-14977793D01*
X6820182Y-14977793D02*
X6810658Y-14958746D01*
X6810658Y-14958746D02*
X6810658Y-14949222D01*
X6810658Y-14949222D02*
X6820182Y-14930174D01*
X6820182Y-14930174D02*
X6839230Y-14920650D01*
X6839230Y-14920650D02*
X6867801Y-14920650D01*
X6867801Y-14920650D02*
X6886849Y-14930174D01*
X6963039Y-15130174D02*
X6972563Y-15120650D01*
X6972563Y-15120650D02*
X6991611Y-15092079D01*
X6991611Y-15092079D02*
X7001134Y-15073031D01*
X7001134Y-15073031D02*
X7010658Y-15044460D01*
X7010658Y-15044460D02*
X7020182Y-14996841D01*
X7020182Y-14996841D02*
X7020182Y-14958746D01*
X7020182Y-14958746D02*
X7010658Y-14911127D01*
X7010658Y-14911127D02*
X7001134Y-14882555D01*
X7001134Y-14882555D02*
X6991611Y-14863508D01*
X6991611Y-14863508D02*
X6972563Y-14834936D01*
X6972563Y-14834936D02*
X6963039Y-14825412D01*
X1797500Y-15126500D02*
X1997500Y-15326500D01*
X1997500Y-15126500D02*
X1797500Y-15326500D01*
X1897500Y-15126500D02*
X1897500Y-15326500D01*
X1797500Y-15226500D02*
X1997500Y-15226500D01*
X2239229Y-15117984D02*
X2363039Y-15117984D01*
X2363039Y-15117984D02*
X2296372Y-15194174D01*
X2296372Y-15194174D02*
X2324944Y-15194174D01*
X2324944Y-15194174D02*
X2343991Y-15203698D01*
X2343991Y-15203698D02*
X2353515Y-15213222D01*
X2353515Y-15213222D02*
X2363039Y-15232269D01*
X2363039Y-15232269D02*
X2363039Y-15279888D01*
X2363039Y-15279888D02*
X2353515Y-15298936D01*
X2353515Y-15298936D02*
X2343991Y-15308460D01*
X2343991Y-15308460D02*
X2324944Y-15317984D01*
X2324944Y-15317984D02*
X2267801Y-15317984D01*
X2267801Y-15317984D02*
X2248753Y-15308460D01*
X2248753Y-15308460D02*
X2239229Y-15298936D01*
X2448753Y-15298936D02*
X2458277Y-15308460D01*
X2458277Y-15308460D02*
X2448753Y-15317984D01*
X2448753Y-15317984D02*
X2439229Y-15308460D01*
X2439229Y-15308460D02*
X2448753Y-15298936D01*
X2448753Y-15298936D02*
X2448753Y-15317984D01*
X2582086Y-15117984D02*
X2601134Y-15117984D01*
X2601134Y-15117984D02*
X2620182Y-15127508D01*
X2620182Y-15127508D02*
X2629705Y-15137031D01*
X2629705Y-15137031D02*
X2639229Y-15156079D01*
X2639229Y-15156079D02*
X2648753Y-15194174D01*
X2648753Y-15194174D02*
X2648753Y-15241793D01*
X2648753Y-15241793D02*
X2639229Y-15279888D01*
X2639229Y-15279888D02*
X2629705Y-15298936D01*
X2629705Y-15298936D02*
X2620182Y-15308460D01*
X2620182Y-15308460D02*
X2601134Y-15317984D01*
X2601134Y-15317984D02*
X2582086Y-15317984D01*
X2582086Y-15317984D02*
X2563039Y-15308460D01*
X2563039Y-15308460D02*
X2553515Y-15298936D01*
X2553515Y-15298936D02*
X2543991Y-15279888D01*
X2543991Y-15279888D02*
X2534467Y-15241793D01*
X2534467Y-15241793D02*
X2534467Y-15194174D01*
X2534467Y-15194174D02*
X2543991Y-15156079D01*
X2543991Y-15156079D02*
X2553515Y-15137031D01*
X2553515Y-15137031D02*
X2563039Y-15127508D01*
X2563039Y-15127508D02*
X2582086Y-15117984D01*
X2772563Y-15117984D02*
X2791610Y-15117984D01*
X2791610Y-15117984D02*
X2810658Y-15127508D01*
X2810658Y-15127508D02*
X2820182Y-15137031D01*
X2820182Y-15137031D02*
X2829705Y-15156079D01*
X2829705Y-15156079D02*
X2839229Y-15194174D01*
X2839229Y-15194174D02*
X2839229Y-15241793D01*
X2839229Y-15241793D02*
X2829705Y-15279888D01*
X2829705Y-15279888D02*
X2820182Y-15298936D01*
X2820182Y-15298936D02*
X2810658Y-15308460D01*
X2810658Y-15308460D02*
X2791610Y-15317984D01*
X2791610Y-15317984D02*
X2772563Y-15317984D01*
X2772563Y-15317984D02*
X2753515Y-15308460D01*
X2753515Y-15308460D02*
X2743991Y-15298936D01*
X2743991Y-15298936D02*
X2734467Y-15279888D01*
X2734467Y-15279888D02*
X2724944Y-15241793D01*
X2724944Y-15241793D02*
X2724944Y-15194174D01*
X2724944Y-15194174D02*
X2734467Y-15156079D01*
X2734467Y-15156079D02*
X2743991Y-15137031D01*
X2743991Y-15137031D02*
X2753515Y-15127508D01*
X2753515Y-15127508D02*
X2772563Y-15117984D01*
X2963039Y-15117984D02*
X2982086Y-15117984D01*
X2982086Y-15117984D02*
X3001134Y-15127508D01*
X3001134Y-15127508D02*
X3010658Y-15137031D01*
X3010658Y-15137031D02*
X3020182Y-15156079D01*
X3020182Y-15156079D02*
X3029705Y-15194174D01*
X3029705Y-15194174D02*
X3029705Y-15241793D01*
X3029705Y-15241793D02*
X3020182Y-15279888D01*
X3020182Y-15279888D02*
X3010658Y-15298936D01*
X3010658Y-15298936D02*
X3001134Y-15308460D01*
X3001134Y-15308460D02*
X2982086Y-15317984D01*
X2982086Y-15317984D02*
X2963039Y-15317984D01*
X2963039Y-15317984D02*
X2943991Y-15308460D01*
X2943991Y-15308460D02*
X2934467Y-15298936D01*
X2934467Y-15298936D02*
X2924943Y-15279888D01*
X2924943Y-15279888D02*
X2915420Y-15241793D01*
X2915420Y-15241793D02*
X2915420Y-15194174D01*
X2915420Y-15194174D02*
X2924943Y-15156079D01*
X2924943Y-15156079D02*
X2934467Y-15137031D01*
X2934467Y-15137031D02*
X2943991Y-15127508D01*
X2943991Y-15127508D02*
X2963039Y-15117984D01*
X3115420Y-15317984D02*
X3115420Y-15184650D01*
X3115420Y-15203698D02*
X3124943Y-15194174D01*
X3124943Y-15194174D02*
X3143991Y-15184650D01*
X3143991Y-15184650D02*
X3172563Y-15184650D01*
X3172563Y-15184650D02*
X3191610Y-15194174D01*
X3191610Y-15194174D02*
X3201134Y-15213222D01*
X3201134Y-15213222D02*
X3201134Y-15317984D01*
X3201134Y-15213222D02*
X3210658Y-15194174D01*
X3210658Y-15194174D02*
X3229705Y-15184650D01*
X3229705Y-15184650D02*
X3258277Y-15184650D01*
X3258277Y-15184650D02*
X3277324Y-15194174D01*
X3277324Y-15194174D02*
X3286848Y-15213222D01*
X3286848Y-15213222D02*
X3286848Y-15317984D01*
X3382086Y-15317984D02*
X3382086Y-15184650D01*
X3382086Y-15203698D02*
X3391610Y-15194174D01*
X3391610Y-15194174D02*
X3410658Y-15184650D01*
X3410658Y-15184650D02*
X3439229Y-15184650D01*
X3439229Y-15184650D02*
X3458277Y-15194174D01*
X3458277Y-15194174D02*
X3467801Y-15213222D01*
X3467801Y-15213222D02*
X3467801Y-15317984D01*
X3467801Y-15213222D02*
X3477324Y-15194174D01*
X3477324Y-15194174D02*
X3496372Y-15184650D01*
X3496372Y-15184650D02*
X3524943Y-15184650D01*
X3524943Y-15184650D02*
X3543991Y-15194174D01*
X3543991Y-15194174D02*
X3553515Y-15213222D01*
X3553515Y-15213222D02*
X3553515Y-15317984D01*
X3943991Y-15108460D02*
X3772563Y-15365603D01*
X4201134Y-15117984D02*
X4220182Y-15117984D01*
X4220182Y-15117984D02*
X4239229Y-15127508D01*
X4239229Y-15127508D02*
X4248753Y-15137031D01*
X4248753Y-15137031D02*
X4258277Y-15156079D01*
X4258277Y-15156079D02*
X4267801Y-15194174D01*
X4267801Y-15194174D02*
X4267801Y-15241793D01*
X4267801Y-15241793D02*
X4258277Y-15279888D01*
X4258277Y-15279888D02*
X4248753Y-15298936D01*
X4248753Y-15298936D02*
X4239229Y-15308460D01*
X4239229Y-15308460D02*
X4220182Y-15317984D01*
X4220182Y-15317984D02*
X4201134Y-15317984D01*
X4201134Y-15317984D02*
X4182086Y-15308460D01*
X4182086Y-15308460D02*
X4172563Y-15298936D01*
X4172563Y-15298936D02*
X4163039Y-15279888D01*
X4163039Y-15279888D02*
X4153515Y-15241793D01*
X4153515Y-15241793D02*
X4153515Y-15194174D01*
X4153515Y-15194174D02*
X4163039Y-15156079D01*
X4163039Y-15156079D02*
X4172563Y-15137031D01*
X4172563Y-15137031D02*
X4182086Y-15127508D01*
X4182086Y-15127508D02*
X4201134Y-15117984D01*
X4353515Y-15298936D02*
X4363039Y-15308460D01*
X4363039Y-15308460D02*
X4353515Y-15317984D01*
X4353515Y-15317984D02*
X4343991Y-15308460D01*
X4343991Y-15308460D02*
X4353515Y-15298936D01*
X4353515Y-15298936D02*
X4353515Y-15317984D01*
X4553515Y-15317984D02*
X4439229Y-15317984D01*
X4496372Y-15317984D02*
X4496372Y-15117984D01*
X4496372Y-15117984D02*
X4477325Y-15146555D01*
X4477325Y-15146555D02*
X4458277Y-15165603D01*
X4458277Y-15165603D02*
X4439229Y-15175127D01*
X4743991Y-15317984D02*
X4629706Y-15317984D01*
X4686848Y-15317984D02*
X4686848Y-15117984D01*
X4686848Y-15117984D02*
X4667801Y-15146555D01*
X4667801Y-15146555D02*
X4648753Y-15165603D01*
X4648753Y-15165603D02*
X4629706Y-15175127D01*
X4858277Y-15203698D02*
X4839229Y-15194174D01*
X4839229Y-15194174D02*
X4829706Y-15184650D01*
X4829706Y-15184650D02*
X4820182Y-15165603D01*
X4820182Y-15165603D02*
X4820182Y-15156079D01*
X4820182Y-15156079D02*
X4829706Y-15137031D01*
X4829706Y-15137031D02*
X4839229Y-15127508D01*
X4839229Y-15127508D02*
X4858277Y-15117984D01*
X4858277Y-15117984D02*
X4896372Y-15117984D01*
X4896372Y-15117984D02*
X4915420Y-15127508D01*
X4915420Y-15127508D02*
X4924944Y-15137031D01*
X4924944Y-15137031D02*
X4934468Y-15156079D01*
X4934468Y-15156079D02*
X4934468Y-15165603D01*
X4934468Y-15165603D02*
X4924944Y-15184650D01*
X4924944Y-15184650D02*
X4915420Y-15194174D01*
X4915420Y-15194174D02*
X4896372Y-15203698D01*
X4896372Y-15203698D02*
X4858277Y-15203698D01*
X4858277Y-15203698D02*
X4839229Y-15213222D01*
X4839229Y-15213222D02*
X4829706Y-15222746D01*
X4829706Y-15222746D02*
X4820182Y-15241793D01*
X4820182Y-15241793D02*
X4820182Y-15279888D01*
X4820182Y-15279888D02*
X4829706Y-15298936D01*
X4829706Y-15298936D02*
X4839229Y-15308460D01*
X4839229Y-15308460D02*
X4858277Y-15317984D01*
X4858277Y-15317984D02*
X4896372Y-15317984D01*
X4896372Y-15317984D02*
X4915420Y-15308460D01*
X4915420Y-15308460D02*
X4924944Y-15298936D01*
X4924944Y-15298936D02*
X4934468Y-15279888D01*
X4934468Y-15279888D02*
X4934468Y-15241793D01*
X4934468Y-15241793D02*
X4924944Y-15222746D01*
X4924944Y-15222746D02*
X4915420Y-15213222D01*
X4915420Y-15213222D02*
X4896372Y-15203698D01*
X5124944Y-15317984D02*
X5010658Y-15317984D01*
X5067801Y-15317984D02*
X5067801Y-15117984D01*
X5067801Y-15117984D02*
X5048753Y-15146555D01*
X5048753Y-15146555D02*
X5029706Y-15165603D01*
X5029706Y-15165603D02*
X5010658Y-15175127D01*
X5201134Y-15117984D02*
X5201134Y-15156079D01*
X5277325Y-15117984D02*
X5277325Y-15156079D01*
X5572563Y-15394174D02*
X5563039Y-15384650D01*
X5563039Y-15384650D02*
X5543991Y-15356079D01*
X5543991Y-15356079D02*
X5534468Y-15337031D01*
X5534468Y-15337031D02*
X5524944Y-15308460D01*
X5524944Y-15308460D02*
X5515420Y-15260841D01*
X5515420Y-15260841D02*
X5515420Y-15222746D01*
X5515420Y-15222746D02*
X5524944Y-15175127D01*
X5524944Y-15175127D02*
X5534468Y-15146555D01*
X5534468Y-15146555D02*
X5543991Y-15127508D01*
X5543991Y-15127508D02*
X5563039Y-15098936D01*
X5563039Y-15098936D02*
X5572563Y-15089412D01*
X5753515Y-15317984D02*
X5639229Y-15317984D01*
X5696372Y-15317984D02*
X5696372Y-15117984D01*
X5696372Y-15117984D02*
X5677325Y-15146555D01*
X5677325Y-15146555D02*
X5658277Y-15165603D01*
X5658277Y-15165603D02*
X5639229Y-15175127D01*
X5829706Y-15137031D02*
X5839229Y-15127508D01*
X5839229Y-15127508D02*
X5858277Y-15117984D01*
X5858277Y-15117984D02*
X5905896Y-15117984D01*
X5905896Y-15117984D02*
X5924944Y-15127508D01*
X5924944Y-15127508D02*
X5934468Y-15137031D01*
X5934468Y-15137031D02*
X5943991Y-15156079D01*
X5943991Y-15156079D02*
X5943991Y-15175127D01*
X5943991Y-15175127D02*
X5934468Y-15203698D01*
X5934468Y-15203698D02*
X5820182Y-15317984D01*
X5820182Y-15317984D02*
X5943991Y-15317984D01*
X6182087Y-15317984D02*
X6182087Y-15117984D01*
X6267801Y-15317984D02*
X6267801Y-15213222D01*
X6267801Y-15213222D02*
X6258277Y-15194174D01*
X6258277Y-15194174D02*
X6239230Y-15184650D01*
X6239230Y-15184650D02*
X6210658Y-15184650D01*
X6210658Y-15184650D02*
X6191610Y-15194174D01*
X6191610Y-15194174D02*
X6182087Y-15203698D01*
X6391610Y-15317984D02*
X6372563Y-15308460D01*
X6372563Y-15308460D02*
X6363039Y-15298936D01*
X6363039Y-15298936D02*
X6353515Y-15279888D01*
X6353515Y-15279888D02*
X6353515Y-15222746D01*
X6353515Y-15222746D02*
X6363039Y-15203698D01*
X6363039Y-15203698D02*
X6372563Y-15194174D01*
X6372563Y-15194174D02*
X6391610Y-15184650D01*
X6391610Y-15184650D02*
X6420182Y-15184650D01*
X6420182Y-15184650D02*
X6439230Y-15194174D01*
X6439230Y-15194174D02*
X6448753Y-15203698D01*
X6448753Y-15203698D02*
X6458277Y-15222746D01*
X6458277Y-15222746D02*
X6458277Y-15279888D01*
X6458277Y-15279888D02*
X6448753Y-15298936D01*
X6448753Y-15298936D02*
X6439230Y-15308460D01*
X6439230Y-15308460D02*
X6420182Y-15317984D01*
X6420182Y-15317984D02*
X6391610Y-15317984D01*
X6572563Y-15317984D02*
X6553515Y-15308460D01*
X6553515Y-15308460D02*
X6543991Y-15289412D01*
X6543991Y-15289412D02*
X6543991Y-15117984D01*
X6724944Y-15308460D02*
X6705896Y-15317984D01*
X6705896Y-15317984D02*
X6667801Y-15317984D01*
X6667801Y-15317984D02*
X6648753Y-15308460D01*
X6648753Y-15308460D02*
X6639230Y-15289412D01*
X6639230Y-15289412D02*
X6639230Y-15213222D01*
X6639230Y-15213222D02*
X6648753Y-15194174D01*
X6648753Y-15194174D02*
X6667801Y-15184650D01*
X6667801Y-15184650D02*
X6705896Y-15184650D01*
X6705896Y-15184650D02*
X6724944Y-15194174D01*
X6724944Y-15194174D02*
X6734468Y-15213222D01*
X6734468Y-15213222D02*
X6734468Y-15232269D01*
X6734468Y-15232269D02*
X6639230Y-15251317D01*
X6810658Y-15308460D02*
X6829706Y-15317984D01*
X6829706Y-15317984D02*
X6867801Y-15317984D01*
X6867801Y-15317984D02*
X6886849Y-15308460D01*
X6886849Y-15308460D02*
X6896372Y-15289412D01*
X6896372Y-15289412D02*
X6896372Y-15279888D01*
X6896372Y-15279888D02*
X6886849Y-15260841D01*
X6886849Y-15260841D02*
X6867801Y-15251317D01*
X6867801Y-15251317D02*
X6839230Y-15251317D01*
X6839230Y-15251317D02*
X6820182Y-15241793D01*
X6820182Y-15241793D02*
X6810658Y-15222746D01*
X6810658Y-15222746D02*
X6810658Y-15213222D01*
X6810658Y-15213222D02*
X6820182Y-15194174D01*
X6820182Y-15194174D02*
X6839230Y-15184650D01*
X6839230Y-15184650D02*
X6867801Y-15184650D01*
X6867801Y-15184650D02*
X6886849Y-15194174D01*
X6963039Y-15394174D02*
X6972563Y-15384650D01*
X6972563Y-15384650D02*
X6991611Y-15356079D01*
X6991611Y-15356079D02*
X7001134Y-15337031D01*
X7001134Y-15337031D02*
X7010658Y-15308460D01*
X7010658Y-15308460D02*
X7020182Y-15260841D01*
X7020182Y-15260841D02*
X7020182Y-15222746D01*
X7020182Y-15222746D02*
X7010658Y-15175127D01*
X7010658Y-15175127D02*
X7001134Y-15146555D01*
X7001134Y-15146555D02*
X6991611Y-15127508D01*
X6991611Y-15127508D02*
X6972563Y-15098936D01*
X6972563Y-15098936D02*
X6963039Y-15089412D01*
M02*
