M48
; DRILL file {KiCad 8.0.2-8.0.2-0~ubuntu22.04.1} date 2024-05-17T21:05:11+0200
; FORMAT={-:-/ absolute / metric / decimal}
; #@! TF.CreationDate,2024-05-17T21:05:11+02:00
; #@! TF.GenerationSoftware,Kicad,Pcbnew,8.0.2-8.0.2-0~ubuntu22.04.1
; #@! TF.FileFunction,Plated,1,2,PTH
FMAT,2
METRIC
; #@! TA.AperFunction,Plated,PTH,ViaDrill
T1C0.300
; #@! TA.AperFunction,Plated,PTH,ComponentDrill
T2C0.762
; #@! TA.AperFunction,Plated,PTH,ComponentDrill
T3C0.900
; #@! TA.AperFunction,Plated,PTH,ComponentDrill
T4C1.000
; #@! TA.AperFunction,Plated,PTH,ComponentDrill
T5C1.300
; #@! TA.AperFunction,Plated,PTH,ComponentDrill
T6C1.320
; #@! TA.AperFunction,Plated,PTH,ViaDrill
T7C3.000
%
G90
G05
T1
X74.735Y-101.798
X84.055Y-118.07
X84.685Y-71.856
X84.759Y-113.318
X86.628Y-115.791
X87.442Y-117.198
X87.763Y-96.102
X88.287Y-103.652
X90.084Y-109.18
X91.645Y-117.801
X92.093Y-62.981
X92.801Y-63.42
X94.206Y-103.194
X94.258Y-101.653
X95.637Y-75.64
X107.427Y-84.319
X108.923Y-90.324
X109.226Y-87.79
X109.746Y-93.526
X114.636Y-60.823
X122.55Y-78.07
X123.616Y-77.522
T2
X45.86Y-38.0
X45.86Y-53.24
X55.0Y-38.0
X55.0Y-53.24
X60.0Y-38.0
X60.0Y-53.24
X69.14Y-38.0
X69.14Y-53.24
X95.92Y-98.0
X98.46Y-98.0
X101.0Y-98.0
X103.54Y-98.0
X106.08Y-98.0
X108.62Y-98.0
X111.16Y-98.0
X113.7Y-98.0
T3
X126.46Y-104.0
X129.0Y-104.0
X129.46Y-48.0
X132.0Y-48.0
T4
X26.0Y-40.0
X26.0Y-42.54
X26.0Y-45.08
X26.0Y-47.62
X31.0Y-40.0
X31.0Y-42.54
X31.0Y-45.08
X31.0Y-47.62
X36.0Y-40.0
X36.0Y-42.54
X36.0Y-45.08
X36.0Y-47.62
X41.0Y-40.0
X41.0Y-42.54
X41.0Y-45.08
X41.0Y-47.62
X67.6Y-125.0
X67.84Y-120.0
X70.14Y-125.0
X70.38Y-120.0
X72.68Y-125.0
X72.92Y-120.0
X75.22Y-125.0
X75.46Y-120.0
X77.76Y-125.0
X78.0Y-120.0
X79.22Y-33.38
X79.22Y-35.92
X79.22Y-38.46
X79.22Y-41.0
X79.22Y-43.54
X79.22Y-46.08
X79.22Y-48.62
X79.22Y-51.16
X79.22Y-53.7
X79.22Y-56.24
X79.22Y-58.78
X79.22Y-61.32
X79.22Y-63.86
X79.22Y-66.4
X79.22Y-68.94
X79.22Y-74.02
X79.22Y-76.56
X79.22Y-79.1
X79.22Y-81.64
X79.262Y-71.48
X80.3Y-125.0
X80.54Y-120.0
X82.84Y-125.0
X83.08Y-120.0
X85.38Y-125.0
X85.62Y-120.0
X87.92Y-125.0
X88.16Y-120.0
X90.46Y-125.0
X90.7Y-120.0
X93.0Y-125.0
X93.24Y-120.0
X95.54Y-125.0
X95.78Y-120.0
X97.0Y-33.38
X97.0Y-35.92
X97.0Y-38.46
X97.0Y-41.0
X97.0Y-43.54
X97.0Y-46.08
X97.0Y-48.62
X97.0Y-51.16
X97.0Y-53.7
X97.0Y-56.24
X97.0Y-58.78
X97.0Y-61.32
X97.0Y-63.86
X97.0Y-66.4
X97.0Y-68.94
X97.0Y-71.48
X97.0Y-74.02
X97.0Y-76.56
X97.0Y-79.1
X97.0Y-81.64
X98.08Y-125.0
X98.32Y-120.0
X100.62Y-125.0
X100.86Y-120.0
X103.16Y-125.0
X103.4Y-120.0
X105.7Y-125.0
X105.94Y-120.0
X108.24Y-125.0
X108.48Y-120.0
X110.14Y-89.0
X110.14Y-91.54
X110.78Y-125.0
X111.02Y-120.0
X112.68Y-89.0
X112.68Y-91.54
X113.32Y-125.0
X113.56Y-120.0
X115.22Y-89.0
X115.22Y-91.54
X115.86Y-125.0
X116.1Y-120.0
X117.76Y-89.0
X117.76Y-91.54
X129.475Y-35.0
X132.015Y-35.0
X134.555Y-35.0
T5
X32.92Y-24.0
X35.92Y-111.0
X38.0Y-24.0
X41.0Y-111.0
X49.92Y-111.0
X55.0Y-111.0
X130.0Y-23.0
X135.08Y-23.0
X140.465Y-111.0
X143.0Y-23.0
X145.545Y-111.0
X146.0Y-44.0
X148.08Y-23.0
X151.08Y-44.0
X153.92Y-111.0
X156.0Y-23.0
X156.16Y-44.0
X159.0Y-111.0
X161.08Y-23.0
X171.0Y-33.0
X171.0Y-38.08
X171.0Y-46.0
X171.0Y-51.08
X171.0Y-56.16
T6
X69.76Y-93.0
X69.76Y-95.54
X69.76Y-98.08
X69.76Y-100.62
X69.76Y-103.16
X69.76Y-105.7
X69.76Y-108.24
X69.76Y-110.78
X85.0Y-93.0
X85.0Y-95.54
X85.0Y-98.08
X85.0Y-100.62
X85.0Y-103.16
X85.0Y-105.7
X85.0Y-108.24
X85.0Y-110.78
T7
X25.5Y-20.0
X25.5Y-125.0
X36.5Y-60.0
X36.5Y-86.5
X57.5Y-60.0
X57.5Y-86.5
X138.0Y-60.0
X138.0Y-86.5
X159.0Y-60.0
X159.0Y-86.5
X173.0Y-20.0
X173.0Y-125.0
T4
X45.3Y-27.0G85X45.3Y-29.0
G05
X51.0Y-25.0G85X49.0Y-25.0
G05
X51.0Y-31.0G85X49.0Y-31.0
G05
X61.3Y-27.0G85X61.3Y-29.0
G05
X67.0Y-25.0G85X65.0Y-25.0
G05
X67.0Y-31.0G85X65.0Y-31.0
G05
M30
